<svg width="280" height="203" viewBox="0 0 280 203" fill="none" xmlns="http://www.w3.org/2000/svg">
<path opacity="0.75" d="M101.614 18V17.68C101.614 13.056 107.47 13.568 107.47 10.608C107.47 9.248 106.702 8.432 105.246 8.432C103.662 8.432 102.894 9.248 102.67 10.576H101.598C101.87 8.688 103.102 7.536 105.262 7.536C107.422 7.536 108.526 8.816 108.526 10.592C108.526 14 103.086 13.712 102.67 17.168H108.686V18H101.614ZM110.801 18V16.656H112.145V18H110.801ZM128.611 10.128H127.475C127.027 8.688 125.779 7.872 124.291 7.872C121.971 7.872 120.595 9.68 120.595 12.576C120.595 15.472 121.971 17.248 124.291 17.248C125.731 17.248 126.915 16.48 127.443 15.04H128.579C127.955 17.04 126.259 18.176 124.275 18.176C121.299 18.176 119.491 16.048 119.491 12.576C119.491 9.12 121.315 6.944 124.323 6.944C126.323 6.944 128.051 8.064 128.611 10.128ZM131.519 12.288H130.479C130.751 10.448 131.903 9.36 133.951 9.36C136.127 9.36 137.167 10.64 137.167 12.624V16.016C137.167 16.944 137.247 17.552 137.487 18H136.383C136.175 17.6 136.127 16.96 136.127 16.368C135.407 17.632 134.143 18.176 133.071 18.176C131.327 18.176 130.191 17.344 130.191 15.776C130.191 14.624 130.815 13.856 132.031 13.456C133.199 13.072 134.383 12.96 136.127 12.96V12.672C136.127 11.12 135.439 10.256 133.855 10.256C132.447 10.256 131.711 11.04 131.519 12.288ZM131.247 15.744C131.247 16.704 131.999 17.28 133.167 17.28C134.831 17.28 136.127 15.904 136.127 14.336V13.744C132.111 13.76 131.247 14.592 131.247 15.744ZM139.845 15.68V10.368H138.565V9.536H139.845V7.584H140.885V9.536H142.773V10.368H140.885V15.68C140.885 16.8 141.205 17.296 142.501 17.296H142.757V18.048C142.629 18.096 142.341 18.128 142.053 18.128C140.517 18.128 139.845 17.376 139.845 15.68ZM147.673 18V7.12H151.209C153.593 7.12 155.113 8.416 155.113 10.496C155.113 12.624 153.577 13.888 151.225 13.888H148.745V18H147.673ZM151.193 8H148.745V12.992H151.161C152.921 12.992 153.993 12.048 153.993 10.496C153.993 8.976 152.921 8 151.193 8ZM157.029 18V6.48H158.069V18H157.029ZM166.017 14.592V9.536H167.057V18H166.017V16.56C165.457 17.616 164.481 18.176 163.297 18.176C161.537 18.176 160.529 17.12 160.529 15.2V9.536H161.569V14.992C161.569 16.352 162.177 17.28 163.585 17.28C165.121 17.28 166.017 15.872 166.017 14.592ZM170.153 11.68C170.153 14.32 175.737 12.112 175.737 15.632C175.737 17.216 174.377 18.176 172.489 18.176C170.521 18.176 169.177 17.216 168.857 15.248H169.897C170.105 16.608 171.065 17.344 172.521 17.344C173.945 17.344 174.697 16.672 174.697 15.712C174.697 13.072 169.161 15.248 169.161 11.76C169.161 10.48 170.121 9.36 172.121 9.36C173.881 9.36 175.177 10.224 175.433 12.288H174.393C174.185 10.8 173.353 10.208 172.057 10.208C170.841 10.208 170.153 10.832 170.153 11.68ZM177.591 18V6.48H178.631V10.96C179.207 9.92 180.183 9.36 181.383 9.36C183.175 9.36 184.199 10.432 184.199 12.336V18H183.175V12.56C183.175 11.184 182.535 10.24 181.111 10.24C179.543 10.24 178.631 11.664 178.631 12.944V18H177.591Z" fill="black"/>
<path d="M86.1006 85.0273C99.816 85.0275 110.924 96.2238 110.924 110.001V125.574C118.368 116.624 129.005 110.433 141.059 108.73L142.37 108.545L142.887 109.765C148.788 123.686 162.522 133.44 178.5 133.44C181.006 133.44 183.471 133.187 185.873 132.722L187.924 132.324V179.751C187.924 184.979 183.721 189.225 178.5 189.225C173.279 189.224 169.077 184.979 169.077 179.751V149.25L142.965 170.277H151.551C156.772 170.278 160.974 174.523 160.974 179.751C160.974 184.979 156.772 189.224 151.551 189.225H116.9C103.185 189.225 92.0772 178.028 92.0771 164.251V110.001C92.0771 106.876 89.7313 104.333 86.7559 104.019L85.2275 103.948L85.1758 103.946L85.124 103.94C80.3779 103.436 76.6768 99.4068 76.6768 94.501C76.6768 89.2729 80.8792 85.0273 86.1006 85.0273ZM149.827 64.4316C149.827 59.703 155.318 57.0635 158.965 60.1338L158.964 60.1348L171.427 70.5791H185.574L198.036 60.1348V60.1338C201.683 57.0636 207.174 59.7031 207.174 64.4316V91.6777C207.174 107.61 194.357 120.525 178.5 120.525C162.643 120.525 149.827 107.61 149.827 91.6777V64.4316Z" stroke="black" stroke-width="3.44693"/>
<ellipse cx="166.664" cy="92.0601" rx="3.85" ry="3.875" fill="black"/>
<ellipse cx="190.43" cy="92.0601" rx="3.85" ry="3.875" fill="black"/>
</svg>
