<svg width="280" height="204" viewBox="0 0 280 204" fill="none" xmlns="http://www.w3.org/2000/svg">
<path opacity="0.75" d="M8.34797 18V17.168H10.332V9.312C10.236 9.328 10.108 9.328 9.86797 9.328H8.34797V8.496H9.64397C10.348 8.496 10.508 8.352 10.508 7.92V7.712H11.42V17.168H13.404V18H8.34797ZM16.2387 18V16.656H17.5827V18H16.2387ZM34.048 10.128H32.912C32.464 8.688 31.216 7.872 29.728 7.872C27.408 7.872 26.032 9.68 26.032 12.576C26.032 15.472 27.408 17.248 29.728 17.248C31.168 17.248 32.352 16.48 32.88 15.04H34.016C33.392 17.04 31.696 18.176 29.712 18.176C26.736 18.176 24.928 16.048 24.928 12.576C24.928 9.12 26.752 6.944 29.76 6.944C31.76 6.944 33.488 8.064 34.048 10.128ZM36.9565 12.288H35.9165C36.1885 10.448 37.3405 9.36 39.3885 9.36C41.5645 9.36 42.6045 10.64 42.6045 12.624V16.016C42.6045 16.944 42.6845 17.552 42.9245 18H41.8205C41.6125 17.6 41.5645 16.96 41.5645 16.368C40.8445 17.632 39.5805 18.176 38.5085 18.176C36.7645 18.176 35.6285 17.344 35.6285 15.776C35.6285 14.624 36.2525 13.856 37.4685 13.456C38.6365 13.072 39.8205 12.96 41.5645 12.96V12.672C41.5645 11.12 40.8765 10.256 39.2925 10.256C37.8845 10.256 37.1485 11.04 36.9565 12.288ZM36.6845 15.744C36.6845 16.704 37.4365 17.28 38.6045 17.28C40.2685 17.28 41.5645 15.904 41.5645 14.336V13.744C37.5485 13.76 36.6845 14.592 36.6845 15.744ZM45.2826 15.68V10.368H44.0026V9.536H45.2826V7.584H46.3226V9.536H48.2106V10.368H46.3226V15.68C46.3226 16.8 46.6426 17.296 47.9386 17.296H48.1946V18.048C48.0666 18.096 47.7786 18.128 47.4906 18.128C45.9546 18.128 45.2826 17.376 45.2826 15.68ZM53.11 18V7.12H54.182V17.12H59.91V18H53.11ZM62.5034 12.288H61.4634C61.7354 10.448 62.8874 9.36 64.9354 9.36C67.1114 9.36 68.1514 10.64 68.1514 12.624V16.016C68.1514 16.944 68.2314 17.552 68.4714 18H67.3674C67.1594 17.6 67.1114 16.96 67.1114 16.368C66.3914 17.632 65.1274 18.176 64.0554 18.176C62.3114 18.176 61.1754 17.344 61.1754 15.776C61.1754 14.624 61.7994 13.856 63.0154 13.456C64.1834 13.072 65.3674 12.96 67.1114 12.96V12.672C67.1114 11.12 66.4234 10.256 64.8394 10.256C63.4314 10.256 62.6954 11.04 62.5034 12.288ZM62.2314 15.744C62.2314 16.704 62.9834 17.28 64.1514 17.28C65.8154 17.28 67.1114 15.904 67.1114 14.336V13.744C63.0954 13.76 62.2314 14.592 62.2314 15.744ZM70.6695 18V9.536H71.7095V10.896C72.2375 9.888 73.1335 9.36 74.2375 9.36C75.4695 9.36 76.3015 9.952 76.6535 11.04C77.1815 9.952 78.1255 9.36 79.2935 9.36C80.9735 9.36 81.9495 10.432 81.9495 12.336V18H80.9095V12.56C80.9095 11.184 80.3495 10.24 79.0695 10.24C77.6615 10.24 76.8295 11.664 76.8295 12.944V18H75.7895V12.56C75.7895 11.184 75.2295 10.24 73.9495 10.24C72.5415 10.24 71.7095 11.664 71.7095 12.944V18H70.6695ZM85.4595 21.52H84.4355V9.536H85.4595V10.912C86.0195 9.92 86.9155 9.36 88.0515 9.36C90.2435 9.36 91.5555 11.008 91.5555 13.744C91.5555 16.624 90.2115 18.176 88.0515 18.176C86.8995 18.176 86.0035 17.648 85.4595 16.672V21.52ZM87.9875 10.256C86.3555 10.256 85.4595 11.488 85.4595 13.76C85.4595 15.984 86.3875 17.28 87.9875 17.28C89.6035 17.28 90.4835 16.016 90.4835 13.744C90.4835 11.536 89.5715 10.256 87.9875 10.256Z" fill="black"/>
<path d="M120.501 191H159.501M140.001 191V145.5" stroke="black" stroke-width="3.875" stroke-linecap="round"/>
<path d="M94.2542 96.3925C98.2127 81.1435 100.189 73.519 105.304 68.4815C106.784 67.0221 108.434 65.7455 110.218 64.679C116.374 61 124.252 61 140.001 61C155.751 61 163.629 61 169.791 64.679C171.575 65.7455 173.225 67.0221 174.705 68.4815C179.814 73.519 181.79 81.1435 185.755 96.3925L186.301 98.4985C191.683 119.227 194.374 129.588 189.486 136.868C188.998 137.594 188.461 138.287 187.88 138.941C182.063 145.5 171.357 145.5 149.946 145.5H130.069C108.658 145.5 97.9462 145.5 92.1287 138.935C91.548 138.285 91.015 137.596 90.5297 136.868C85.6417 129.588 88.3327 119.227 93.7147 98.4985L94.2542 96.3925Z" stroke="black" stroke-width="3.875"/>
<path d="M175.751 145.5V158.5" stroke="black" stroke-width="3.875" stroke-linecap="round"/>
<circle cx="129.892" cy="104.905" r="3.20014" fill="black"/>
<circle cx="149.646" cy="104.905" r="3.20014" fill="black"/>
<path d="M116 81.21C116 76.8035 121.13 74.3832 124.52 77.2139L134.725 85.7109H146.077L156.282 77.2129C159.671 74.3827 164.802 76.8037 164.802 81.21V103.711C164.802 117.196 153.886 128.112 140.401 128.112C126.916 128.112 116 117.196 116 103.711V81.21Z" stroke="black" stroke-width="4"/>
</svg>
