<svg width="280" height="204" viewBox="0 0 280 204" fill="none" xmlns="http://www.w3.org/2000/svg">
<path opacity="0.75" d="M14.364 15.168C14.364 16.912 13.1 18.176 10.604 18.176C8.33197 18.176 6.98797 17.024 6.71597 15.12H7.77197C7.97997 16.432 8.85997 17.28 10.588 17.28C12.38 17.28 13.308 16.48 13.308 15.136C13.308 14.16 12.828 13.072 10.124 13.072H9.81997V12.24H10.076C12.604 12.24 12.988 11.2 12.988 10.4C12.988 9.168 12.188 8.432 10.636 8.432C9.01997 8.432 8.18797 9.248 7.97997 10.576H6.93997C7.21197 8.688 8.45997 7.536 10.652 7.536C12.908 7.536 14.044 8.72 14.044 10.4C14.044 11.36 13.628 12.176 12.364 12.592C13.9 13.072 14.364 14.048 14.364 15.168ZM16.2387 18V16.656H17.5827V18H16.2387ZM34.048 10.128H32.912C32.464 8.688 31.216 7.872 29.728 7.872C27.408 7.872 26.032 9.68 26.032 12.576C26.032 15.472 27.408 17.248 29.728 17.248C31.168 17.248 32.352 16.48 32.88 15.04H34.016C33.392 17.04 31.696 18.176 29.712 18.176C26.736 18.176 24.928 16.048 24.928 12.576C24.928 9.12 26.752 6.944 29.76 6.944C31.76 6.944 33.488 8.064 34.048 10.128ZM36.9565 12.288H35.9165C36.1885 10.448 37.3405 9.36 39.3885 9.36C41.5645 9.36 42.6045 10.64 42.6045 12.624V16.016C42.6045 16.944 42.6845 17.552 42.9245 18H41.8205C41.6125 17.6 41.5645 16.96 41.5645 16.368C40.8445 17.632 39.5805 18.176 38.5085 18.176C36.7645 18.176 35.6285 17.344 35.6285 15.776C35.6285 14.624 36.2525 13.856 37.4685 13.456C38.6365 13.072 39.8205 12.96 41.5645 12.96V12.672C41.5645 11.12 40.8765 10.256 39.2925 10.256C37.8845 10.256 37.1485 11.04 36.9565 12.288ZM36.6845 15.744C36.6845 16.704 37.4365 17.28 38.6045 17.28C40.2685 17.28 41.5645 15.904 41.5645 14.336V13.744C37.5485 13.76 36.6845 14.592 36.6845 15.744ZM45.2826 15.68V10.368H44.0026V9.536H45.2826V7.584H46.3226V9.536H48.2106V10.368H46.3226V15.68C46.3226 16.8 46.6426 17.296 47.9386 17.296H48.1946V18.048C48.0666 18.096 47.7786 18.128 47.4906 18.128C45.9546 18.128 45.2826 17.376 45.2826 15.68ZM53.11 18V7.12H54.614L58.278 15.68L58.614 16.608L58.934 15.68L62.598 7.12H64.054V18H62.982V8.352L62.198 10.448L58.966 18H58.182L54.95 10.448L54.182 8.4V18H53.11ZM72.1263 14.592V9.536H73.1663V18H72.1263V16.56C71.5663 17.616 70.5903 18.176 69.4062 18.176C67.6463 18.176 66.6383 17.12 66.6383 15.2V9.536H67.6783V14.992C67.6783 16.352 68.2863 17.28 69.6943 17.28C71.2303 17.28 72.1263 15.872 72.1263 14.592ZM78.5506 18.08C76.4226 18.08 75.1586 16.448 75.1586 13.728C75.1586 10.896 76.4546 9.36 78.5506 9.36C79.7986 9.36 80.6946 9.856 81.2386 10.8V9.536H82.2786V18.304C82.2786 20.672 80.8386 21.712 78.9506 21.712C77.0146 21.712 75.6866 20.752 75.3826 18.88H76.4226C76.6146 20.16 77.5746 20.848 78.9506 20.848C80.3586 20.848 81.2386 20.064 81.2386 18.336V16.592C80.6626 17.568 79.7346 18.08 78.5506 18.08ZM78.7266 17.184C80.3586 17.184 81.2386 15.952 81.2386 13.712C81.2386 11.536 80.3266 10.256 78.7266 10.256C77.1106 10.256 76.2146 11.488 76.2146 13.728C76.2146 15.92 77.1266 17.184 78.7266 17.184Z" fill="black"/>
<path d="M175.75 119.5H184.304C193.186 119.5 200.895 125.552 201.49 134.414C201.84 139.632 201.84 144.868 201.49 150.086C200.895 158.948 193.186 165 184.304 165H175.75M143.25 57.75V80.5M117.25 64.25V87M78.5035 166.008C78.991 181.127 88.9263 192.437 104.013 193.519C110.133 193.958 117.705 194.25 127 194.25C136.295 194.25 143.868 193.958 149.987 193.519C165.074 192.437 175.006 181.127 175.497 166.008C175.653 161.204 175.75 155.5 175.75 148.75C175.75 130.654 175.045 119.754 174.414 113.608C173.969 109.292 170.93 106.003 166.64 105.369C160.033 104.388 147.865 103.25 127 103.25C106.135 103.25 93.9638 104.388 87.3598 105.369C83.0698 106.003 80.031 109.292 79.5857 113.608C78.9552 119.75 78.25 130.654 78.25 148.75C78.25 155.5 78.3475 161.204 78.5035 166.008Z" stroke="black" stroke-width="3.875" stroke-linecap="round" stroke-linejoin="round"/>
<circle cx="117.63" cy="153.634" r="3.20014" fill="black"/>
<circle cx="137.384" cy="153.634" r="3.20014" fill="black"/>
<path d="M103.738 129.939C103.739 125.533 108.869 123.112 112.258 125.943L122.463 134.44H133.815L144.021 125.942C147.41 123.112 152.54 125.533 152.54 129.939V152.44C152.54 165.925 141.625 176.841 128.14 176.841C114.655 176.841 103.738 165.925 103.738 152.44V129.939Z" stroke="black" stroke-width="4"/>
</svg>
