<svg width="32" height="32" viewBox="0 0 32 32" fill="none" xmlns="http://www.w3.org/2000/svg">
<g clip-path="url(#clip0_218_1741)">
<path d="M2.47852 5.40845H29.5254C29.9101 5.40846 30.2727 5.49755 30.5811 5.65063V5.65454L30.5957 5.66138C31.3832 6.05362 31.9238 6.86799 31.9238 7.80688V24.0364C31.923 24.673 31.6698 25.2834 31.2197 25.7336C30.7694 26.184 30.1584 26.438 29.5215 26.4387H2.47754C1.84059 26.438 1.22969 26.184 0.779297 25.7336C0.385408 25.3397 0.142103 24.8232 0.0869141 24.2737L0.0751953 24.0354V7.80688C0.0761642 7.35946 0.20206 6.92112 0.438477 6.54126C0.645315 6.20895 0.929186 5.93236 1.26562 5.7356L1.41309 5.65649C1.7451 5.49491 2.10914 5.40998 2.47852 5.40845ZM20.5352 17.1165L17.6553 19.6165C17.2115 19.9901 16.6406 20.2161 16.0156 20.2161H15.9756C15.4282 20.216 14.9217 20.0431 14.5098 19.7502L14.3389 19.6174L11.46 17.1184L11.4111 17.0754L11.3613 17.1174L2.61133 24.635L2.45801 24.7668H29.541L29.3877 24.635L20.6328 17.1165L20.584 17.0745L20.5352 17.1165ZM30.1309 8.78638L21.9297 15.9114L21.8643 15.968L21.9297 16.0247L30.1309 23.0686L30.2549 23.175V8.67798L30.1309 8.78638ZM1.74512 23.1702L1.86914 23.0637L10.0693 16.0237L10.1348 15.967L10.0693 15.9104L1.86914 8.78442L1.74512 8.677V23.1702ZM2.59863 7.21021L15.4238 18.3479V18.3469L15.4277 18.3508L15.4395 18.3372L15.4287 18.3518C15.5467 18.447 15.687 18.5089 15.835 18.5334L15.9844 18.5452H16.0195C16.2208 18.5467 16.4162 18.4788 16.5732 18.3528L16.5762 18.3508L29.4043 7.21021L29.5557 7.07837H2.44727L2.59863 7.21021Z" fill="black" stroke="white" stroke-width="0.15"/>
</g>
<defs>
<clipPath id="clip0_218_1741">
<rect width="32" height="32" fill="white"/>
</clipPath>
</defs>
</svg>
