<svg width="1440" height="930" viewBox="0 0 1440 930" fill="none" xmlns="http://www.w3.org/2000/svg">
<circle cx="126" cy="3" r="3" fill="#D9D9D9"/>
<circle cx="126" cy="531" r="3" fill="#D9D9D9"/>
<circle cx="126" cy="267" r="3" fill="#D9D9D9"/>
<circle cx="126" cy="795" r="3" fill="#D9D9D9"/>
<circle cx="126" cy="135" r="3" fill="#D9D9D9"/>
<circle cx="126" cy="663" r="3" fill="#D9D9D9"/>
<circle cx="126" cy="399" r="3" fill="#D9D9D9"/>
<circle cx="126" cy="927" r="3" fill="#D9D9D9"/>
<circle cx="126" cy="69" r="3" fill="#D9D9D9"/>
<circle cx="126" cy="597" r="3" fill="#D9D9D9"/>
<circle cx="126" cy="333" r="3" fill="#D9D9D9"/>
<circle cx="126" cy="861" r="3" fill="#D9D9D9"/>
<circle cx="126" cy="201" r="3" fill="#D9D9D9"/>
<circle cx="126" cy="729" r="3" fill="#D9D9D9"/>
<circle cx="126" cy="465" r="3" fill="#D9D9D9"/>
<circle cx="60" cy="3" r="3" fill="#D9D9D9"/>
<circle cx="60" cy="531" r="3" fill="#D9D9D9"/>
<circle cx="60" cy="267" r="3" fill="#D9D9D9"/>
<circle cx="60" cy="795" r="3" fill="#D9D9D9"/>
<circle cx="60" cy="135" r="3" fill="#D9D9D9"/>
<circle cx="60" cy="663" r="3" fill="#D9D9D9"/>
<circle cx="60" cy="399" r="3" fill="#D9D9D9"/>
<circle cx="60" cy="927" r="3" fill="#D9D9D9"/>
<circle cx="60" cy="69" r="3" fill="#D9D9D9"/>
<circle cx="60" cy="597" r="3" fill="#D9D9D9"/>
<circle cx="60" cy="333" r="3" fill="#D9D9D9"/>
<circle cx="60" cy="861" r="3" fill="#D9D9D9"/>
<circle cx="60" cy="201" r="3" fill="#D9D9D9"/>
<circle cx="60" cy="729" r="3" fill="#D9D9D9"/>
<circle cx="60" cy="465" r="3" fill="#D9D9D9"/>
<circle cx="192" cy="3" r="3" fill="#D9D9D9"/>
<circle cx="192" cy="531" r="3" fill="#D9D9D9"/>
<circle cx="192" cy="267" r="3" fill="#D9D9D9"/>
<circle cx="192" cy="795" r="3" fill="#D9D9D9"/>
<circle cx="192" cy="135" r="3" fill="#D9D9D9"/>
<circle cx="192" cy="663" r="3" fill="#D9D9D9"/>
<circle cx="192" cy="399" r="3" fill="#D9D9D9"/>
<circle cx="192" cy="927" r="3" fill="#D9D9D9"/>
<circle cx="192" cy="69" r="3" fill="#D9D9D9"/>
<circle cx="192" cy="597" r="3" fill="#D9D9D9"/>
<circle cx="192" cy="333" r="3" fill="#D9D9D9"/>
<circle cx="192" cy="861" r="3" fill="#D9D9D9"/>
<circle cx="192" cy="201" r="3" fill="#D9D9D9"/>
<circle cx="192" cy="729" r="3" fill="#D9D9D9"/>
<circle cx="192" cy="465" r="3" fill="#D9D9D9"/>
<circle cx="258" cy="3" r="3" fill="#D9D9D9"/>
<circle cx="258" cy="531" r="3" fill="#D9D9D9"/>
<circle cx="258" cy="267" r="3" fill="#D9D9D9"/>
<circle cx="258" cy="795" r="3" fill="#D9D9D9"/>
<circle cx="258" cy="135" r="3" fill="#D9D9D9"/>
<circle cx="258" cy="663" r="3" fill="#D9D9D9"/>
<circle cx="258" cy="399" r="3" fill="#D9D9D9"/>
<circle cx="258" cy="927" r="3" fill="#D9D9D9"/>
<circle cx="258" cy="69" r="3" fill="#D9D9D9"/>
<circle cx="258" cy="597" r="3" fill="#D9D9D9"/>
<circle cx="258" cy="333" r="3" fill="#D9D9D9"/>
<circle cx="258" cy="861" r="3" fill="#D9D9D9"/>
<circle cx="258" cy="201" r="3" fill="#D9D9D9"/>
<circle cx="258" cy="729" r="3" fill="#D9D9D9"/>
<circle cx="258" cy="465" r="3" fill="#D9D9D9"/>
<circle cx="324" cy="3" r="3" fill="#D9D9D9"/>
<circle cx="324" cy="531" r="3" fill="#D9D9D9"/>
<circle cx="324" cy="267" r="3" fill="#D9D9D9"/>
<circle cx="324" cy="795" r="3" fill="#D9D9D9"/>
<circle cx="324" cy="135" r="3" fill="#D9D9D9"/>
<circle cx="324" cy="663" r="3" fill="#D9D9D9"/>
<circle cx="324" cy="399" r="3" fill="#D9D9D9"/>
<circle cx="324" cy="927" r="3" fill="#D9D9D9"/>
<circle cx="324" cy="69" r="3" fill="#D9D9D9"/>
<circle cx="324" cy="597" r="3" fill="#D9D9D9"/>
<circle cx="324" cy="333" r="3" fill="#D9D9D9"/>
<circle cx="324" cy="861" r="3" fill="#D9D9D9"/>
<circle cx="324" cy="201" r="3" fill="#D9D9D9"/>
<circle cx="324" cy="729" r="3" fill="#D9D9D9"/>
<circle cx="324" cy="465" r="3" fill="#D9D9D9"/>
<circle cx="390" cy="3" r="3" fill="#D9D9D9"/>
<circle cx="984" cy="3" r="3" fill="#D9D9D9"/>
<circle cx="390" cy="531" r="3" fill="#D9D9D9"/>
<circle cx="984" cy="531" r="3" fill="#D9D9D9"/>
<circle cx="390" cy="267" r="3" fill="#D9D9D9"/>
<circle cx="984" cy="267" r="3" fill="#D9D9D9"/>
<circle cx="390" cy="795" r="3" fill="#D9D9D9"/>
<circle cx="984" cy="795" r="3" fill="#D9D9D9"/>
<circle cx="390" cy="135" r="3" fill="#D9D9D9"/>
<circle cx="984" cy="135" r="3" fill="#D9D9D9"/>
<circle cx="390" cy="663" r="3" fill="#D9D9D9"/>
<circle cx="984" cy="663" r="3" fill="#D9D9D9"/>
<circle cx="390" cy="399" r="3" fill="#D9D9D9"/>
<circle cx="984" cy="399" r="3" fill="#D9D9D9"/>
<circle cx="390" cy="927" r="3" fill="#D9D9D9"/>
<circle cx="984" cy="927" r="3" fill="#D9D9D9"/>
<circle cx="390" cy="69" r="3" fill="#D9D9D9"/>
<circle cx="984" cy="69" r="3" fill="#D9D9D9"/>
<circle cx="390" cy="597" r="3" fill="#D9D9D9"/>
<circle cx="984" cy="597" r="3" fill="#D9D9D9"/>
<circle cx="390" cy="333" r="3" fill="#D9D9D9"/>
<circle cx="984" cy="333" r="3" fill="#D9D9D9"/>
<circle cx="390" cy="861" r="3" fill="#D9D9D9"/>
<circle cx="984" cy="861" r="3" fill="#D9D9D9"/>
<circle cx="390" cy="201" r="3" fill="#D9D9D9"/>
<circle cx="984" cy="201" r="3" fill="#D9D9D9"/>
<circle cx="390" cy="729" r="3" fill="#D9D9D9"/>
<circle cx="984" cy="729" r="3" fill="#D9D9D9"/>
<circle cx="390" cy="465" r="3" fill="#D9D9D9"/>
<circle cx="984" cy="465" r="3" fill="#D9D9D9"/>
<circle cx="456" cy="3" r="3" fill="#D9D9D9"/>
<circle cx="1050" cy="3" r="3" fill="#D9D9D9"/>
<circle cx="456" cy="531" r="3" fill="#D9D9D9"/>
<circle cx="1050" cy="531" r="3" fill="#D9D9D9"/>
<circle cx="456" cy="267" r="3" fill="#D9D9D9"/>
<circle cx="1050" cy="267" r="3" fill="#D9D9D9"/>
<circle cx="456" cy="795" r="3" fill="#D9D9D9"/>
<circle cx="1050" cy="795" r="3" fill="#D9D9D9"/>
<circle cx="456" cy="135" r="3" fill="#D9D9D9"/>
<circle cx="1050" cy="135" r="3" fill="#D9D9D9"/>
<circle cx="456" cy="663" r="3" fill="#D9D9D9"/>
<circle cx="1050" cy="663" r="3" fill="#D9D9D9"/>
<circle cx="456" cy="399" r="3" fill="#D9D9D9"/>
<circle cx="1050" cy="399" r="3" fill="#D9D9D9"/>
<circle cx="456" cy="927" r="3" fill="#D9D9D9"/>
<circle cx="1050" cy="927" r="3" fill="#D9D9D9"/>
<circle cx="456" cy="69" r="3" fill="#D9D9D9"/>
<circle cx="1050" cy="69" r="3" fill="#D9D9D9"/>
<circle cx="456" cy="597" r="3" fill="#D9D9D9"/>
<circle cx="1050" cy="597" r="3" fill="#D9D9D9"/>
<circle cx="456" cy="333" r="3" fill="#D9D9D9"/>
<circle cx="1050" cy="333" r="3" fill="#D9D9D9"/>
<circle cx="456" cy="861" r="3" fill="#D9D9D9"/>
<circle cx="1050" cy="861" r="3" fill="#D9D9D9"/>
<circle cx="456" cy="201" r="3" fill="#D9D9D9"/>
<circle cx="1050" cy="201" r="3" fill="#D9D9D9"/>
<circle cx="456" cy="729" r="3" fill="#D9D9D9"/>
<circle cx="1050" cy="729" r="3" fill="#D9D9D9"/>
<circle cx="456" cy="465" r="3" fill="#D9D9D9"/>
<circle cx="1050" cy="465" r="3" fill="#D9D9D9"/>
<circle cx="522" cy="3" r="3" fill="#D9D9D9"/>
<circle cx="1116" cy="3" r="3" fill="#D9D9D9"/>
<circle cx="522" cy="531" r="3" fill="#D9D9D9"/>
<circle cx="1116" cy="531" r="3" fill="#D9D9D9"/>
<circle cx="522" cy="267" r="3" fill="#D9D9D9"/>
<circle cx="1116" cy="267" r="3" fill="#D9D9D9"/>
<circle cx="522" cy="795" r="3" fill="#D9D9D9"/>
<circle cx="1116" cy="795" r="3" fill="#D9D9D9"/>
<circle cx="522" cy="135" r="3" fill="#D9D9D9"/>
<circle cx="1116" cy="135" r="3" fill="#D9D9D9"/>
<circle cx="522" cy="663" r="3" fill="#D9D9D9"/>
<circle cx="1116" cy="663" r="3" fill="#D9D9D9"/>
<circle cx="522" cy="399" r="3" fill="#D9D9D9"/>
<circle cx="1116" cy="399" r="3" fill="#D9D9D9"/>
<circle cx="522" cy="927" r="3" fill="#D9D9D9"/>
<circle cx="1116" cy="927" r="3" fill="#D9D9D9"/>
<circle cx="522" cy="69" r="3" fill="#D9D9D9"/>
<circle cx="1116" cy="69" r="3" fill="#D9D9D9"/>
<circle cx="522" cy="597" r="3" fill="#D9D9D9"/>
<circle cx="1116" cy="597" r="3" fill="#D9D9D9"/>
<circle cx="522" cy="333" r="3" fill="#D9D9D9"/>
<circle cx="1116" cy="333" r="3" fill="#D9D9D9"/>
<circle cx="522" cy="861" r="3" fill="#D9D9D9"/>
<circle cx="1116" cy="861" r="3" fill="#D9D9D9"/>
<circle cx="522" cy="201" r="3" fill="#D9D9D9"/>
<circle cx="1116" cy="201" r="3" fill="#D9D9D9"/>
<circle cx="522" cy="729" r="3" fill="#D9D9D9"/>
<circle cx="1116" cy="729" r="3" fill="#D9D9D9"/>
<circle cx="522" cy="465" r="3" fill="#D9D9D9"/>
<circle cx="1116" cy="465" r="3" fill="#D9D9D9"/>
<circle cx="588" cy="3" r="3" fill="#D9D9D9"/>
<circle cx="1182" cy="3" r="3" fill="#D9D9D9"/>
<circle cx="588" cy="531" r="3" fill="#D9D9D9"/>
<circle cx="1182" cy="531" r="3" fill="#D9D9D9"/>
<circle cx="588" cy="267" r="3" fill="#D9D9D9"/>
<circle cx="1182" cy="267" r="3" fill="#D9D9D9"/>
<circle cx="588" cy="795" r="3" fill="#D9D9D9"/>
<circle cx="1182" cy="795" r="3" fill="#D9D9D9"/>
<circle cx="588" cy="135" r="3" fill="#D9D9D9"/>
<circle cx="1182" cy="135" r="3" fill="#D9D9D9"/>
<circle cx="588" cy="663" r="3" fill="#D9D9D9"/>
<circle cx="1182" cy="663" r="3" fill="#D9D9D9"/>
<circle cx="588" cy="399" r="3" fill="#D9D9D9"/>
<circle cx="1182" cy="399" r="3" fill="#D9D9D9"/>
<circle cx="588" cy="927" r="3" fill="#D9D9D9"/>
<circle cx="1182" cy="927" r="3" fill="#D9D9D9"/>
<circle cx="588" cy="69" r="3" fill="#D9D9D9"/>
<circle cx="1182" cy="69" r="3" fill="#D9D9D9"/>
<circle cx="588" cy="597" r="3" fill="#D9D9D9"/>
<circle cx="1182" cy="597" r="3" fill="#D9D9D9"/>
<circle cx="588" cy="333" r="3" fill="#D9D9D9"/>
<circle cx="1182" cy="333" r="3" fill="#D9D9D9"/>
<circle cx="588" cy="861" r="3" fill="#D9D9D9"/>
<circle cx="1182" cy="861" r="3" fill="#D9D9D9"/>
<circle cx="588" cy="201" r="3" fill="#D9D9D9"/>
<circle cx="1182" cy="201" r="3" fill="#D9D9D9"/>
<circle cx="588" cy="729" r="3" fill="#D9D9D9"/>
<circle cx="1182" cy="729" r="3" fill="#D9D9D9"/>
<circle cx="588" cy="465" r="3" fill="#D9D9D9"/>
<circle cx="1182" cy="465" r="3" fill="#D9D9D9"/>
<circle cx="654" cy="3" r="3" fill="#D9D9D9"/>
<circle cx="1248" cy="3" r="3" fill="#D9D9D9"/>
<circle cx="654" cy="531" r="3" fill="#D9D9D9"/>
<circle cx="1248" cy="531" r="3" fill="#D9D9D9"/>
<circle cx="654" cy="267" r="3" fill="#D9D9D9"/>
<circle cx="1248" cy="267" r="3" fill="#D9D9D9"/>
<circle cx="654" cy="795" r="3" fill="#D9D9D9"/>
<circle cx="1248" cy="795" r="3" fill="#D9D9D9"/>
<circle cx="654" cy="135" r="3" fill="#D9D9D9"/>
<circle cx="1248" cy="135" r="3" fill="#D9D9D9"/>
<circle cx="654" cy="663" r="3" fill="#D9D9D9"/>
<circle cx="1248" cy="663" r="3" fill="#D9D9D9"/>
<circle cx="654" cy="399" r="3" fill="#D9D9D9"/>
<circle cx="1248" cy="399" r="3" fill="#D9D9D9"/>
<circle cx="654" cy="927" r="3" fill="#D9D9D9"/>
<circle cx="1248" cy="927" r="3" fill="#D9D9D9"/>
<circle cx="654" cy="69" r="3" fill="#D9D9D9"/>
<circle cx="1248" cy="69" r="3" fill="#D9D9D9"/>
<circle cx="654" cy="597" r="3" fill="#D9D9D9"/>
<circle cx="1248" cy="597" r="3" fill="#D9D9D9"/>
<circle cx="654" cy="333" r="3" fill="#D9D9D9"/>
<circle cx="1248" cy="333" r="3" fill="#D9D9D9"/>
<circle cx="654" cy="861" r="3" fill="#D9D9D9"/>
<circle cx="1248" cy="861" r="3" fill="#D9D9D9"/>
<circle cx="654" cy="201" r="3" fill="#D9D9D9"/>
<circle cx="1248" cy="201" r="3" fill="#D9D9D9"/>
<circle cx="654" cy="729" r="3" fill="#D9D9D9"/>
<circle cx="1248" cy="729" r="3" fill="#D9D9D9"/>
<circle cx="654" cy="465" r="3" fill="#D9D9D9"/>
<circle cx="1248" cy="465" r="3" fill="#D9D9D9"/>
<circle cx="720" cy="3" r="3" fill="#D9D9D9"/>
<circle cx="1314" cy="3" r="3" fill="#D9D9D9"/>
<circle cx="720" cy="531" r="3" fill="#D9D9D9"/>
<circle cx="1314" cy="531" r="3" fill="#D9D9D9"/>
<circle cx="720" cy="267" r="3" fill="#D9D9D9"/>
<circle cx="1314" cy="267" r="3" fill="#D9D9D9"/>
<circle cx="720" cy="795" r="3" fill="#D9D9D9"/>
<circle cx="1314" cy="795" r="3" fill="#D9D9D9"/>
<circle cx="720" cy="135" r="3" fill="#D9D9D9"/>
<circle cx="1314" cy="135" r="3" fill="#D9D9D9"/>
<circle cx="720" cy="663" r="3" fill="#D9D9D9"/>
<circle cx="1314" cy="663" r="3" fill="#D9D9D9"/>
<circle cx="720" cy="399" r="3" fill="#D9D9D9"/>
<circle cx="1314" cy="399" r="3" fill="#D9D9D9"/>
<circle cx="720" cy="927" r="3" fill="#D9D9D9"/>
<circle cx="1314" cy="927" r="3" fill="#D9D9D9"/>
<circle cx="720" cy="69" r="3" fill="#D9D9D9"/>
<circle cx="1314" cy="69" r="3" fill="#D9D9D9"/>
<circle cx="720" cy="597" r="3" fill="#D9D9D9"/>
<circle cx="1314" cy="597" r="3" fill="#D9D9D9"/>
<circle cx="720" cy="333" r="3" fill="#D9D9D9"/>
<circle cx="1314" cy="333" r="3" fill="#D9D9D9"/>
<circle cx="720" cy="861" r="3" fill="#D9D9D9"/>
<circle cx="1314" cy="861" r="3" fill="#D9D9D9"/>
<circle cx="720" cy="201" r="3" fill="#D9D9D9"/>
<circle cx="1314" cy="201" r="3" fill="#D9D9D9"/>
<circle cx="720" cy="729" r="3" fill="#D9D9D9"/>
<circle cx="1314" cy="729" r="3" fill="#D9D9D9"/>
<circle cx="720" cy="465" r="3" fill="#D9D9D9"/>
<circle cx="1314" cy="465" r="3" fill="#D9D9D9"/>
<circle cx="786" cy="3" r="3" fill="#D9D9D9"/>
<circle cx="1380" cy="3" r="3" fill="#D9D9D9"/>
<circle cx="786" cy="531" r="3" fill="#D9D9D9"/>
<circle cx="1380" cy="531" r="3" fill="#D9D9D9"/>
<circle cx="786" cy="267" r="3" fill="#D9D9D9"/>
<circle cx="1380" cy="267" r="3" fill="#D9D9D9"/>
<circle cx="786" cy="795" r="3" fill="#D9D9D9"/>
<circle cx="1380" cy="795" r="3" fill="#D9D9D9"/>
<circle cx="786" cy="135" r="3" fill="#D9D9D9"/>
<circle cx="1380" cy="135" r="3" fill="#D9D9D9"/>
<circle cx="786" cy="663" r="3" fill="#D9D9D9"/>
<circle cx="1380" cy="663" r="3" fill="#D9D9D9"/>
<circle cx="786" cy="399" r="3" fill="#D9D9D9"/>
<circle cx="1380" cy="399" r="3" fill="#D9D9D9"/>
<circle cx="786" cy="927" r="3" fill="#D9D9D9"/>
<circle cx="1380" cy="927" r="3" fill="#D9D9D9"/>
<circle cx="786" cy="69" r="3" fill="#D9D9D9"/>
<circle cx="1380" cy="69" r="3" fill="#D9D9D9"/>
<circle cx="786" cy="597" r="3" fill="#D9D9D9"/>
<circle cx="1380" cy="597" r="3" fill="#D9D9D9"/>
<circle cx="786" cy="333" r="3" fill="#D9D9D9"/>
<circle cx="1380" cy="333" r="3" fill="#D9D9D9"/>
<circle cx="786" cy="861" r="3" fill="#D9D9D9"/>
<circle cx="1380" cy="861" r="3" fill="#D9D9D9"/>
<circle cx="786" cy="201" r="3" fill="#D9D9D9"/>
<circle cx="1380" cy="201" r="3" fill="#D9D9D9"/>
<circle cx="786" cy="729" r="3" fill="#D9D9D9"/>
<circle cx="1380" cy="729" r="3" fill="#D9D9D9"/>
<circle cx="786" cy="465" r="3" fill="#D9D9D9"/>
<circle cx="1380" cy="465" r="3" fill="#D9D9D9"/>
<circle cx="852" cy="3" r="3" fill="#D9D9D9"/>
<circle cx="852" cy="531" r="3" fill="#D9D9D9"/>
<circle cx="852" cy="267" r="3" fill="#D9D9D9"/>
<circle cx="852" cy="795" r="3" fill="#D9D9D9"/>
<circle cx="852" cy="135" r="3" fill="#D9D9D9"/>
<circle cx="852" cy="663" r="3" fill="#D9D9D9"/>
<circle cx="852" cy="399" r="3" fill="#D9D9D9"/>
<circle cx="852" cy="927" r="3" fill="#D9D9D9"/>
<circle cx="852" cy="69" r="3" fill="#D9D9D9"/>
<circle cx="852" cy="597" r="3" fill="#D9D9D9"/>
<circle cx="852" cy="333" r="3" fill="#D9D9D9"/>
<circle cx="852" cy="861" r="3" fill="#D9D9D9"/>
<circle cx="852" cy="201" r="3" fill="#D9D9D9"/>
<circle cx="852" cy="729" r="3" fill="#D9D9D9"/>
<circle cx="852" cy="465" r="3" fill="#D9D9D9"/>
<circle cx="918" cy="3" r="3" fill="#D9D9D9"/>
<circle cx="918" cy="531" r="3" fill="#D9D9D9"/>
<circle cx="918" cy="267" r="3" fill="#D9D9D9"/>
<circle cx="918" cy="795" r="3" fill="#D9D9D9"/>
<circle cx="918" cy="135" r="3" fill="#D9D9D9"/>
<circle cx="918" cy="663" r="3" fill="#D9D9D9"/>
<circle cx="918" cy="399" r="3" fill="#D9D9D9"/>
<circle cx="918" cy="927" r="3" fill="#D9D9D9"/>
<circle cx="918" cy="69" r="3" fill="#D9D9D9"/>
<circle cx="918" cy="597" r="3" fill="#D9D9D9"/>
<circle cx="918" cy="333" r="3" fill="#D9D9D9"/>
<circle cx="918" cy="861" r="3" fill="#D9D9D9"/>
<circle cx="918" cy="201" r="3" fill="#D9D9D9"/>
<circle cx="918" cy="729" r="3" fill="#D9D9D9"/>
<circle cx="918" cy="465" r="3" fill="#D9D9D9"/>
</svg>
