<svg width="32" height="32" viewBox="0 0 32 32" fill="none" xmlns="http://www.w3.org/2000/svg">
<path fill-rule="evenodd" clip-rule="evenodd" d="M10 1C7.61305 1 5.32387 1.94821 3.63604 3.63604C1.94821 5.32387 1 7.61305 1 10V22C1 24.3869 1.94821 26.6761 3.63604 28.364C5.32387 30.0518 7.61305 31 10 31H22C24.3869 31 26.6761 30.0518 28.364 28.364C30.0518 26.6761 31 24.3869 31 22V10C31 7.61305 30.0518 5.32387 28.364 3.63604C26.6761 1.94821 24.3869 1 22 1H10ZM3 10C3 6.13333 6.13333 3 10 3H22C25.8667 3 29 6.13333 29 10V22C29 25.8667 25.8667 29 22 29H10C8.14348 29 6.36301 28.2625 5.05025 26.9497C3.7375 25.637 3 23.8565 3 22V10ZM26 8.33333C26 8.77536 25.8244 9.19928 25.5118 9.51184C25.1993 9.82441 24.7754 10 24.3333 10C23.8913 10 23.4674 9.82441 23.1548 9.51184C22.8423 9.19928 22.6667 8.77536 22.6667 8.33333C22.6667 7.89131 22.8423 7.46738 23.1548 7.15482C23.4674 6.84226 23.8913 6.66667 24.3333 6.66667C24.7754 6.66667 25.1993 6.84226 25.5118 7.15482C25.8244 7.46738 26 7.89131 26 8.33333ZM16 10.3333C15.2558 10.3333 14.519 10.4799 13.8315 10.7647C13.1439 11.0495 12.5193 11.4669 11.9931 11.9931C11.4669 12.5193 11.0495 13.1439 10.7647 13.8315C10.4799 14.519 10.3333 15.2558 10.3333 16C10.3333 16.7442 10.4799 17.481 10.7647 18.1685C11.0495 18.8561 11.4669 19.4807 11.9931 20.0069C12.5193 20.5331 13.1439 20.9505 13.8315 21.2353C14.519 21.5201 15.2558 21.6667 16 21.6667C17.5029 21.6667 18.9442 21.0696 20.0069 20.0069C21.0696 18.9442 21.6667 17.5029 21.6667 16C21.6667 14.4971 21.0696 13.0558 20.0069 11.9931C18.9442 10.9304 17.5029 10.3333 16 10.3333ZM8.33333 16C8.33333 13.9667 9.14107 12.0166 10.5788 10.5788C12.0166 9.14107 13.9667 8.33333 16 8.33333C18.0333 8.33333 19.9834 9.14107 21.4212 10.5788C22.8589 12.0166 23.6667 13.9667 23.6667 16C23.6667 18.0333 22.8589 19.9834 21.4212 21.4212C19.9834 22.8589 18.0333 23.6667 16 23.6667C13.9667 23.6667 12.0166 22.8589 10.5788 21.4212C9.14107 19.9834 8.33333 18.0333 8.33333 16Z" fill="black"/>
</svg>
