<svg width="65" height="65" viewBox="0 0 65 65" fill="none" xmlns="http://www.w3.org/2000/svg">
<g filter="url(#filter0_d_218_4191)">
<rect width="48" height="48" rx="24" transform="matrix(-1 0 0 1 56.2002 5.4668)" fill="white" shape-rendering="crispEdges"/>
<path d="M23.4931 30.1739C23.1026 29.7834 23.1026 29.1502 23.4931 28.7597L29.857 22.3957C30.2476 22.0052 30.8807 22.0052 31.2713 22.3957C31.6618 22.7863 31.6618 23.4194 31.2713 23.8099L25.6144 29.4668L31.2713 35.1237C31.6618 35.5142 31.6618 36.1473 31.2713 36.5379C30.8807 36.9284 30.2476 36.9284 29.857 36.5379L23.4931 30.1739ZM40.2002 29.4668V30.4668H24.2002V29.4668V28.4668H40.2002V29.4668Z" fill="black"/>
</g>
<defs>
<filter id="filter0_d_218_4191" x="0.000195503" y="0.000130415" width="64.4" height="64.4" filterUnits="userSpaceOnUse" color-interpolation-filters="sRGB">
<feFlood flood-opacity="0" result="BackgroundImageFix"/>
<feColorMatrix in="SourceAlpha" type="matrix" values="0 0 0 0 0 0 0 0 0 0 0 0 0 0 0 0 0 0 127 0" result="hardAlpha"/>
<feOffset dy="2.73333"/>
<feGaussianBlur stdDeviation="4.1"/>
<feComposite in2="hardAlpha" operator="out"/>
<feColorMatrix type="matrix" values="0 0 0 0 0 0 0 0 0 0 0 0 0 0 0 0 0 0 0.12 0"/>
<feBlend mode="normal" in2="BackgroundImageFix" result="effect1_dropShadow_218_4191"/>
<feBlend mode="normal" in="SourceGraphic" in2="effect1_dropShadow_218_4191" result="shape"/>
</filter>
</defs>
</svg>
