<?xml version="1.0" encoding="UTF-8"?>
<svg id="Layer_1" data-name="Layer 1" xmlns="http://www.w3.org/2000/svg" viewBox="0 0 29.5 32.03">
  <defs>
    <style>
      .cls-1 {
        fill: none;
        stroke: #000;
        stroke-linecap: round;
        stroke-linejoin: round;
        stroke-width: 1.69px;
      }
    </style>
  </defs>
  <path class="cls-1" d="M12.85,16.65h2.53v8.22M.84,10.96h27.81M21.07,5.9V.84M8.43,5.9V.84M3.37,31.19h22.76c.67,0,1.31-.27,1.79-.74.47-.47.74-1.12.74-1.79V5.9c0-.67-.27-1.31-.74-1.79-.47-.47-1.12-.74-1.79-.74H3.37c-.67,0-1.31.27-1.79.74s-.74,1.12-.74,1.79v22.76c0,.67.27,1.31.74,1.79.47.47,1.12.74,1.79.74Z"/>
</svg>