<svg width="41" height="41" viewBox="0 0 41 41" fill="none" xmlns="http://www.w3.org/2000/svg">
<path d="M18.332 20.8607H20.8606V29.0786M6.32129 15.1714H34.1356M26.5499 10.1143V5.05713M13.907 10.1143V5.05713M8.84986 35.4H31.607C32.2776 35.4 32.9208 35.1336 33.395 34.6594C33.8692 34.1852 34.1356 33.542 34.1356 32.8714V10.1143C34.1356 9.44365 33.8692 8.8005 33.395 8.3263C32.9208 7.8521 32.2776 7.5857 31.607 7.5857H8.84986C8.17924 7.5857 7.53609 7.8521 7.06189 8.3263C6.58769 8.8005 6.32129 9.44365 6.32129 10.1143V32.8714C6.32129 33.542 6.58769 34.1852 7.06189 34.6594C7.53609 35.1336 8.17924 35.4 8.84986 35.4Z" stroke="black" stroke-width="1.68571" stroke-linecap="round" stroke-linejoin="round"/>
</svg>
