<svg width="32" height="32" viewBox="0 0 32 32" fill="none" xmlns="http://www.w3.org/2000/svg">
<path d="M24.6667 14.6667V12C24.6667 11.4726 24.8231 10.957 25.1161 10.5185C25.4091 10.08 25.8256 9.73816 26.3128 9.53632C26.8001 9.33449 27.3363 9.28168 27.8536 9.38457C28.3709 9.48747 28.846 9.74144 29.219 10.1144C29.5919 10.4873 29.8459 10.9625 29.9488 11.4798C30.0517 11.997 29.9988 12.5332 29.797 13.0205C29.5952 13.5078 29.2534 13.9242 28.8149 14.2173C28.3763 14.5103 27.8608 14.6667 27.3333 14.6667H24.6667ZM17.3333 24.6667H20C20.5274 24.6667 21.043 24.8231 21.4815 25.1161C21.9201 25.4091 22.2618 25.8256 22.4637 26.3128C22.6655 26.8001 22.7183 27.3363 22.6154 27.8536C22.5125 28.3709 22.2586 28.846 21.8856 29.219C21.5127 29.5919 21.0375 29.8459 20.5202 29.9488C20.003 30.0517 19.4668 29.9988 18.9795 29.797C18.4922 29.5952 18.0758 29.2534 17.7827 28.8149C17.4897 28.3763 17.3333 27.8608 17.3333 27.3333V24.6667ZM4.66667 17.3333H7.33333V20C7.33333 20.5274 7.17694 21.043 6.88392 21.4815C6.5909 21.9201 6.17443 22.2618 5.68716 22.4637C5.19989 22.6655 4.66371 22.7183 4.14643 22.6154C3.62914 22.5125 3.15399 22.2586 2.78105 21.8856C2.40811 21.5127 2.15413 21.0375 2.05124 20.5202C1.94835 20.003 2.00116 19.4668 2.20299 18.9795C2.40482 18.4922 2.74662 18.0758 3.18515 17.7827C3.62368 17.4897 4.13925 17.3333 4.66667 17.3333ZM14.6667 7.33333H12C11.4726 7.33333 10.957 7.17694 10.5185 6.88392C10.08 6.5909 9.73816 6.17443 9.53632 5.68716C9.33449 5.19989 9.28168 4.66371 9.38457 4.14643C9.48747 3.62914 9.74144 3.15399 10.1144 2.78105C10.4873 2.40811 10.9625 2.15413 11.4798 2.05124C11.997 1.94835 12.5332 2.00116 13.0205 2.20299C13.5078 2.40482 13.9242 2.74662 14.2173 3.18515C14.5103 3.62368 14.6667 4.13925 14.6667 4.66667V7.33333ZM4.33333 10H12.3333C12.9522 10 13.5457 10.2458 13.9833 10.6834C14.4208 11.121 14.6667 11.7145 14.6667 12.3333C14.6667 12.9522 14.4208 13.5457 13.9833 13.9833C13.5457 14.4208 12.9522 14.6667 12.3333 14.6667H4.33333C3.7145 14.6667 3.121 14.4208 2.68342 13.9833C2.24583 13.5457 2 12.9522 2 12.3333C2 11.7145 2.24583 11.121 2.68342 10.6834C3.121 10.2458 3.7145 10 4.33333 10ZM10 27.6667V19.6667C10 19.0478 10.2458 18.4543 10.6834 18.0168C11.121 17.5792 11.7145 17.3333 12.3333 17.3333C12.9522 17.3333 13.5457 17.5792 13.9833 18.0168C14.4208 18.4543 14.6667 19.0478 14.6667 19.6667V27.6667C14.6667 28.2855 14.4208 28.879 13.9833 29.3166C13.5457 29.7542 12.9522 30 12.3333 30C11.7145 30 11.121 29.7542 10.6834 29.3166C10.2458 28.879 10 28.2855 10 27.6667ZM19.6667 17.3333H27.6667C28.2855 17.3333 28.879 17.5792 29.3166 18.0168C29.7542 18.4543 30 19.0478 30 19.6667C30 20.2855 29.7542 20.879 29.3166 21.3166C28.879 21.7542 28.2855 22 27.6667 22H19.6667C19.0478 22 18.4543 21.7542 18.0168 21.3166C17.5792 20.879 17.3333 20.2855 17.3333 19.6667C17.3333 19.0478 17.5792 18.4543 18.0168 18.0168C18.4543 17.5792 19.0478 17.3333 19.6667 17.3333ZM17.3333 12.3333V4.33333C17.3333 3.7145 17.5792 3.121 18.0168 2.68342C18.4543 2.24583 19.0478 2 19.6667 2C20.2855 2 20.879 2.24583 21.3166 2.68342C21.7542 3.121 22 3.7145 22 4.33333V12.3333C22 12.9522 21.7542 13.5457 21.3166 13.9833C20.879 14.4208 20.2855 14.6667 19.6667 14.6667C19.0478 14.6667 18.4543 14.4208 18.0168 13.9833C17.5792 13.5457 17.3333 12.9522 17.3333 12.3333Z" stroke="black" stroke-width="1.68571" stroke-linecap="round" stroke-linejoin="round"/>
</svg>
