<?xml version="1.0" encoding="UTF-8" standalone="no"?>
<!-- Created with Inkscape (http://www.inkscape.org/) -->

<svg
   xmlns:dc="http://purl.org/dc/elements/1.1/"
   xmlns:cc="http://creativecommons.org/ns#"
   xmlns:rdf="http://www.w3.org/1999/02/22-rdf-syntax-ns#"
   xmlns:svg="http://www.w3.org/2000/svg"
   xmlns="http://www.w3.org/2000/svg"
   xmlns:sodipodi="http://sodipodi.sourceforge.net/DTD/sodipodi-0.dtd"
   xmlns:inkscape="http://www.inkscape.org/namespaces/inkscape"
   id="svg2"
   version="1.1"
   inkscape:version="0.91 r13725"
   xml:space="preserve"
   width="765"
   height="765"
   viewBox="0 0 765 765"
   sodipodi:docname="impactLogo_final.ai.svg"><metadata
     id="metadata8"><rdf:RDF><cc:Work
         rdf:about=""><dc:format>image/svg+xml</dc:format><dc:type
           rdf:resource="http://purl.org/dc/dcmitype/StillImage" /><dc:title></dc:title></cc:Work></rdf:RDF></metadata><defs
     id="defs6"><clipPath
       clipPathUnits="userSpaceOnUse"
       id="clipPath26"><path
         d="M 0,612 612,612 612,0 0,0 0,612 Z"
         id="path28"
         inkscape:connector-curvature="0" /></clipPath></defs><sodipodi:namedview
     pagecolor="#ffffff"
     bordercolor="#666666"
     borderopacity="1"
     objecttolerance="10"
     gridtolerance="10"
     guidetolerance="10"
     inkscape:pageopacity="0"
     inkscape:pageshadow="2"
     inkscape:window-width="2560"
     inkscape:window-height="1338"
     id="namedview4"
     showgrid="false"
     inkscape:zoom="1.4142136"
     inkscape:cx="309.34303"
     inkscape:cy="432.45855"
     inkscape:window-x="0"
     inkscape:window-y="1"
     inkscape:window-maximized="1"
     inkscape:current-layer="g10" /><g
     id="g10"
     inkscape:groupmode="layer"
     inkscape:label="impactLogo_final"
     transform="matrix(1.25,0,0,-1.25,0,765)"><text
       transform="matrix(0.99938064,0,0,-1,250.063,313.8774)"
       style="font-variant:normal;font-weight:normal;font-stretch:normal;font-size:80.08229828px;font-family:Norwester;-inkscape-font-specification:Norwester-Regular;writing-mode:lr-tb;fill:#000000;fill-opacity:1;fill-rule:nonzero;stroke:none"
       id="text12"><tspan
         x="0 18.899424 72.554565 105.38831 149.11324 185.23036 222.06822"
         y="0"
         sodipodi:role="line"
         id="tspan14">IMPACT </tspan><tspan
         x="0 38.519585 92.174728"
         y="74.076126"
         sodipodi:role="line"
         id="tspan16">CMU</tspan></text>
<text
       transform="matrix(0.99937959,0,0,-1,253.1172,214.5654)"
       style="font-variant:normal;font-weight:500;font-stretch:normal;font-size:19.01959991px;font-family:'Avenir Medium';-inkscape-font-specification:Avenir-Medium;writing-mode:lr-tb;fill:#000000;fill-opacity:1;fill-rule:nonzero;stroke:none"
       id="text18"><tspan
         x="0 12.857249 30.963909 46.636059 54.20586 69.878014 82.031532 89.601334 106.68094 124.7876 142.89426 159.27013 166.83994 180.74326 195.35031 208.5309"
         y="0"
         sodipodi:role="line"
         id="tspan20">SOCIAL GOOD EXPO</tspan></text>
<path
       inkscape:connector-curvature="0"
       id="path32"
       style="fill:#ee4049;fill-opacity:1;fill-rule:nonzero;stroke:none"
       d="m 180.5791,329.105 c 2.432,3.514 2.073,8.293 1.382,11.748 -0.602,3.011 1.23,6.898 1.845,10.096 1.844,9.602 0.542,19.014 -1.019,28.472 -0.556,3.372 0.354,5.377 3.854,5.996 4.266,0.755 8.697,0.827 12.899,-0.228 3.489,-0.875 8.359,-2.876 10.435,-6.037 1.997,-3.041 2.256,-9.47 1.856,-13.06 -0.907,-8.122 -2.334,-16.239 -4.319,-24.166 -0.547,-2.182 -1.593,-4.21 -2.764,-6.118 -1.291,-2.102 -2.057,-3.973 -4.531,-4.92 -1.564,-0.599 -3.248,-0.786 -4.877,-1.172 -2.972,-0.704 -5.907,-1.439 -9.024,-1.27 -0.554,0.03 -5.865,0.473 -5.737,0.659"
       inkscape:export-filename="/Users/Sashank/Documents/impactcmu/src/images/smalllogo.png"
       inkscape:export-xdpi="90"
       inkscape:export-ydpi="90" /><path
       inkscape:connector-curvature="0"
       id="path36"
       style="fill:#fcb42b;fill-opacity:1;fill-rule:nonzero;stroke:none"
       d="m 178.4707,343.2905 c -6.485,2.159 -12.58,4.053 -18.538,6.305 -0.987,0.373 -1.85,2.267 -1.974,3.535 -0.764,7.848 -1.027,15.754 -2.05,23.562 -0.412,3.144 -2.322,6.091 -3.768,9.662 -0.354,0.874 16.305,1.291 17.762,1.27 5.253,-0.076 7.499,-3.143 8.882,-7.977 3.031,-10.592 3.278,-21.162 0.516,-31.821 -0.342,-1.319 -0.497,-2.687 -0.83,-4.536"
       inkscape:export-filename="/Users/Sashank/Documents/impactcmu/src/images/smalllogo.png"
       inkscape:export-xdpi="90"
       inkscape:export-ydpi="90" /><path
       inkscape:connector-curvature="0"
       id="path40"
       style="fill:#9484be;fill-opacity:1;fill-rule:nonzero;stroke:none"
       d="m 215.8027,376.6587 c 1.583,1.187 6.629,0.466 8.578,0.486 0.939,0.009 1.893,0.017 2.797,-0.234 3.057,-0.849 5.904,-4.949 7.551,-7.508 3.312,-5.147 2.605,-10.869 0.802,-16.44 -1.916,-5.922 -0.177,-10.839 -3.812,-16.256 -1.192,-1.778 -4.146,-3.455 -6.552,-4.206 -1.716,-0.536 -3.603,-0.309 -5.409,-0.357 -5.915,-0.155 -9.818,2.144 -8.771,8.018 1.472,8.263 4.002,17.874 5.061,26.193 0.275,2.149 -1.546,8.435 -0.561,9.972 0.08,0.124 0.186,0.235 0.316,0.332"
       inkscape:export-filename="/Users/Sashank/Documents/impactcmu/src/images/smalllogo.png"
       inkscape:export-xdpi="90"
       inkscape:export-ydpi="90" /><path
       inkscape:connector-curvature="0"
       id="path44"
       style="fill:#7ec247;fill-opacity:1;fill-rule:nonzero;stroke:none"
       d="m 128.6904,355.7007 c -1.407,2.007 -4.201,6.537 -4.288,10.962 -0.115,5.92 1.834,7.257 1.834,7.257 l 0,-4.891 5.411,-9.402 22.439,-8.549 c 0,0 -2.16,30.25 -2.16,30.254 -0.117,1.64 -4.743,5.032 -5.873,6.283 -2.545,2.817 -5.058,6.189 -9.22,6.378 -2.441,0.111 -4.756,-1.024 -6.849,-2.284 -2.542,-1.53 -4.941,-3.284 -7.337,-5.036 -1.583,-1.157 -3.178,-2.326 -4.487,-3.785 -4.237,-4.722 -5.691,-12.224 -8.157,-17.979 -2.593,-6.051 1.296,-10.805 1.296,-10.805 l -1.902,-33.292 19.293,34.889 z"
       inkscape:export-filename="/Users/Sashank/Documents/impactcmu/src/images/smalllogo.png"
       inkscape:export-xdpi="90"
       inkscape:export-ydpi="90" /><path
       style="fill:#231f20;fill-opacity:1;fill-rule:nonzero;stroke:none;stroke-width:0.89899999;stroke-linecap:butt;stroke-linejoin:miter;stroke-miterlimit:10;stroke-dasharray:none;stroke-opacity:1"
       d="M 166.83203 321.17188 C 166.68469 321.16448 166.54456 321.16458 166.41211 321.17578 C 166.2347 321.19028 166.0721 321.22302 165.93164 321.27539 C 165.2853 321.51628 164.17353 322.74467 163.11719 324.25977 C 162.06085 325.77483 160.98472 327.54466 159.99219 328.86719 C 157.14915 332.6583 155.9567 339.39503 153.41211 343.90234 C 150.31947 349.38263 146.87713 353.60348 146.79102 353.70898 C 146.72477 353.92553 146.64147 354.14728 146.47852 354.5332 C 146.28617 354.98878 146.02654 355.57789 145.71484 356.26562 C 145.09143 357.6411 144.26317 359.40838 143.36719 361.25 C 141.57521 364.93325 139.54123 368.88522 138.29102 370.69141 C 137.80937 371.38696 137.47417 372.7572 137.35742 374.42383 C 137.24067 376.09048 137.31393 378.05433 137.49414 379.98633 C 137.6743 381.91834 137.96293 383.82187 138.26953 385.38281 C 138.57614 386.94375 138.92082 388.19009 139.13867 388.67969 C 140.5621 391.88314 143.79767 394.91203 147.35547 397.71484 C 150.91326 400.51768 154.77021 403.09622 157.41992 405.56836 C 164.64067 412.30772 171.34977 419.59535 177.46875 427.35156 C 179.49636 429.92166 180.28157 433.98774 180.60352 437.42383 C 180.76447 439.14188 180.79783 440.70267 180.7832 441.83398 C 180.7757 442.39967 180.75667 442.85763 180.73242 443.18164 C 180.71992 443.34365 180.70923 443.46901 180.69336 443.57422 C 180.69086 443.58747 180.68609 443.60273 180.68359 443.61523 C 180.68484 443.62786 180.68891 443.64105 180.69141 443.6543 C 180.70491 443.75555 180.71556 443.87983 180.72656 444.0332 C 180.74844 444.33999 180.76741 444.76604 180.78516 445.28906 C 180.82053 446.33511 180.8455 447.76651 180.84375 449.35547 C 180.84 452.53337 180.73575 456.32541 180.39258 458.91406 C 177.97174 477.15467 178.56217 475.52345 178.63672 494.28906 C 212.94632 494.89955 247.27197 495.02802 281.5918 495.37305 C 281.01257 469.43547 280.93548 463.18188 284.20703 437.02539 C 288.43454 403.24984 300.16512 374.16949 295.57422 340.62695 C 294.80877 341.57923 293.68475 343.0825 292.49219 345.4668 C 291.37943 347.69232 288.37159 349.6111 285.39062 351.10156 C 283.90017 351.84679 282.4127 352.46533 281.16406 352.90234 C 279.91543 353.33938 278.96573 353.60934 278.28906 353.60938 C 277.4999 353.60938 275.04804 353.42433 272.24414 353.08789 C 269.44025 352.75148 266.35769 352.27138 264.4082 351.62109 C 261.87114 350.77539 260.95958 348.59262 260.55273 347.39062 C 258.09022 351.92865 252.42105 354.66404 247.13281 356.27344 C 241.4427 358.00515 236.25781 358.49805 236.25781 358.49805 L 236.24805 358.50195 L 236.23438 358.50195 C 236.23438 358.50195 231.79949 358.74868 227.45312 358.25195 C 225.27996 358.0036 223.12727 357.58097 221.50586 356.79492 C 220.69515 356.4019 220.00822 355.91307 219.54297 355.27148 C 219.36049 355.01988 219.33179 354.69928 219.29883 354.37891 C 217.30738 355.79352 213.82807 358.15182 209.5918 360.45117 L 208.92578 361.08984 C 208.92078 361.09484 208.92462 361.09531 208.91797 361.10156 C 207.79547 362.22531 208.4043 364.14066 208.4043 364.14062 L 218.72852 380.5957 L 217.3457 383.01367 L 212.85352 380.76562 L 205.05664 362.94922 C 205.00789 362.92547 204.96188 362.90148 204.92188 362.86523 C 204.89937 362.84698 204.88373 362.82411 204.86523 362.80273 C 200.54387 364.74317 195.96232 366.20472 191.91211 365.99609 C 190.61908 365.92947 189.38662 365.68043 188.22852 365.23633 L 177.22656 392.68555 L 168.46484 390.11523 L 172.375 390.11523 C 172.12425 390.11523 172.27891 390.13847 172.44141 389.97852 C 172.60391 389.81857 172.83212 389.5503 173.0957 389.20117 C 173.62287 388.50292 174.30091 387.4802 175.07031 386.24805 C 176.60909 383.78375 178.51133 380.48125 180.35742 377.17969 C 183.79217 371.03694 186.78427 365.37212 187.2207 364.54492 A 0.86427553 0.86427553 0 0 1 187.19727 364.47852 C 185.01069 363.50254 181.31787 361.89607 178.01953 359.82031 C 176.22978 358.69394 174.57198 357.43753 173.36328 356.05273 C 172.15458 354.66793 171.37535 353.11983 171.49805 351.46289 L 171.58008 350.40039 L 187.55469 363.13281 C 187.69869 363.19407 187.84027 363.25916 187.99023 363.31055 C 188.04606 363.32967 188.10284 363.35396 188.15625 363.38086 A 0.86427553 0.86427553 0 0 1 188.38086 363.44531 C 192.69306 365.39834 199.42797 363.51507 205.56445 360.58008 C 211.70093 357.64509 217.20683 353.78473 219.23242 352.31445 A 0.86383635 0.86383635 0 0 1 219.54492 352.1543 C 220.06147 351.80399 220.56187 351.43521 221.05078 351.05078 C 222.89615 349.0143 223.45306 346.70703 223.42383 344.66016 C 223.40545 343.37517 223.15658 342.20427 222.86328 341.31641 C 222.71663 340.87247 222.55909 340.49875 222.41797 340.22461 C 222.28627 339.96882 222.16233 339.81907 222.14062 339.79297 C 222.10563 339.77759 221.98483 339.70047 221.83203 339.63867 C 221.60323 339.54605 221.27437 339.42547 220.86719 339.28516 C 220.05282 339.00452 218.91722 338.64058 217.55078 338.21484 C 214.81797 337.36334 211.15926 336.26391 207.24805 335.07617 C 199.42563 332.70067 190.60962 329.97948 186.07227 328.12109 C 182.03182 326.46568 173.34707 323.22807 170.44922 322.26172 C 169.92546 322.08687 169.13753 321.71076 168.26758 321.44531 C 167.77892 321.2962 167.27787 321.19505 166.83398 321.17188 L 166.83203 321.17188 z M 199.01172 445.04688 C 204.88422 447.98188 222.50195 450.91992 222.50195 450.91992 L 221.52344 453.85547 L 199.01172 451.89648 L 199.01172 445.04688 z "
       transform="matrix(0.8,0,0,-0.8,0,612)"
       id="path4366"
       inkscape:export-filename="/Users/Sashank/Documents/impactcmu/src/images/smalllogo.png"
       inkscape:export-xdpi="90"
       inkscape:export-ydpi="90" /><path
       style="fill:#231f20;fill-opacity:1;fill-rule:nonzero;stroke:none;stroke-width:0.89899999;stroke-linecap:butt;stroke-linejoin:miter;stroke-miterlimit:10;stroke-dasharray:none;stroke-opacity:1"
       d="m 144.14218,257.55625 c -0.0192,-0.27672 -0.0418,-0.44565 -0.0594,-0.43594 l 0.21718,0.39375 c 3.9e-4,-2.1e-4 -0.0997,0.0264 -0.15782,0.0422 z"
       id="path48"
       inkscape:export-filename="/Users/Sashank/Documents/impactcmu/src/images/smalllogo.png"
       inkscape:export-xdpi="90"
       inkscape:export-ydpi="90" /><path
       inkscape:connector-curvature="0"
       id="path84"
       style="fill:#ffffff;fill-opacity:1;fill-rule:nonzero;stroke:none"
       d="m 150.1748,321.4111 c -0.444,0 -0.445,-0.691 0,-0.691 0.444,0 0.445,0.691 0,0.691"
       inkscape:export-filename="/Users/Sashank/Documents/impactcmu/src/images/smalllogo.png"
       inkscape:export-xdpi="90"
       inkscape:export-ydpi="90" /><text
       transform="matrix(1,0,0,-1,171.3555,474.2046)"
       style="font-variant:normal;font-weight:normal;font-stretch:normal;font-size:21.09959984px;font-family:'Myriad Pro';-inkscape-font-specification:MyriadPro-Regular;writing-mode:lr-tb;fill:#000000;fill-opacity:1;fill-rule:nonzero;stroke:none"
       id="text94"><tspan
         x="0 10.5709 22.471073 27.408381 34.392349 44.562355 56.568027 61.547535 72.118431 76.591545 83.765411 93.703323 105.709 116.27989 120.75301 130.68881 141.2597 148.15929 156.51472 161.45203 173.03571 184.74599"
         y="0"
         sodipodi:role="line"
         id="tspan96">editable type version:</tspan></text>
</g></svg>