<svg width="236" height="81" viewBox="0 0 236 81" fill="none" xmlns="http://www.w3.org/2000/svg">
<path d="M139 80C143.535 77.75 152.984 80 155 80" stroke="#0B1D51" stroke-width="1.2"/>
<path d="M94 80C98.5354 77.75 107.984 80 110 80" stroke="#0B1D51" stroke-width="1.2"/>
<path d="M25 80C29.5354 77.75 38.9843 80 41 80" stroke="#0B1D51" stroke-width="1.2"/>
<path d="M159 80C163.125 80 169 79.5 174 80" stroke="#0B1D51" stroke-width="1.2"/>
<path d="M73 80C77.125 80 83 79.5 88 80" stroke="#0B1D51" stroke-width="1.2"/>
<path d="M4 80C8.125 80 14 79.5 19 80" stroke="#0B1D51" stroke-width="1.2"/>
<path d="M218 80C222.125 80 228 79.5 233 80" stroke="#0B1D51" stroke-width="1.2"/>
<path d="M178 80C183.5 79 192 79.499 195 80" stroke="#0B1D51" stroke-width="1.2"/>
<path d="M116 80C121.5 79 130 79.499 133 80" stroke="#0B1D51" stroke-width="1.2"/>
<path d="M47 80C52.5 79 61 79.499 64 80" stroke="#0B1D51" stroke-width="1.2"/>
<path d="M198.5 79.999C203.5 78.499 208.5 79 213.5 79.999" stroke="#0B1D51" stroke-width="1.2"/>
<path d="M139 3C143.535 0.75 152.984 3 155 3" stroke="#0B1D51" stroke-width="1.2"/>
<path d="M94 3C98.5354 0.75 107.984 3 110 3" stroke="#0B1D51" stroke-width="1.2"/>
<path d="M25 3C29.5354 0.75 38.9843 3 41 3" stroke="#0B1D51" stroke-width="1.2"/>
<path d="M159 3C163.125 3 169 2.5 174 3" stroke="#0B1D51" stroke-width="1.2"/>
<path d="M73 3C77.125 3 83 2.5 88 3" stroke="#0B1D51" stroke-width="1.2"/>
<path d="M4 3C8.125 3 14 2.5 19 3" stroke="#0B1D51" stroke-width="1.2"/>
<path d="M218 3C222.125 3 228 2.5 233 3" stroke="#0B1D51" stroke-width="1.2"/>
<path d="M178 3C183.5 2 192 2.49902 195 3" stroke="#0B1D51" stroke-width="1.2"/>
<path d="M116 3C121.5 2 130 2.49902 133 3" stroke="#0B1D51" stroke-width="1.2"/>
<path d="M47 3C52.5 2 61 2.49902 64 3" stroke="#0B1D51" stroke-width="1.2"/>
<path d="M198.5 2.99902C203.5 1.49902 208.5 2 213.5 2.99902" stroke="#0B1D51" stroke-width="1.2"/>
<path d="M234 43C236.25 47.5354 234 56.9843 234 59" stroke="#0B1D51" stroke-width="1.2"/>
<path d="M234 63C234 67.125 234.5 73 234 78" stroke="#0B1D51" stroke-width="1.2"/>
<path d="M234 3C234 7.125 234.5 13 234 18" stroke="#0B1D51" stroke-width="1.2"/>
<path d="M234 22C235 27.5 234.501 36 234 39" stroke="#0B1D51" stroke-width="1.2"/>
<path d="M2 44C4.25 48.5354 2 57.9843 2 60" stroke="#0B1D51" stroke-width="1.2"/>
<path d="M2 64C2 68.125 2.5 74 2 79" stroke="#0B1D51" stroke-width="1.2"/>
<path d="M2 4C2 8.125 2.5 14 2 19" stroke="#0B1D51" stroke-width="1.2"/>
<path d="M2 23C3 28.5 2.50098 37 2 40" stroke="#0B1D51" stroke-width="1.2"/>
</svg>
