<svg width="60" height="60" viewBox="0 0 60 60" fill="none" xmlns="http://www.w3.org/2000/svg">
<path d="M37.4293 16.666C34.4016 15.027 30.8699 14.5123 27.4846 15.2176C26.8227 15.3554 26.3978 16.0038 26.5356 16.6658C26.6733 17.3276 27.3208 17.7524 27.9838 17.6147C30.8031 17.0273 33.7439 17.4552 36.2636 18.8193C36.449 18.9196 36.6486 18.9672 36.8455 18.9672C37.2805 18.9672 37.7017 18.7348 37.9231 18.3256C38.2449 17.7309 38.0238 16.9878 37.4293 16.666Z" fill="black"/>
<path d="M40.1081 18.8309H40.0919C39.4159 18.8309 38.8677 19.379 38.8677 20.0552C38.8677 20.7313 39.4159 21.2794 40.0919 21.2794H40.1081C40.7841 21.2794 41.3323 20.7313 41.3323 20.0552C41.3323 19.379 40.7841 18.8309 40.1081 18.8309Z" fill="black"/>
<path d="M57.6713 23.8646C56.2022 22.3954 54.2495 21.5691 52.1727 21.5379C50.7157 21.5158 49.3087 21.8877 48.0762 22.6015C47.1339 20.2171 45.7046 18.0286 43.8371 16.1613C41.9697 14.2939 39.7813 12.8644 37.3969 11.9221C38.1106 10.6897 38.4825 9.28262 38.4606 7.82564C38.4293 5.74885 37.603 3.79616 36.1339 2.32699C33.034 -0.77261 27.9904 -0.77261 24.8907 2.32699C22.3075 4.91026 21.8595 8.81364 23.5886 11.8573C21.1407 12.7984 18.8952 14.2511 16.9852 16.161C14.039 19.1072 12.1788 22.8405 11.606 26.9567C11.0521 30.9376 11.7917 35.069 13.6886 38.5895C14.0095 39.1845 14.7519 39.4072 15.3472 39.0866C15.9425 38.7659 16.165 38.0233 15.8444 37.428C12.4089 31.0525 13.5901 23.0192 18.7168 17.8926C21.8405 14.7689 25.9936 13.0485 30.4112 13.0485C34.8288 13.0485 38.9819 14.7689 42.1055 17.8926C45.2294 21.0163 46.9497 25.1694 46.9497 29.587C46.9497 34.0046 45.2293 38.1577 42.1055 41.2815C36.9787 46.4084 28.9452 47.5891 22.5699 44.1536C21.9742 43.8329 21.2321 44.0554 20.9112 44.6507C20.5906 45.2459 20.813 45.9885 21.4083 46.3093C24.1666 47.7956 27.2993 48.5713 30.4413 48.5713C31.3098 48.5713 32.1792 48.512 33.0414 48.3922C37.1577 47.8195 40.8908 45.9592 43.8371 43.013C45.747 41.1031 47.1998 38.8579 48.1407 36.4103C49.3533 37.0992 50.702 37.4436 52.0499 37.4436C54.085 37.4436 56.1172 36.6615 57.6713 35.1076C59.1729 33.606 59.9999 31.6096 59.9999 29.486C59.9999 27.3625 59.1728 25.366 57.6713 23.8646ZM34.9829 11.1516C33.5048 10.7879 31.9725 10.6002 30.4112 10.6002C28.9106 10.6002 27.4368 10.7744 26.012 11.1109C24.4865 8.95263 24.702 5.97877 26.6221 4.05866C28.7671 1.91367 32.2575 1.91367 34.4024 4.05866C36.3411 5.9974 36.5442 8.98931 34.9829 11.1516ZM55.9398 33.3763C54.0197 35.2964 51.0459 35.512 48.8876 33.9866C49.2241 32.5617 49.3984 31.088 49.3984 29.5873C49.3984 28.026 49.2105 26.4937 48.8467 25.0155C51.0091 23.4543 54.001 23.6571 55.9397 25.596C56.9788 26.6351 57.5512 28.0165 57.5512 29.486C57.551 30.9554 56.9789 32.3371 55.9398 33.3763Z" fill="black"/>
<path d="M27.8438 22.129C27.5238 21.8089 27.0984 21.6327 26.6458 21.6326H26.6454C26.1929 21.6326 25.7673 21.8087 25.4473 22.1288C24.7867 22.7894 24.7867 23.8643 25.4473 24.5251C25.7673 24.8452 26.1927 25.0213 26.6453 25.0213H26.6455C27.098 25.0212 27.5235 24.8451 27.8435 24.525C28.5042 23.8644 28.5042 22.7895 27.8438 22.129Z" fill="black"/>
<path d="M37.8688 32.1538C37.5488 31.8336 37.1232 31.6575 36.6705 31.6575C36.2181 31.6576 35.7924 31.8337 35.4724 32.1538C34.8118 32.8144 34.8117 33.8893 35.4723 34.55C35.7922 34.8699 36.2177 35.0462 36.6703 35.0462H36.6705C37.123 35.0462 37.5486 34.8701 37.8686 34.5499C38.5293 33.8893 38.5293 32.8142 37.8688 32.1538Z" fill="black"/>
<path d="M28.5469 36.6846C28.1722 36.672 27.82 36.5192 27.5549 36.2542C26.9852 35.6845 26.9815 34.7608 27.542 34.1857C27.5462 34.1815 27.5506 34.1777 27.5548 34.1736C27.5551 34.1733 27.5556 34.1729 27.5559 34.1726L28.478 33.2505C28.9561 32.7724 28.9561 31.9972 28.478 31.519C27.9997 31.0409 27.2248 31.0409 26.7464 31.519L25.845 32.4204C25.8379 32.4271 25.8304 32.433 25.8233 32.44C25.8184 32.4449 25.8141 32.45 25.8092 32.4548C25.5328 32.7238 25.1696 32.8724 24.7831 32.8724C24.3897 32.8724 24.0199 32.7192 23.7419 32.441C23.4767 32.1758 23.3237 31.8235 23.3113 31.4491C23.2889 30.7733 22.7207 30.2455 22.0472 30.2661C21.3713 30.2885 20.8417 30.8545 20.8642 31.5303C20.8973 32.528 21.3044 33.4664 22.0104 34.1724C22.7266 34.8886 23.671 35.2924 24.6794 35.3185C24.7051 36.2872 25.086 37.248 25.8235 37.9856C26.5296 38.6916 27.4679 39.0988 28.4656 39.1319C28.4794 39.1323 28.4932 39.1325 28.5069 39.1325C29.1642 39.1325 29.7079 38.6108 29.7298 37.949C29.7523 37.2731 29.2228 36.707 28.5469 36.6846Z" fill="black"/>
<path d="M18.7176 41.2799C18.2392 40.8018 17.4643 40.8018 16.986 41.2799L16.9745 41.2914C16.4964 41.7697 16.4964 42.5449 16.9745 43.023C17.2136 43.2621 17.5268 43.3816 17.8402 43.3816C18.1536 43.3816 18.4668 43.2621 18.706 43.023L18.7175 43.0115C19.1957 42.5333 19.1957 41.7581 18.7176 41.2799Z" fill="black"/>
</svg>
