<svg width="222" height="222" viewBox="0 0 222 222" fill="none" xmlns="http://www.w3.org/2000/svg">
<path d="M221 111C221 171.751 171.751 221 111 221C50.2487 221 1 171.751 1 111C1 50.2487 50.2487 1 111 1C171.751 1 221 50.2487 221 111Z" fill="white"/>
<path d="M197 111C197 171.751 158.273 221 110.5 221C62.7274 221 24 171.751 24 111C24 50.2487 62.7274 1 110.5 1C158.273 1 197 50.2487 197 111Z" fill="white"/>
<path d="M154 111C154 171.751 134.524 221 110.5 221C86.4756 221 67 171.751 67 111C67 50.2487 86.4756 1 110.5 1C134.524 1 154 50.2487 154 111Z" fill="white"/>
<path d="M110.5 221C158.273 221 197 171.751 197 111C197 50.2487 158.273 1 110.5 1M110.5 221C62.7274 221 24 171.751 24 111C24 50.2487 62.7274 1 110.5 1M110.5 221C134.524 221 154 171.751 154 111C154 50.2487 134.524 1 110.5 1M110.5 221C86.4756 221 67 171.751 67 111C67 50.2487 86.4756 1 110.5 1M110.5 221V1M14 59.5H208M14 162.5H208M1 108.5H221M221 111C221 171.751 171.751 221 111 221C50.2487 221 1 171.751 1 111C1 50.2487 50.2487 1 111 1C171.751 1 221 50.2487 221 111Z" stroke="black"/>
</svg>
