<svg width="710" height="95" viewBox="0 0 710 95" fill="none" xmlns="http://www.w3.org/2000/svg">
<g clip-path="url(#clip0_624_1342)">
<path d="M0.830383 94.148V90.82H7.31796V87.4916H10.5617V7.61489H7.31796V4.28669H0.830383V0.958496H26.7807V4.28669H20.2931V7.61489H17.0493V87.4916H20.2931V90.82H26.7807V94.148H0.830383ZM33.2682 94.148V90.82H39.7558V87.4916H42.9994V7.61489H39.7558V4.28669H33.2682V0.958496H55.9745V4.28669H49.4874V10.9431H52.731V20.9277H55.9745V30.9123H59.2185V40.8968H62.4625V50.8816H65.7061V60.866H68.9497V70.8504H72.1937V80.8352H75.4377V70.8504H78.6813V60.866H81.9248V50.8816H85.1688V40.8968H88.4128V30.9123H91.6564V20.9277H94.9V10.9431H98.144V7.61489H94.9V4.28669H88.4128V0.958496H117.607V4.28669H111.119V7.61489H107.875V87.4916H111.119V90.82H117.607V94.148H91.6564V90.82H98.144V87.4916H101.388V14.2713H98.144V24.2559H94.9V34.2404H91.6564V44.2248H88.4128V54.2096H85.1688V64.1944H81.9248V74.1788H78.6813V84.1632H75.4377V94.148H68.9497V84.1632H65.7061V74.1788H62.4625V64.1944H59.2185V54.2096H55.9745V44.2248H52.731V34.2404H49.4874V24.2559H46.2434V87.4916H49.4874V90.82H55.9745V94.148H33.2682ZM124.094 94.148V90.82H130.582V87.4916H133.825V7.61489H130.582V4.28669H124.094V0.958496H172.751V4.28669H179.239V7.61489H182.482V10.9431H185.726V17.5995H188.97V37.5686H185.726V44.2248H182.482V47.5532H179.239V50.8816H175.995V54.2096H150.045V50.8816H146.801V47.5532H153.289V50.8816H169.507V47.5532H175.995V40.8968H179.239V34.2404H182.482V20.9277H179.239V14.2713H175.995V10.9431H172.751V7.61489H166.264V4.28669H143.557V7.61489H140.313V87.4916H143.557V90.82H150.045V94.148H124.094ZM233.734 50.8816V44.2248H230.49V34.2404H227.246V24.2559H224.003V14.2713H220.759V24.2559H217.515V34.2404H214.271V44.2248H211.028V50.8816H233.734ZM185.077 94.148V90.82H191.565V87.4916H194.809V80.8352H198.053V70.8504H201.296V60.866H204.54V50.8816H207.784V40.8968H211.028V30.9123H214.271V20.9277H217.515V10.9431H220.759V0.958496H227.246V10.9431H230.49V20.9277H233.734V30.9123H236.978V40.8968H240.222V50.8816H243.466V60.866H246.71V70.8504H249.953V80.8352H253.197V87.4916H256.441V90.82H262.928V94.148H236.978V90.82H243.466V87.4916H246.71V84.1632H243.466V74.1788H240.222V64.1944H236.978V54.2096H207.784V64.1944H204.54V74.1788H201.296V84.1632H198.053V87.4916H201.296V90.82H207.784V94.148H185.077ZM295.366 94.148V90.82H285.635V87.4916H279.147V84.1632H275.904V80.8352H272.66V74.1788H269.416V64.1944H266.172V30.9123H269.416V20.9277H272.66V14.2713H275.904V10.9431H279.147V7.61489H285.635V4.28669H295.366V0.958496H318.073V4.28669H324.561V7.61489H331.048V24.2559H327.804V20.9277H324.561V14.2713H321.317V10.9431H318.073V7.61489H311.585V4.28669H298.61V7.61489H288.879V10.9431H285.635V14.2713H282.391V17.5995H279.147V24.2559H275.904V34.2404H272.66V60.866H275.904V70.8504H279.147V77.5072H282.391V80.8352H285.635V84.1632H288.879V87.4916H298.61V90.82H311.585V87.4916H318.073V84.1632H321.317V80.8352H324.561V74.1788H327.804V70.8504H331.048V87.4916H324.561V90.82H318.073V94.148H295.366ZM367.638 94.148V90.82H374.125V87.4916H377.369V7.61489H374.125V4.28669H348.175V7.61489H344.931V14.2713H341.688V0.958496H419.539V17.5995H416.293V7.61489H413.051V4.28669H387.1V7.61489H383.857V87.4916H387.1V90.82H393.588V94.148H367.638ZM484.415 94.148V90.82H474.683V87.4916H468.193V84.1632H464.95V80.8352H461.708V74.1788H458.465V64.1944H455.222V30.9123H458.465V20.9277H461.708V14.2713H464.95V10.9431H468.193V7.61489H474.683V4.28669H484.415V0.958496H507.123V4.28669H513.608V7.61489H520.094V24.2559H516.851V20.9277H513.608V14.2713H510.365V10.9431H507.123V7.61489H500.633V4.28669H487.658V7.61489H477.926V10.9431H474.683V14.2713H471.44V17.5995H468.193V24.2559H464.95V34.2404H461.708V60.866H464.95V70.8504H468.193V77.5072H471.44V80.8352H474.683V84.1632H477.926V87.4916H487.658V90.82H500.633V87.4916H507.123V84.1632H510.365V80.8352H513.608V74.1788H516.851V70.8504H520.094V87.4916H513.608V90.82H507.123V94.148H484.415ZM530.735 94.148V90.82H537.225V87.4916H540.468V7.61489H537.225V4.28669H530.735V0.958496H553.443V4.28669H546.953V10.9431H550.196V20.9277H553.443V30.9123H556.686V40.8968H559.928V50.8816H563.175V60.866H566.418V70.8504H569.661V80.8352H572.904V70.8504H576.146V60.866H579.393V50.8816H582.636V40.8968H585.879V30.9123H589.126V20.9277H592.368V10.9431H595.611V7.61489H592.368V4.28669H585.879V0.958496H615.076V4.28669H608.586V7.61489H605.344V87.4916H608.586V90.82H615.076V94.148H589.126V90.82H595.611V87.4916H598.854V14.2713H595.611V24.2559H592.368V34.2404H589.126V44.2248H585.879V54.2096H582.636V64.1944H579.393V74.1788H576.146V84.1632H572.904V94.148H566.418V84.1632H563.175V74.1788H559.928V64.1944H556.686V54.2096H553.443V44.2248H550.196V34.2404H546.953V24.2559H543.711V87.4916H546.953V90.82H553.443V94.148H530.735ZM657.244 94.148V90.82H647.512V87.4916H641.026V84.1632H637.779V80.8352H634.537V74.1788H631.294V7.61489H628.047V4.28669H621.561V0.958496H647.512V4.28669H641.026V7.61489H637.779V70.8504H641.026V77.5072H644.269V80.8352H647.512V84.1632H650.754V87.4916H660.487V90.82H670.219V87.4916H679.948V84.1632H683.194V80.8352H686.437V77.5072H689.68V70.8504H692.927V7.61489H689.68V4.28669H683.194V0.958496H709.145V4.28669H702.655V7.61489H699.412V87.4916H702.655V90.82H709.145V94.148H692.927V84.1632H689.68V87.4916H683.194V90.82H673.462V94.148H657.244Z" fill="black"/>
<mask id="mask0_624_1342" style="mask-type:luminance" maskUnits="userSpaceOnUse" x="0" y="0" width="710" height="95">
<path d="M710 0H0V95H710V0Z" fill="white"/>
<path d="M0.830383 94.148V90.82H7.31796V87.4916H10.5617V7.61489H7.31796V4.28669H0.830383V0.958496H26.7807V4.28669H20.2931V7.61489H17.0493V87.4916H20.2931V90.82H26.7807V94.148H0.830383ZM33.2682 94.148V90.82H39.7558V87.4916H42.9994V7.61489H39.7558V4.28669H33.2682V0.958496H55.9745V4.28669H49.4874V10.9431H52.731V20.9277H55.9745V30.9123H59.2185V40.8968H62.4625V50.8816H65.7061V60.866H68.9497V70.8504H72.1937V80.8352H75.4377V70.8504H78.6813V60.866H81.9248V50.8816H85.1688V40.8968H88.4128V30.9123H91.6564V20.9277H94.9V10.9431H98.144V7.61489H94.9V4.28669H88.4128V0.958496H117.607V4.28669H111.119V7.61489H107.875V87.4916H111.119V90.82H117.607V94.148H91.6564V90.82H98.144V87.4916H101.388V14.2713H98.144V24.2559H94.9V34.2404H91.6564V44.2248H88.4128V54.2096H85.1688V64.1944H81.9248V74.1788H78.6813V84.1632H75.4377V94.148H68.9497V84.1632H65.7061V74.1788H62.4625V64.1944H59.2185V54.2096H55.9745V44.2248H52.731V34.2404H49.4874V24.2559H46.2434V87.4916H49.4874V90.82H55.9745V94.148H33.2682ZM124.094 94.148V90.82H130.582V87.4916H133.825V7.61489H130.582V4.28669H124.094V0.958496H172.751V4.28669H179.239V7.61489H182.482V10.9431H185.726V17.5995H188.97V37.5686H185.726V44.2248H182.482V47.5532H179.239V50.8816H175.995V54.2096H150.045V50.8816H146.801V47.5532H153.289V50.8816H169.507V47.5532H175.995V40.8968H179.239V34.2404H182.482V20.9277H179.239V14.2713H175.995V10.9431H172.751V7.61489H166.264V4.28669H143.557V7.61489H140.313V87.4916H143.557V90.82H150.045V94.148H124.094ZM233.734 50.8816V44.2248H230.49V34.2404H227.246V24.2559H224.003V14.2713H220.759V24.2559H217.515V34.2404H214.271V44.2248H211.028V50.8816H233.734ZM185.077 94.148V90.82H191.565V87.4916H194.809V80.8352H198.053V70.8504H201.296V60.866H204.54V50.8816H207.784V40.8968H211.028V30.9123H214.271V20.9277H217.515V10.9431H220.759V0.958496H227.246V10.9431H230.49V20.9277H233.734V30.9123H236.978V40.8968H240.222V50.8816H243.466V60.866H246.71V70.8504H249.953V80.8352H253.197V87.4916H256.441V90.82H262.928V94.148H236.978V90.82H243.466V87.4916H246.71V84.1632H243.466V74.1788H240.222V64.1944H236.978V54.2096H207.784V64.1944H204.54V74.1788H201.296V84.1632H198.053V87.4916H201.296V90.82H207.784V94.148H185.077ZM295.366 94.148V90.82H285.635V87.4916H279.147V84.1632H275.904V80.8352H272.66V74.1788H269.416V64.1944H266.172V30.9123H269.416V20.9277H272.66V14.2713H275.904V10.9431H279.147V7.61489H285.635V4.28669H295.366V0.958496H318.073V4.28669H324.561V7.61489H331.048V24.2559H327.804V20.9277H324.561V14.2713H321.317V10.9431H318.073V7.61489H311.585V4.28669H298.61V7.61489H288.879V10.9431H285.635V14.2713H282.391V17.5995H279.147V24.2559H275.904V34.2404H272.66V60.866H275.904V70.8504H279.147V77.5072H282.391V80.8352H285.635V84.1632H288.879V87.4916H298.61V90.82H311.585V87.4916H318.073V84.1632H321.317V80.8352H324.561V74.1788H327.804V70.8504H331.048V87.4916H324.561V90.82H318.073V94.148H295.366ZM367.638 94.148V90.82H374.125V87.4916H377.369V7.61489H374.125V4.28669H348.175V7.61489H344.931V14.2713H341.688V0.958496H419.539V17.5995H416.293V7.61489H413.051V4.28669H387.1V7.61489H383.857V87.4916H387.1V90.82H393.588V94.148H367.638ZM484.415 94.148V90.82H474.683V87.4916H468.193V84.1632H464.95V80.8352H461.708V74.1788H458.465V64.1944H455.222V30.9123H458.465V20.9277H461.708V14.2713H464.95V10.9431H468.193V7.61489H474.683V4.28669H484.415V0.958496H507.123V4.28669H513.608V7.61489H520.094V24.2559H516.851V20.9277H513.608V14.2713H510.365V10.9431H507.123V7.61489H500.633V4.28669H487.658V7.61489H477.926V10.9431H474.683V14.2713H471.44V17.5995H468.193V24.2559H464.95V34.2404H461.708V60.866H464.95V70.8504H468.193V77.5072H471.44V80.8352H474.683V84.1632H477.926V87.4916H487.658V90.82H500.633V87.4916H507.123V84.1632H510.365V80.8352H513.608V74.1788H516.851V70.8504H520.094V87.4916H513.608V90.82H507.123V94.148H484.415ZM530.735 94.148V90.82H537.225V87.4916H540.468V7.61489H537.225V4.28669H530.735V0.958496H553.443V4.28669H546.953V10.9431H550.196V20.9277H553.443V30.9123H556.686V40.8968H559.928V50.8816H563.175V60.866H566.418V70.8504H569.661V80.8352H572.904V70.8504H576.146V60.866H579.393V50.8816H582.636V40.8968H585.879V30.9123H589.126V20.9277H592.368V10.9431H595.611V7.61489H592.368V4.28669H585.879V0.958496H615.076V4.28669H608.586V7.61489H605.344V87.4916H608.586V90.82H615.076V94.148H589.126V90.82H595.611V87.4916H598.854V14.2713H595.611V24.2559H592.368V34.2404H589.126V44.2248H585.879V54.2096H582.636V64.1944H579.393V74.1788H576.146V84.1632H572.904V94.148H566.418V84.1632H563.175V74.1788H559.928V64.1944H556.686V54.2096H553.443V44.2248H550.196V34.2404H546.953V24.2559H543.711V87.4916H546.953V90.82H553.443V94.148H530.735ZM657.244 94.148V90.82H647.512V87.4916H641.026V84.1632H637.779V80.8352H634.537V74.1788H631.294V7.61489H628.047V4.28669H621.561V0.958496H647.512V4.28669H641.026V7.61489H637.779V70.8504H641.026V77.5072H644.269V80.8352H647.512V84.1632H650.754V87.4916H660.487V90.82H670.219V87.4916H679.948V84.1632H683.194V80.8352H686.437V77.5072H689.68V70.8504H692.927V7.61489H689.68V4.28669H683.194V0.958496H709.145V4.28669H702.655V7.61489H699.412V87.4916H702.655V90.82H709.145V94.148H692.927V84.1632H689.68V87.4916H683.194V90.82H673.462V94.148H657.244Z" fill="black"/>
</mask>
<g mask="url(#mask0_624_1342)">
<path d="M0.830409 94.1479H0V94.9999H0.830409V94.1479ZM0.830409 90.8199V89.9679H0V90.8199H0.830409ZM7.31798 90.8199V91.672H8.14839V90.8199H7.31798ZM7.31798 87.4915V86.6395H6.48757V87.4915H7.31798ZM10.5618 87.4915V88.3436H11.3922V87.4915H10.5618ZM10.5618 7.61485H11.3922V6.76284H10.5618V7.61485ZM7.31798 7.61485H6.48757V8.46687H7.31798V7.61485ZM7.31798 4.28666H8.14839V3.43464H7.31798V4.28666ZM0.830409 4.28666H0V5.13868H0.830409V4.28666ZM0.830409 0.958463V0.106445H0V0.958463H0.830409ZM26.7807 0.958463H27.6111V0.106445H26.7807V0.958463ZM26.7807 4.28666V5.13868H27.6111V4.28666H26.7807ZM20.2931 4.28666V3.43464H19.4627V4.28666H20.2931ZM20.2931 7.61485V8.46687H21.1235V7.61485H20.2931ZM17.0493 7.61485V6.76284H16.2189V7.61485H17.0493ZM17.0493 87.4915H16.2189V88.3436H17.0493V87.4915ZM20.2931 87.4915H21.1235V86.6395H20.2931V87.4915ZM20.2931 90.8199H19.4627V91.672H20.2931V90.8199ZM26.7807 90.8199H27.6111V89.9679H26.7807V90.8199ZM26.7807 94.1479V94.9999H27.6111V94.1479H26.7807ZM1.66082 94.1479V90.8199H0V94.1479H1.66082ZM0.830409 91.672H7.31798V89.9679H0.830409V91.672ZM8.14839 90.8199V87.4915H6.48757V90.8199H8.14839ZM7.31798 88.3436H10.5618V86.6395H7.31798V88.3436ZM11.3922 87.4915V7.61485H9.73136V87.4915H11.3922ZM10.5618 6.76284H7.31798V8.46687H10.5618V6.76284ZM8.14839 7.61485V4.28666H6.48757V7.61485H8.14839ZM7.31798 3.43464H0.830409V5.13868H7.31798V3.43464ZM1.66082 4.28666V0.958463H0V4.28666H1.66082ZM0.830409 1.81048H26.7807V0.106445H0.830409V1.81048ZM25.9503 0.958463V4.28666H27.6111V0.958463H25.9503ZM26.7807 3.43464H20.2931V5.13868H26.7807V3.43464ZM19.4627 4.28666V7.61485H21.1235V4.28666H19.4627ZM20.2931 6.76284H17.0493V8.46687H20.2931V6.76284ZM16.2189 7.61485V87.4915H17.8798V7.61485H16.2189ZM17.0493 88.3436H20.2931V86.6395H17.0493V88.3436ZM19.4627 87.4915V90.8199H21.1235V87.4915H19.4627ZM20.2931 91.672H26.7807V89.9679H20.2931V91.672ZM25.9503 90.8199V94.1479H27.6111V90.8199H25.9503ZM26.7807 93.2959H0.830409V94.9999H26.7807V93.2959ZM33.2683 94.1479H32.4379V94.9999H33.2683V94.1479ZM33.2683 90.8199V89.9679H32.4379V90.8199H33.2683ZM39.7558 90.8199V91.672H40.5863V90.8199H39.7558ZM39.7558 87.4915V86.6395H38.9254V87.4915H39.7558ZM42.9994 87.4915V88.3436H43.8298V87.4915H42.9994ZM42.9994 7.61485H43.8298V6.76284H42.9994V7.61485ZM39.7558 7.61485H38.9254V8.46687H39.7558V7.61485ZM39.7558 4.28666H40.5863V3.43464H39.7558V4.28666ZM33.2683 4.28666H32.4379V5.13868H33.2683V4.28666ZM33.2683 0.958463V0.106445H32.4379V0.958463H33.2683ZM55.9746 0.958463H56.805V0.106445H55.9746V0.958463ZM55.9746 4.28666V5.13868H56.805V4.28666H55.9746ZM49.4874 4.28666V3.43464H48.657V4.28666H49.4874ZM49.4874 10.943H48.657V11.7951H49.4874V10.943ZM52.731 10.943H53.5614V10.091H52.731V10.943ZM52.731 20.9276H51.9006V21.7797H52.731V20.9276ZM55.9746 20.9276H56.805V20.0756H55.9746V20.9276ZM55.9746 30.9122H55.1442V31.7642H55.9746V30.9122ZM59.2186 30.9122H60.049V30.0602H59.2186V30.9122ZM59.2186 40.8968H58.3882V41.7488H59.2186V40.8968ZM62.4626 40.8968H63.293V40.0448H62.4626V40.8968ZM62.4626 50.8816H61.6322V51.7336H62.4626V50.8816ZM65.7061 50.8816H66.5366V50.0296H65.7061V50.8816ZM65.7061 60.866H64.8757V61.718H65.7061V60.866ZM68.9497 60.866H69.7801V60.014H68.9497V60.866ZM68.9497 70.8503H68.1193V71.7024H68.9497V70.8503ZM72.1937 70.8503H73.0241V69.9983H72.1937V70.8503ZM72.1937 80.8351H71.3633V81.6872H72.1937V80.8351ZM75.4377 80.8351V81.6872H76.2681V80.8351H75.4377ZM75.4377 70.8503V69.9983H74.6073V70.8503H75.4377ZM78.6813 70.8503V71.7024H79.5117V70.8503H78.6813ZM78.6813 60.866V60.014H77.8509V60.866H78.6813ZM81.9249 60.866V61.718H82.7553V60.866H81.9249ZM81.9249 50.8816V50.0296H81.0945V50.8816H81.9249ZM85.1689 50.8816V51.7336H85.9993V50.8816H85.1689ZM85.1689 40.8968V40.0448H84.3384V40.8968H85.1689ZM88.4129 40.8968V41.7488H89.2433V40.8968H88.4129ZM88.4129 30.9122V30.0602H87.5824V30.9122H88.4129ZM91.6564 30.9122V31.7642H92.4868V30.9122H91.6564ZM91.6564 20.9276V20.0756H90.826V20.9276H91.6564ZM94.9 20.9276V21.7797H95.7304V20.9276H94.9ZM94.9 10.943V10.091H94.0696V10.943H94.9ZM98.144 10.943V11.7951H98.9744V10.943H98.144ZM98.144 7.61485H98.9744V6.76284H98.144V7.61485ZM94.9 7.61485H94.0696V8.46687H94.9V7.61485ZM94.9 4.28666H95.7304V3.43464H94.9V4.28666ZM88.4129 4.28666H87.5824V5.13868H88.4129V4.28666ZM88.4129 0.958463V0.106445H87.5824V0.958463H88.4129ZM117.607 0.958463H118.437V0.106445H117.607V0.958463ZM117.607 4.28666V5.13868H118.437V4.28666H117.607ZM111.119 4.28666V3.43464H110.289V4.28666H111.119ZM111.119 7.61485V8.46687H111.95V7.61485H111.119ZM107.875 7.61485V6.76284H107.045V7.61485H107.875ZM107.875 87.4915H107.045V88.3436H107.875V87.4915ZM111.119 87.4915H111.95V86.6395H111.119V87.4915ZM111.119 90.8199H110.289V91.672H111.119V90.8199ZM117.607 90.8199H118.437V89.9679H117.607V90.8199ZM117.607 94.1479V94.9999H118.437V94.1479H117.607ZM91.6564 94.1479H90.826V94.9999H91.6564V94.1479ZM91.6564 90.8199V89.9679H90.826V90.8199H91.6564ZM98.144 90.8199V91.672H98.9744V90.8199H98.144ZM98.144 87.4915V86.6395H97.3136V87.4915H98.144ZM101.388 87.4915V88.3436H102.218V87.4915H101.388ZM101.388 14.2712H102.218V13.4192H101.388V14.2712ZM98.144 14.2712V13.4192H97.3136V14.2712H98.144ZM98.144 24.2558V25.1078H98.9744V24.2558H98.144ZM94.9 24.2558V23.4038H94.0696V24.2558H94.9ZM94.9 34.2404V35.0924H95.7304V34.2404H94.9ZM91.6564 34.2404V33.3884H90.826V34.2404H91.6564ZM91.6564 44.2248V45.0768H92.4868V44.2248H91.6564ZM88.4129 44.2248V43.3728H87.5824V44.2248H88.4129ZM88.4129 54.2096V55.0616H89.2433V54.2096H88.4129ZM85.1689 54.2096V53.3576H84.3384V54.2096H85.1689ZM85.1689 64.1944V65.0464H85.9993V64.1944H85.1689ZM81.9249 64.1944V63.3424H81.0945V64.1944H81.9249ZM81.9249 74.1788V75.0308H82.7553V74.1788H81.9249ZM78.6813 74.1788V73.3267H77.8509V74.1788H78.6813ZM78.6813 84.1631V85.0151H79.5117V84.1631H78.6813ZM75.4377 84.1631V83.3111H74.6073V84.1631H75.4377ZM75.4377 94.1479V94.9999H76.2681V94.1479H75.4377ZM68.9497 94.1479H68.1193V94.9999H68.9497V94.1479ZM68.9497 84.1631H69.7801V83.3111H68.9497V84.1631ZM65.7061 84.1631H64.8757V85.0151H65.7061V84.1631ZM65.7061 74.1788H66.5366V73.3267H65.7061V74.1788ZM62.4626 74.1788H61.6322V75.0308H62.4626V74.1788ZM62.4626 64.1944H63.293V63.3424H62.4626V64.1944ZM59.2186 64.1944H58.3882V65.0464H59.2186V64.1944ZM59.2186 54.2096H60.049V53.3576H59.2186V54.2096ZM55.9746 54.2096H55.1442V55.0616H55.9746V54.2096ZM55.9746 44.2248H56.805V43.3728H55.9746V44.2248ZM52.731 44.2248H51.9006V45.0768H52.731V44.2248ZM52.731 34.2404H53.5614V33.3884H52.731V34.2404ZM49.4874 34.2404H48.657V35.0924H49.4874V34.2404ZM49.4874 24.2558H50.3178V23.4038H49.4874V24.2558ZM46.2434 24.2558V23.4038H45.413V24.2558H46.2434ZM46.2434 87.4915H45.413V88.3436H46.2434V87.4915ZM49.4874 87.4915H50.3178V86.6395H49.4874V87.4915ZM49.4874 90.8199H48.657V91.672H49.4874V90.8199ZM55.9746 90.8199H56.805V89.9679H55.9746V90.8199ZM55.9746 94.1479V94.9999H56.805V94.1479H55.9746ZM34.0987 94.1479V90.8199H32.4379V94.1479H34.0987ZM33.2683 91.672H39.7558V89.9679H33.2683V91.672ZM40.5863 90.8199V87.4915H38.9254V90.8199H40.5863ZM39.7558 88.3436H42.9994V86.6395H39.7558V88.3436ZM43.8298 87.4915V7.61485H42.169V87.4915H43.8298ZM42.9994 6.76284H39.7558V8.46687H42.9994V6.76284ZM40.5863 7.61485V4.28666H38.9254V7.61485H40.5863ZM39.7558 3.43464H33.2683V5.13868H39.7558V3.43464ZM34.0987 4.28666V0.958463H32.4379V4.28666H34.0987ZM33.2683 1.81048H55.9746V0.106445H33.2683V1.81048ZM55.1442 0.958463V4.28666H56.805V0.958463H55.1442ZM55.9746 3.43464H49.4874V5.13868H55.9746V3.43464ZM48.657 4.28666V10.943H50.3178V4.28666H48.657ZM49.4874 11.7951H52.731V10.091H49.4874V11.7951ZM51.9006 10.943V20.9276H53.5614V10.943H51.9006ZM52.731 21.7797H55.9746V20.0756H52.731V21.7797ZM55.1442 20.9276V30.9122H56.805V20.9276H55.1442ZM55.9746 31.7642H59.2186V30.0602H55.9746V31.7642ZM58.3882 30.9122V40.8968H60.049V30.9122H58.3882ZM59.2186 41.7488H62.4626V40.0448H59.2186V41.7488ZM61.6322 40.8968V50.8816H63.293V40.8968H61.6322ZM62.4626 51.7336H65.7061V50.0296H62.4626V51.7336ZM64.8757 50.8816V60.866H66.5366V50.8816H64.8757ZM65.7061 61.718H68.9497V60.014H65.7061V61.718ZM68.1193 60.866V70.8503H69.7801V60.866H68.1193ZM68.9497 71.7024H72.1937V69.9983H68.9497V71.7024ZM71.3633 70.8503V80.8351H73.0241V70.8503H71.3633ZM72.1937 81.6872H75.4377V79.9831H72.1937V81.6872ZM76.2681 80.8351V70.8503H74.6073V80.8351H76.2681ZM75.4377 71.7024H78.6813V69.9983H75.4377V71.7024ZM79.5117 70.8503V60.866H77.8509V70.8503H79.5117ZM78.6813 61.718H81.9249V60.014H78.6813V61.718ZM82.7553 60.866V50.8816H81.0945V60.866H82.7553ZM81.9249 51.7336H85.1689V50.0296H81.9249V51.7336ZM85.9993 50.8816V40.8968H84.3384V50.8816H85.9993ZM85.1689 41.7488H88.4129V40.0448H85.1689V41.7488ZM89.2433 40.8968V30.9122H87.5824V40.8968H89.2433ZM88.4129 31.7642H91.6564V30.0602H88.4129V31.7642ZM92.4868 30.9122V20.9276H90.826V30.9122H92.4868ZM91.6564 21.7797H94.9V20.0756H91.6564V21.7797ZM95.7304 20.9276V10.943H94.0696V20.9276H95.7304ZM94.9 11.7951H98.144V10.091H94.9V11.7951ZM98.9744 10.943V7.61485H97.3136V10.943H98.9744ZM98.144 6.76284H94.9V8.46687H98.144V6.76284ZM95.7304 7.61485V4.28666H94.0696V7.61485H95.7304ZM94.9 3.43464H88.4129V5.13868H94.9V3.43464ZM89.2433 4.28666V0.958463H87.5824V4.28666H89.2433ZM88.4129 1.81048H117.607V0.106445H88.4129V1.81048ZM116.776 0.958463V4.28666H118.437V0.958463H116.776ZM117.607 3.43464H111.119V5.13868H117.607V3.43464ZM110.289 4.28666V7.61485H111.95V4.28666H110.289ZM111.119 6.76284H107.875V8.46687H111.119V6.76284ZM107.045 7.61485V87.4915H108.706V7.61485H107.045ZM107.875 88.3436H111.119V86.6395H107.875V88.3436ZM110.289 87.4915V90.8199H111.95V87.4915H110.289ZM111.119 91.672H117.607V89.9679H111.119V91.672ZM116.776 90.8199V94.1479H118.437V90.8199H116.776ZM117.607 93.2959H91.6564V94.9999H117.607V93.2959ZM92.4868 94.1479V90.8199H90.826V94.1479H92.4868ZM91.6564 91.672H98.144V89.9679H91.6564V91.672ZM98.9744 90.8199V87.4915H97.3136V90.8199H98.9744ZM98.144 88.3436H101.388V86.6395H98.144V88.3436ZM102.218 87.4915V14.2712H100.558V87.4915H102.218ZM101.388 13.4192H98.144V15.1233H101.388V13.4192ZM97.3136 14.2712V24.2558H98.9744V14.2712H97.3136ZM98.144 23.4038H94.9V25.1078H98.144V23.4038ZM94.0696 24.2558V34.2404H95.7304V24.2558H94.0696ZM94.9 33.3884H91.6564V35.0924H94.9V33.3884ZM90.826 34.2404V44.2248H92.4868V34.2404H90.826ZM91.6564 43.3728H88.4129V45.0768H91.6564V43.3728ZM87.5824 44.2248V54.2096H89.2433V44.2248H87.5824ZM88.4129 53.3576H85.1689V55.0616H88.4129V53.3576ZM84.3384 54.2096V64.1944H85.9993V54.2096H84.3384ZM85.1689 63.3424H81.9249V65.0464H85.1689V63.3424ZM81.0945 64.1944V74.1788H82.7553V64.1944H81.0945ZM81.9249 73.3267H78.6813V75.0308H81.9249V73.3267ZM77.8509 74.1788V84.1631H79.5117V74.1788H77.8509ZM78.6813 83.3111H75.4377V85.0151H78.6813V83.3111ZM74.6073 84.1631V94.1479H76.2681V84.1631H74.6073ZM75.4377 93.2959H68.9497V94.9999H75.4377V93.2959ZM69.7801 94.1479V84.1631H68.1193V94.1479H69.7801ZM68.9497 83.3111H65.7061V85.0151H68.9497V83.3111ZM66.5366 84.1631V74.1788H64.8757V84.1631H66.5366ZM65.7061 73.3267H62.4626V75.0308H65.7061V73.3267ZM63.293 74.1788V64.1944H61.6322V74.1788H63.293ZM62.4626 63.3424H59.2186V65.0464H62.4626V63.3424ZM60.049 64.1944V54.2096H58.3882V64.1944H60.049ZM59.2186 53.3576H55.9746V55.0616H59.2186V53.3576ZM56.805 54.2096V44.2248H55.1442V54.2096H56.805ZM55.9746 43.3728H52.731V45.0768H55.9746V43.3728ZM53.5614 44.2248V34.2404H51.9006V44.2248H53.5614ZM52.731 33.3884H49.4874V35.0924H52.731V33.3884ZM50.3178 34.2404V24.2558H48.657V34.2404H50.3178ZM49.4874 23.4038H46.2434V25.1078H49.4874V23.4038ZM45.413 24.2558V87.4915H47.0738V24.2558H45.413ZM46.2434 88.3436H49.4874V86.6395H46.2434V88.3436ZM48.657 87.4915V90.8199H50.3178V87.4915H48.657ZM49.4874 91.672H55.9746V89.9679H49.4874V91.672ZM55.1442 90.8199V94.1479H56.805V90.8199H55.1442ZM55.9746 93.2959H33.2683V94.9999H55.9746V93.2959ZM124.094 94.1479H123.264V94.9999H124.094V94.1479ZM124.094 90.8199V89.9679H123.264V90.8199H124.094ZM130.582 90.8199V91.672H131.412V90.8199H130.582ZM130.582 87.4915V86.6395H129.751V87.4915H130.582ZM133.825 87.4915V88.3436H134.656V87.4915H133.825ZM133.825 7.61485H134.656V6.76284H133.825V7.61485ZM130.582 7.61485H129.751V8.46687H130.582V7.61485ZM130.582 4.28666H131.412V3.43464H130.582V4.28666ZM124.094 4.28666H123.264V5.13868H124.094V4.28666ZM124.094 0.958463V0.106445H123.264V0.958463H124.094ZM172.751 0.958463H173.581V0.106445H172.751V0.958463ZM172.751 4.28666H171.92V5.13868H172.751V4.28666ZM179.239 4.28666H180.069V3.43464H179.239V4.28666ZM179.239 7.61485H178.408V8.46687H179.239V7.61485ZM182.482 7.61485H183.313V6.76284H182.482V7.61485ZM182.482 10.943H181.652V11.7951H182.482V10.943ZM185.726 10.943H186.556V10.091H185.726V10.943ZM185.726 17.5994H184.896V18.4515H185.726V17.5994ZM188.97 17.5994H189.8V16.7474H188.97V17.5994ZM188.97 37.5686V38.4206H189.8V37.5686H188.97ZM185.726 37.5686V36.7166H184.896V37.5686H185.726ZM185.726 44.2248V45.0768H186.556V44.2248H185.726ZM182.482 44.2248V43.3728H181.652V44.2248H182.482ZM182.482 47.5532V48.4052H183.313V47.5532H182.482ZM179.239 47.5532V46.7012H178.408V47.5532H179.239ZM179.239 50.8816V51.7336H180.069V50.8816H179.239ZM175.995 50.8816V50.0296H175.164V50.8816H175.995ZM175.995 54.2096V55.0616H176.825V54.2096H175.995ZM150.045 54.2096H149.214V55.0616H150.045V54.2096ZM150.045 50.8816H150.875V50.0296H150.045V50.8816ZM146.801 50.8816H145.97V51.7336H146.801V50.8816ZM146.801 47.5532V46.7012H145.97V47.5532H146.801ZM153.289 47.5532H154.119V46.7012H153.289V47.5532ZM153.289 50.8816H152.458V51.7336H153.289V50.8816ZM169.507 50.8816V51.7336H170.338V50.8816H169.507ZM169.507 47.5532V46.7012H168.677V47.5532H169.507ZM175.995 47.5532V48.4052H176.825V47.5532H175.995ZM175.995 40.8968V40.0448H175.164V40.8968H175.995ZM179.239 40.8968V41.7488H180.069V40.8968H179.239ZM179.239 34.2404V33.3884H178.408V34.2404H179.239ZM182.482 34.2404V35.0924H183.313V34.2404H182.482ZM182.482 20.9276H183.313V20.0756H182.482V20.9276ZM179.239 20.9276H178.408V21.7797H179.239V20.9276ZM179.239 14.2712H180.069V13.4192H179.239V14.2712ZM175.995 14.2712H175.164V15.1233H175.995V14.2712ZM175.995 10.943H176.825V10.091H175.995V10.943ZM172.751 10.943H171.92V11.7951H172.751V10.943ZM172.751 7.61485H173.581V6.76284H172.751V7.61485ZM166.264 7.61485H165.433V8.46687H166.264V7.61485ZM166.264 4.28666H167.094V3.43464H166.264V4.28666ZM143.557 4.28666V3.43464H142.727V4.28666H143.557ZM143.557 7.61485V8.46687H144.387V7.61485H143.557ZM140.313 7.61485V6.76284H139.483V7.61485H140.313ZM140.313 87.4915H139.483V88.3436H140.313V87.4915ZM143.557 87.4915H144.387V86.6395H143.557V87.4915ZM143.557 90.8199H142.727V91.672H143.557V90.8199ZM150.045 90.8199H150.875V89.9679H150.045V90.8199ZM150.045 94.1479V94.9999H150.875V94.1479H150.045ZM124.925 94.1479V90.8199H123.264V94.1479H124.925ZM124.094 91.672H130.582V89.9679H124.094V91.672ZM131.412 90.8199V87.4915H129.751V90.8199H131.412ZM130.582 88.3436H133.825V86.6395H130.582V88.3436ZM134.656 87.4915V7.61485H132.995V87.4915H134.656ZM133.825 6.76284H130.582V8.46687H133.825V6.76284ZM131.412 7.61485V4.28666H129.751V7.61485H131.412ZM130.582 3.43464H124.094V5.13868H130.582V3.43464ZM124.925 4.28666V0.958463H123.264V4.28666H124.925ZM124.094 1.81048H172.751V0.106445H124.094V1.81048ZM171.92 0.958463V4.28666H173.581V0.958463H171.92ZM172.751 5.13868H179.239V3.43464H172.751V5.13868ZM178.408 4.28666V7.61485H180.069V4.28666H178.408ZM179.239 8.46687H182.482V6.76284H179.239V8.46687ZM181.652 7.61485V10.943H183.313V7.61485H181.652ZM182.482 11.7951H185.726V10.091H182.482V11.7951ZM184.896 10.943V17.5994H186.556V10.943H184.896ZM185.726 18.4515H188.97V16.7474H185.726V18.4515ZM188.14 17.5994V37.5686H189.8V17.5994H188.14ZM188.97 36.7166H185.726V38.4206H188.97V36.7166ZM184.896 37.5686V44.2248H186.556V37.5686H184.896ZM185.726 43.3728H182.482V45.0768H185.726V43.3728ZM181.652 44.2248V47.5532H183.313V44.2248H181.652ZM182.482 46.7012H179.239V48.4052H182.482V46.7012ZM178.408 47.5532V50.8816H180.069V47.5532H178.408ZM179.239 50.0296H175.995V51.7336H179.239V50.0296ZM175.164 50.8816V54.2096H176.825V50.8816H175.164ZM175.995 53.3576H150.045V55.0616H175.995V53.3576ZM150.875 54.2096V50.8816H149.214V54.2096H150.875ZM150.045 50.0296H146.801V51.7336H150.045V50.0296ZM147.631 50.8816V47.5532H145.97V50.8816H147.631ZM146.801 48.4052H153.289V46.7012H146.801V48.4052ZM152.458 47.5532V50.8816H154.119V47.5532H152.458ZM153.289 51.7336H169.507V50.0296H153.289V51.7336ZM170.338 50.8816V47.5532H168.677V50.8816H170.338ZM169.507 48.4052H175.995V46.7012H169.507V48.4052ZM176.825 47.5532V40.8968H175.164V47.5532H176.825ZM175.995 41.7488H179.239V40.0448H175.995V41.7488ZM180.069 40.8968V34.2404H178.408V40.8968H180.069ZM179.239 35.0924H182.482V33.3884H179.239V35.0924ZM183.313 34.2404V20.9276H181.652V34.2404H183.313ZM182.482 20.0756H179.239V21.7797H182.482V20.0756ZM180.069 20.9276V14.2712H178.408V20.9276H180.069ZM179.239 13.4192H175.995V15.1233H179.239V13.4192ZM176.825 14.2712V10.943H175.164V14.2712H176.825ZM175.995 10.091H172.751V11.7951H175.995V10.091ZM173.581 10.943V7.61485H171.92V10.943H173.581ZM172.751 6.76284H166.264V8.46687H172.751V6.76284ZM167.094 7.61485V4.28666H165.433V7.61485H167.094ZM166.264 3.43464H143.557V5.13868H166.264V3.43464ZM142.727 4.28666V7.61485H144.387V4.28666H142.727ZM143.557 6.76284H140.313V8.46687H143.557V6.76284ZM139.483 7.61485V87.4915H141.144V7.61485H139.483ZM140.313 88.3436H143.557V86.6395H140.313V88.3436ZM142.727 87.4915V90.8199H144.387V87.4915H142.727ZM143.557 91.672H150.045V89.9679H143.557V91.672ZM149.214 90.8199V94.1479H150.875V90.8199H149.214ZM150.045 93.2959H124.094V94.9999H150.045V93.2959ZM233.734 50.8816V51.7336H234.565V50.8816H233.734ZM233.734 44.2248H234.565V43.3728H233.734V44.2248ZM230.49 44.2248H229.66V45.0768H230.49V44.2248ZM230.49 34.2404H231.321V33.3884H230.49V34.2404ZM227.247 34.2404H226.416V35.0924H227.247V34.2404ZM227.247 24.2558H228.077V23.4038H227.247V24.2558ZM224.003 24.2558H223.173V25.1078H224.003V24.2558ZM224.003 14.2712H224.833V13.4192H224.003V14.2712ZM220.759 14.2712V13.4192H219.929V14.2712H220.759ZM220.759 24.2558V25.1078H221.59V24.2558H220.759ZM217.515 24.2558V23.4038H216.685V24.2558H217.515ZM217.515 34.2404V35.0924H218.346V34.2404H217.515ZM214.271 34.2404V33.3884H213.441V34.2404H214.271ZM214.271 44.2248V45.0768H215.102V44.2248H214.271ZM211.028 44.2248V43.3728H210.197V44.2248H211.028ZM211.028 50.8816H210.197V51.7336H211.028V50.8816ZM185.077 94.1479H184.247V94.9999H185.077V94.1479ZM185.077 90.8199V89.9679H184.247V90.8199H185.077ZM191.565 90.8199V91.672H192.395V90.8199H191.565ZM191.565 87.4915V86.6395H190.735V87.4915H191.565ZM194.809 87.4915V88.3436H195.639V87.4915H194.809ZM194.809 80.8351V79.9831H193.979V80.8351H194.809ZM198.053 80.8351V81.6872H198.883V80.8351H198.053ZM198.053 70.8503V69.9983H197.222V70.8503H198.053ZM201.296 70.8503V71.7024H202.127V70.8503H201.296ZM201.296 60.866V60.014H200.466V60.866H201.296ZM204.54 60.866V61.718H205.371V60.866H204.54ZM204.54 50.8816V50.0296H203.71V50.8816H204.54ZM207.784 50.8816V51.7336H208.615V50.8816H207.784ZM207.784 40.8968V40.0448H206.954V40.8968H207.784ZM211.028 40.8968V41.7488H211.858V40.8968H211.028ZM211.028 30.9122V30.0602H210.197V30.9122H211.028ZM214.271 30.9122V31.7642H215.102V30.9122H214.271ZM214.271 20.9276V20.0756H213.441V20.9276H214.271ZM217.515 20.9276V21.7797H218.346V20.9276H217.515ZM217.515 10.943V10.091H216.685V10.943H217.515ZM220.759 10.943V11.7951H221.59V10.943H220.759ZM220.759 0.958463V0.106445H219.929V0.958463H220.759ZM227.247 0.958463H228.077V0.106445H227.247V0.958463ZM227.247 10.943H226.416V11.7951H227.247V10.943ZM230.49 10.943H231.321V10.091H230.49V10.943ZM230.49 20.9276H229.66V21.7797H230.49V20.9276ZM233.734 20.9276H234.565V20.0756H233.734V20.9276ZM233.734 30.9122H232.904V31.7642H233.734V30.9122ZM236.978 30.9122H237.808V30.0602H236.978V30.9122ZM236.978 40.8968H236.148V41.7488H236.978V40.8968ZM240.222 40.8968H241.052V40.0448H240.222V40.8968ZM240.222 50.8816H239.391V51.7336H240.222V50.8816ZM243.466 50.8816H244.296V50.0296H243.466V50.8816ZM243.466 60.866H242.635V61.718H243.466V60.866ZM246.71 60.866H247.54V60.014H246.71V60.866ZM246.71 70.8503H245.879V71.7024H246.71V70.8503ZM249.953 70.8503H250.784V69.9983H249.953V70.8503ZM249.953 80.8351H249.123V81.6872H249.953V80.8351ZM253.197 80.8351H254.027V79.9831H253.197V80.8351ZM253.197 87.4915H252.366V88.3436H253.197V87.4915ZM256.441 87.4915H257.271V86.6395H256.441V87.4915ZM256.441 90.8199H255.61V91.672H256.441V90.8199ZM262.928 90.8199H263.759V89.9679H262.928V90.8199ZM262.928 94.1479V94.9999H263.759V94.1479H262.928ZM236.978 94.1479H236.148V94.9999H236.978V94.1479ZM236.978 90.8199V89.9679H236.148V90.8199H236.978ZM243.466 90.8199V91.672H244.296V90.8199H243.466ZM243.466 87.4915V86.6395H242.635V87.4915H243.466ZM246.71 87.4915V88.3436H247.54V87.4915H246.71ZM246.71 84.1631H247.54V83.3111H246.71V84.1631ZM243.466 84.1631H242.635V85.0151H243.466V84.1631ZM243.466 74.1788H244.296V73.3267H243.466V74.1788ZM240.222 74.1788H239.391V75.0308H240.222V74.1788ZM240.222 64.1944H241.052V63.3424H240.222V64.1944ZM236.978 64.1944H236.148V65.0464H236.978V64.1944ZM236.978 54.2096H237.808V53.3576H236.978V54.2096ZM207.784 54.2096V53.3576H206.954V54.2096H207.784ZM207.784 64.1944V65.0464H208.615V64.1944H207.784ZM204.54 64.1944V63.3424H203.71V64.1944H204.54ZM204.54 74.1788V75.0308H205.371V74.1788H204.54ZM201.296 74.1788V73.3267H200.466V74.1788H201.296ZM201.296 84.1631V85.0151H202.127V84.1631H201.296ZM198.053 84.1631V83.3111H197.222V84.1631H198.053ZM198.053 87.4915H197.222V88.3436H198.053V87.4915ZM201.296 87.4915H202.127V86.6395H201.296V87.4915ZM201.296 90.8199H200.466V91.672H201.296V90.8199ZM207.784 90.8199H208.615V89.9679H207.784V90.8199ZM207.784 94.1479V94.9999H208.615V94.1479H207.784ZM234.565 50.8816V44.2248H232.904V50.8816H234.565ZM233.734 43.3728H230.49V45.0768H233.734V43.3728ZM231.321 44.2248V34.2404H229.66V44.2248H231.321ZM230.49 33.3884H227.247V35.0924H230.49V33.3884ZM228.077 34.2404V24.2558H226.416V34.2404H228.077ZM227.247 23.4038H224.003V25.1078H227.247V23.4038ZM224.833 24.2558V14.2712H223.173V24.2558H224.833ZM224.003 13.4192H220.759V15.1233H224.003V13.4192ZM219.929 14.2712V24.2558H221.59V14.2712H219.929ZM220.759 23.4038H217.515V25.1078H220.759V23.4038ZM216.685 24.2558V34.2404H218.346V24.2558H216.685ZM217.515 33.3884H214.271V35.0924H217.515V33.3884ZM213.441 34.2404V44.2248H215.102V34.2404H213.441ZM214.271 43.3728H211.028V45.0768H214.271V43.3728ZM210.197 44.2248V50.8816H211.858V44.2248H210.197ZM211.028 51.7336H233.734V50.0296H211.028V51.7336ZM185.908 94.1479V90.8199H184.247V94.1479H185.908ZM185.077 91.672H191.565V89.9679H185.077V91.672ZM192.395 90.8199V87.4915H190.735V90.8199H192.395ZM191.565 88.3436H194.809V86.6395H191.565V88.3436ZM195.639 87.4915V80.8351H193.979V87.4915H195.639ZM194.809 81.6872H198.053V79.9831H194.809V81.6872ZM198.883 80.8351V70.8503H197.222V80.8351H198.883ZM198.053 71.7024H201.296V69.9983H198.053V71.7024ZM202.127 70.8503V60.866H200.466V70.8503H202.127ZM201.296 61.718H204.54V60.014H201.296V61.718ZM205.371 60.866V50.8816H203.71V60.866H205.371ZM204.54 51.7336H207.784V50.0296H204.54V51.7336ZM208.615 50.8816V40.8968H206.954V50.8816H208.615ZM207.784 41.7488H211.028V40.0448H207.784V41.7488ZM211.858 40.8968V30.9122H210.197V40.8968H211.858ZM211.028 31.7642H214.271V30.0602H211.028V31.7642ZM215.102 30.9122V20.9276H213.441V30.9122H215.102ZM214.271 21.7797H217.515V20.0756H214.271V21.7797ZM218.346 20.9276V10.943H216.685V20.9276H218.346ZM217.515 11.7951H220.759V10.091H217.515V11.7951ZM221.59 10.943V0.958463H219.929V10.943H221.59ZM220.759 1.81048H227.247V0.106445H220.759V1.81048ZM226.416 0.958463V10.943H228.077V0.958463H226.416ZM227.247 11.7951H230.49V10.091H227.247V11.7951ZM229.66 10.943V20.9276H231.321V10.943H229.66ZM230.49 21.7797H233.734V20.0756H230.49V21.7797ZM232.904 20.9276V30.9122H234.565V20.9276H232.904ZM233.734 31.7642H236.978V30.0602H233.734V31.7642ZM236.148 30.9122V40.8968H237.808V30.9122H236.148ZM236.978 41.7488H240.222V40.0448H236.978V41.7488ZM239.391 40.8968V50.8816H241.052V40.8968H239.391ZM240.222 51.7336H243.466V50.0296H240.222V51.7336ZM242.635 50.8816V60.866H244.296V50.8816H242.635ZM243.466 61.718H246.71V60.014H243.466V61.718ZM245.879 60.866V70.8503H247.54V60.866H245.879ZM246.71 71.7024H249.953V69.9983H246.71V71.7024ZM249.123 70.8503V80.8351H250.784V70.8503H249.123ZM249.953 81.6872H253.197V79.9831H249.953V81.6872ZM252.366 80.8351V87.4915H254.027V80.8351H252.366ZM253.197 88.3436H256.441V86.6395H253.197V88.3436ZM255.61 87.4915V90.8199H257.271V87.4915H255.61ZM256.441 91.672H262.928V89.9679H256.441V91.672ZM262.098 90.8199V94.1479H263.759V90.8199H262.098ZM262.928 93.2959H236.978V94.9999H262.928V93.2959ZM237.808 94.1479V90.8199H236.148V94.1479H237.808ZM236.978 91.672H243.466V89.9679H236.978V91.672ZM244.296 90.8199V87.4915H242.635V90.8199H244.296ZM243.466 88.3436H246.71V86.6395H243.466V88.3436ZM247.54 87.4915V84.1631H245.879V87.4915H247.54ZM246.71 83.3111H243.466V85.0151H246.71V83.3111ZM244.296 84.1631V74.1788H242.635V84.1631H244.296ZM243.466 73.3267H240.222V75.0308H243.466V73.3267ZM241.052 74.1788V64.1944H239.391V74.1788H241.052ZM240.222 63.3424H236.978V65.0464H240.222V63.3424ZM237.808 64.1944V54.2096H236.148V64.1944H237.808ZM236.978 53.3576H207.784V55.0616H236.978V53.3576ZM206.954 54.2096V64.1944H208.615V54.2096H206.954ZM207.784 63.3424H204.54V65.0464H207.784V63.3424ZM203.71 64.1944V74.1788H205.371V64.1944H203.71ZM204.54 73.3267H201.296V75.0308H204.54V73.3267ZM200.466 74.1788V84.1631H202.127V74.1788H200.466ZM201.296 83.3111H198.053V85.0151H201.296V83.3111ZM197.222 84.1631V87.4915H198.883V84.1631H197.222ZM198.053 88.3436H201.296V86.6395H198.053V88.3436ZM200.466 87.4915V90.8199H202.127V87.4915H200.466ZM201.296 91.672H207.784V89.9679H201.296V91.672ZM206.954 90.8199V94.1479H208.615V90.8199H206.954ZM207.784 93.2959H185.077V94.9999H207.784V93.2959ZM295.366 94.1479H294.536V94.9999H295.366V94.1479ZM295.366 90.8199H296.197V89.9679H295.366V90.8199ZM285.635 90.8199H284.805V91.672H285.635V90.8199ZM285.635 87.4915H286.465V86.6395H285.635V87.4915ZM279.147 87.4915H278.317V88.3436H279.147V87.4915ZM279.147 84.1631H279.978V83.3111H279.147V84.1631ZM275.904 84.1631H275.073V85.0151H275.904V84.1631ZM275.904 80.8351H276.734V79.9831H275.904V80.8351ZM272.66 80.8351H271.829V81.6872H272.66V80.8351ZM272.66 74.1788H273.49V73.3267H272.66V74.1788ZM269.416 74.1788H268.586V75.0308H269.416V74.1788ZM269.416 64.1944H270.246V63.3424H269.416V64.1944ZM266.172 64.1944H265.342V65.0464H266.172V64.1944ZM266.172 30.9122V30.0602H265.342V30.9122H266.172ZM269.416 30.9122V31.7642H270.246V30.9122H269.416ZM269.416 20.9276V20.0756H268.586V20.9276H269.416ZM272.66 20.9276V21.7797H273.49V20.9276H272.66ZM272.66 14.2712V13.4192H271.829V14.2712H272.66ZM275.904 14.2712V15.1233H276.734V14.2712H275.904ZM275.904 10.943V10.091H275.073V10.943H275.904ZM279.147 10.943V11.7951H279.978V10.943H279.147ZM279.147 7.61485V6.76284H278.317V7.61485H279.147ZM285.635 7.61485V8.46687H286.465V7.61485H285.635ZM285.635 4.28666V3.43464H284.805V4.28666H285.635ZM295.366 4.28666V5.13868H296.197V4.28666H295.366ZM295.366 0.958463V0.106445H294.536V0.958463H295.366ZM318.073 0.958463H318.903V0.106445H318.073V0.958463ZM318.073 4.28666H317.242V5.13868H318.073V4.28666ZM324.561 4.28666H325.391V3.43464H324.561V4.28666ZM324.561 7.61485H323.73V8.46687H324.561V7.61485ZM331.048 7.61485H331.878V6.76284H331.048V7.61485ZM331.048 24.2558V25.1078H331.878V24.2558H331.048ZM327.804 24.2558H326.974V25.1078H327.804V24.2558ZM327.804 20.9276H328.634V20.0756H327.804V20.9276ZM324.561 20.9276H323.73V21.7797H324.561V20.9276ZM324.561 14.2712H325.391V13.4192H324.561V14.2712ZM321.317 14.2712H320.486V15.1233H321.317V14.2712ZM321.317 10.943H322.147V10.091H321.317V10.943ZM318.073 10.943H317.242V11.7951H318.073V10.943ZM318.073 7.61485H318.903V6.76284H318.073V7.61485ZM311.585 7.61485H310.755V8.46687H311.585V7.61485ZM311.585 4.28666H312.416V3.43464H311.585V4.28666ZM298.61 4.28666V3.43464H297.78V4.28666H298.61ZM298.61 7.61485V8.46687H299.441V7.61485H298.61ZM288.879 7.61485V6.76284H288.048V7.61485H288.879ZM288.879 10.943V11.7951H289.709V10.943H288.879ZM285.635 10.943V10.091H284.805V10.943H285.635ZM285.635 14.2712V15.1233H286.465V14.2712H285.635ZM282.391 14.2712V13.4192H281.561V14.2712H282.391ZM282.391 17.5994V18.4515H283.221V17.5994H282.391ZM279.147 17.5994V16.7474H278.317V17.5994H279.147ZM279.147 24.2558V25.1078H279.978V24.2558H279.147ZM275.904 24.2558V23.4038H275.073V24.2558H275.904ZM275.904 34.2404V35.0924H276.734V34.2404H275.904ZM272.66 34.2404V33.3884H271.829V34.2404H272.66ZM272.66 60.866H271.829V61.718H272.66V60.866ZM275.904 60.866H276.734V60.014H275.904V60.866ZM275.904 70.8503H275.073V71.7024H275.904V70.8503ZM279.147 70.8503H279.978V69.9983H279.147V70.8503ZM279.147 77.5072H278.317V78.3592H279.147V77.5072ZM282.391 77.5072H283.221V76.6551H282.391V77.5072ZM282.391 80.8351H281.561V81.6872H282.391V80.8351ZM285.635 80.8351H286.465V79.9831H285.635V80.8351ZM285.635 84.1631H284.805V85.0151H285.635V84.1631ZM288.879 84.1631H289.709V83.3111H288.879V84.1631ZM288.879 87.4915H288.048V88.3436H288.879V87.4915ZM298.61 87.4915H299.441V86.6395H298.61V87.4915ZM298.61 90.8199H297.78V91.672H298.61V90.8199ZM311.585 90.8199V91.672H312.416V90.8199H311.585ZM311.585 87.4915V86.6395H310.755V87.4915H311.585ZM318.073 87.4915V88.3436H318.903V87.4915H318.073ZM318.073 84.1631V83.3111H317.242V84.1631H318.073ZM321.317 84.1631V85.0151H322.147V84.1631H321.317ZM321.317 80.8351V79.9831H320.486V80.8351H321.317ZM324.561 80.8351V81.6872H325.391V80.8351H324.561ZM324.561 74.1788V73.3267H323.73V74.1788H324.561ZM327.804 74.1788V75.0308H328.634V74.1788H327.804ZM327.804 70.8503V69.9983H326.974V70.8503H327.804ZM331.048 70.8503H331.878V69.9983H331.048V70.8503ZM331.048 87.4915V88.3436H331.878V87.4915H331.048ZM324.561 87.4915V86.6395H323.73V87.4915H324.561ZM324.561 90.8199V91.672H325.391V90.8199H324.561ZM318.073 90.8199V89.9679H317.242V90.8199H318.073ZM318.073 94.1479V94.9999H318.903V94.1479H318.073ZM296.197 94.1479V90.8199H294.536V94.1479H296.197ZM295.366 89.9679H285.635V91.672H295.366V89.9679ZM286.465 90.8199V87.4915H284.805V90.8199H286.465ZM285.635 86.6395H279.147V88.3436H285.635V86.6395ZM279.978 87.4915V84.1631H278.317V87.4915H279.978ZM279.147 83.3111H275.904V85.0151H279.147V83.3111ZM276.734 84.1631V80.8351H275.073V84.1631H276.734ZM275.904 79.9831H272.66V81.6872H275.904V79.9831ZM273.49 80.8351V74.1788H271.829V80.8351H273.49ZM272.66 73.3267H269.416V75.0308H272.66V73.3267ZM270.246 74.1788V64.1944H268.586V74.1788H270.246ZM269.416 63.3424H266.172V65.0464H269.416V63.3424ZM267.002 64.1944V30.9122H265.342V64.1944H267.002ZM266.172 31.7642H269.416V30.0602H266.172V31.7642ZM270.246 30.9122V20.9276H268.586V30.9122H270.246ZM269.416 21.7797H272.66V20.0756H269.416V21.7797ZM273.49 20.9276V14.2712H271.829V20.9276H273.49ZM272.66 15.1233H275.904V13.4192H272.66V15.1233ZM276.734 14.2712V10.943H275.073V14.2712H276.734ZM275.904 11.7951H279.147V10.091H275.904V11.7951ZM279.978 10.943V7.61485H278.317V10.943H279.978ZM279.147 8.46687H285.635V6.76284H279.147V8.46687ZM286.465 7.61485V4.28666H284.805V7.61485H286.465ZM285.635 5.13868H295.366V3.43464H285.635V5.13868ZM296.197 4.28666V0.958463H294.536V4.28666H296.197ZM295.366 1.81048H318.073V0.106445H295.366V1.81048ZM317.242 0.958463V4.28666H318.903V0.958463H317.242ZM318.073 5.13868H324.561V3.43464H318.073V5.13868ZM323.73 4.28666V7.61485H325.391V4.28666H323.73ZM324.561 8.46687H331.048V6.76284H324.561V8.46687ZM330.217 7.61485V24.2558H331.878V7.61485H330.217ZM331.048 23.4038H327.804V25.1078H331.048V23.4038ZM328.634 24.2558V20.9276H326.974V24.2558H328.634ZM327.804 20.0756H324.561V21.7797H327.804V20.0756ZM325.391 20.9276V14.2712H323.73V20.9276H325.391ZM324.561 13.4192H321.317V15.1233H324.561V13.4192ZM322.147 14.2712V10.943H320.486V14.2712H322.147ZM321.317 10.091H318.073V11.7951H321.317V10.091ZM318.903 10.943V7.61485H317.242V10.943H318.903ZM318.073 6.76284H311.585V8.46687H318.073V6.76284ZM312.416 7.61485V4.28666H310.755V7.61485H312.416ZM311.585 3.43464H298.61V5.13868H311.585V3.43464ZM297.78 4.28666V7.61485H299.441V4.28666H297.78ZM298.61 6.76284H288.879V8.46687H298.61V6.76284ZM288.048 7.61485V10.943H289.709V7.61485H288.048ZM288.879 10.091H285.635V11.7951H288.879V10.091ZM284.805 10.943V14.2712H286.465V10.943H284.805ZM285.635 13.4192H282.391V15.1233H285.635V13.4192ZM281.561 14.2712V17.5994H283.221V14.2712H281.561ZM282.391 16.7474H279.147V18.4515H282.391V16.7474ZM278.317 17.5994V24.2558H279.978V17.5994H278.317ZM279.147 23.4038H275.904V25.1078H279.147V23.4038ZM275.073 24.2558V34.2404H276.734V24.2558H275.073ZM275.904 33.3884H272.66V35.0924H275.904V33.3884ZM271.829 34.2404V60.866H273.49V34.2404H271.829ZM272.66 61.718H275.904V60.014H272.66V61.718ZM275.073 60.866V70.8503H276.734V60.866H275.073ZM275.904 71.7024H279.147V69.9983H275.904V71.7024ZM278.317 70.8503V77.5072H279.978V70.8503H278.317ZM279.147 78.3592H282.391V76.6551H279.147V78.3592ZM281.561 77.5072V80.8351H283.221V77.5072H281.561ZM282.391 81.6872H285.635V79.9831H282.391V81.6872ZM284.805 80.8351V84.1631H286.465V80.8351H284.805ZM285.635 85.0151H288.879V83.3111H285.635V85.0151ZM288.048 84.1631V87.4915H289.709V84.1631H288.048ZM288.879 88.3436H298.61V86.6395H288.879V88.3436ZM297.78 87.4915V90.8199H299.441V87.4915H297.78ZM298.61 91.672H311.585V89.9679H298.61V91.672ZM312.416 90.8199V87.4915H310.755V90.8199H312.416ZM311.585 88.3436H318.073V86.6395H311.585V88.3436ZM318.903 87.4915V84.1631H317.242V87.4915H318.903ZM318.073 85.0151H321.317V83.3111H318.073V85.0151ZM322.147 84.1631V80.8351H320.486V84.1631H322.147ZM321.317 81.6872H324.561V79.9831H321.317V81.6872ZM325.391 80.8351V74.1788H323.73V80.8351H325.391ZM324.561 75.0308H327.804V73.3267H324.561V75.0308ZM328.634 74.1788V70.8503H326.974V74.1788H328.634ZM327.804 71.7024H331.048V69.9983H327.804V71.7024ZM330.217 70.8503V87.4915H331.878V70.8503H330.217ZM331.048 86.6395H324.561V88.3436H331.048V86.6395ZM323.73 87.4915V90.8199H325.391V87.4915H323.73ZM324.561 89.9679H318.073V91.672H324.561V89.9679ZM317.242 90.8199V94.1479H318.903V90.8199H317.242ZM318.073 93.2959H295.366V94.9999H318.073V93.2959ZM367.638 94.1479H366.808V94.9999H367.638V94.1479ZM367.638 90.8199V89.9679H366.808V90.8199H367.638ZM374.125 90.8199V91.672H374.956V90.8199H374.125ZM374.125 87.4915V86.6395H373.295V87.4915H374.125ZM377.369 87.4915V88.3436H378.2V87.4915H377.369ZM377.369 7.61485H378.2V6.76284H377.369V7.61485ZM374.125 7.61485H373.295V8.46687H374.125V7.61485ZM374.125 4.28666H374.956V3.43464H374.125V4.28666ZM348.175 4.28666V3.43464H347.344V4.28666H348.175ZM348.175 7.61485V8.46687H349.005V7.61485H348.175ZM344.931 7.61485V6.76284H344.101V7.61485H344.931ZM344.931 14.2712V15.1233H345.762V14.2712H344.931ZM341.688 14.2712H340.857V15.1233H341.688V14.2712ZM341.688 0.958463V0.106445H340.857V0.958463H341.688ZM419.539 0.958463H420.37V0.106445H419.539V0.958463ZM419.539 17.5994V18.4515H420.37V17.5994H419.539ZM416.293 17.5994H415.462V18.4515H416.293V17.5994ZM416.293 7.61485H417.123V6.76284H416.293V7.61485ZM413.051 7.61485H412.22V8.46687H413.051V7.61485ZM413.051 4.28666H413.881V3.43464H413.051V4.28666ZM387.1 4.28666V3.43464H386.27V4.28666H387.1ZM387.1 7.61485V8.46687H387.931V7.61485H387.1ZM383.857 7.61485V6.76284H383.026V7.61485H383.857ZM383.857 87.4915H383.026V88.3436H383.857V87.4915ZM387.1 87.4915H387.931V86.6395H387.1V87.4915ZM387.1 90.8199H386.27V91.672H387.1V90.8199ZM393.588 90.8199H394.419V89.9679H393.588V90.8199ZM393.588 94.1479V94.9999H394.419V94.1479H393.588ZM368.468 94.1479V90.8199H366.808V94.1479H368.468ZM367.638 91.672H374.125V89.9679H367.638V91.672ZM374.956 90.8199V87.4915H373.295V90.8199H374.956ZM374.125 88.3436H377.369V86.6395H374.125V88.3436ZM378.2 87.4915V7.61485H376.539V87.4915H378.2ZM377.369 6.76284H374.125V8.46687H377.369V6.76284ZM374.956 7.61485V4.28666H373.295V7.61485H374.956ZM374.125 3.43464H348.175V5.13868H374.125V3.43464ZM347.344 4.28666V7.61485H349.005V4.28666H347.344ZM348.175 6.76284H344.931V8.46687H348.175V6.76284ZM344.101 7.61485V14.2712H345.762V7.61485H344.101ZM344.931 13.4192H341.688V15.1233H344.931V13.4192ZM342.518 14.2712V0.958463H340.857V14.2712H342.518ZM341.688 1.81048H419.539V0.106445H341.688V1.81048ZM418.709 0.958463V17.5994H420.37V0.958463H418.709ZM419.539 16.7474H416.293V18.4515H419.539V16.7474ZM417.123 17.5994V7.61485H415.462V17.5994H417.123ZM416.293 6.76284H413.051V8.46687H416.293V6.76284ZM413.881 7.61485V4.28666H412.22V7.61485H413.881ZM413.051 3.43464H387.1V5.13868H413.051V3.43464ZM386.27 4.28666V7.61485H387.931V4.28666H386.27ZM387.1 6.76284H383.857V8.46687H387.1V6.76284ZM383.026 7.61485V87.4915H384.687V7.61485H383.026ZM383.857 88.3436H387.1V86.6395H383.857V88.3436ZM386.27 87.4915V90.8199H387.931V87.4915H386.27ZM387.1 91.672H393.588V89.9679H387.1V91.672ZM392.758 90.8199V94.1479H394.419V90.8199H392.758ZM393.588 93.2959H367.638V94.9999H393.588V93.2959ZM484.415 94.1479H483.585V94.9999H484.415V94.1479ZM484.415 90.8199H485.246V89.9679H484.415V90.8199ZM474.683 90.8199H473.852V91.672H474.683V90.8199ZM474.683 87.4915H475.513V86.6395H474.683V87.4915ZM468.193 87.4915H467.363V88.3436H468.193V87.4915ZM468.193 84.1631H469.023V83.3111H468.193V84.1631ZM464.95 84.1631H464.12V85.0151H464.95V84.1631ZM464.95 80.8351H465.781V79.9831H464.95V80.8351ZM461.708 80.8351H460.877V81.6872H461.708V80.8351ZM461.708 74.1788H462.538V73.3267H461.708V74.1788ZM458.465 74.1788H457.634V75.0308H458.465V74.1788ZM458.465 64.1944H459.295V63.3424H458.465V64.1944ZM455.222 64.1944H454.392V65.0464H455.222V64.1944ZM455.222 30.9122V30.0602H454.392V30.9122H455.222ZM458.465 30.9122V31.7642H459.295V30.9122H458.465ZM458.465 20.9276V20.0756H457.634V20.9276H458.465ZM461.708 20.9276V21.7797H462.538V20.9276H461.708ZM461.708 14.2712V13.4192H460.877V14.2712H461.708ZM464.95 14.2712V15.1233H465.781V14.2712H464.95ZM464.95 10.943V10.091H464.12V10.943H464.95ZM468.193 10.943V11.7951H469.023V10.943H468.193ZM468.193 7.61485V6.76284H467.363V7.61485H468.193ZM474.683 7.61485V8.46687H475.513V7.61485H474.683ZM474.683 4.28666V3.43464H473.852V4.28666H474.683ZM484.415 4.28666V5.13868H485.246V4.28666H484.415ZM484.415 0.958463V0.106445H483.585V0.958463H484.415ZM507.123 0.958463H507.953V0.106445H507.123V0.958463ZM507.123 4.28666H506.292V5.13868H507.123V4.28666ZM513.608 4.28666H514.439V3.43464H513.608V4.28666ZM513.608 7.61485H512.778V8.46687H513.608V7.61485ZM520.094 7.61485H520.924V6.76284H520.094V7.61485ZM520.094 24.2558V25.1078H520.924V24.2558H520.094ZM516.851 24.2558H516.021V25.1078H516.851V24.2558ZM516.851 20.9276H517.681V20.0756H516.851V20.9276ZM513.608 20.9276H512.778V21.7797H513.608V20.9276ZM513.608 14.2712H514.439V13.4192H513.608V14.2712ZM510.365 14.2712H509.535V15.1233H510.365V14.2712ZM510.365 10.943H511.196V10.091H510.365V10.943ZM507.123 10.943H506.292V11.7951H507.123V10.943ZM507.123 7.61485H507.953V6.76284H507.123V7.61485ZM500.633 7.61485H499.803V8.46687H500.633V7.61485ZM500.633 4.28666H501.463V3.43464H500.633V4.28666ZM487.658 4.28666V3.43464H486.827V4.28666H487.658ZM487.658 7.61485V8.46687H488.488V7.61485H487.658ZM477.926 7.61485V6.76284H477.095V7.61485H477.926ZM477.926 10.943V11.7951H478.756V10.943H477.926ZM474.683 10.943V10.091H473.852V10.943H474.683ZM474.683 14.2712V15.1233H475.513V14.2712H474.683ZM471.44 14.2712V13.4192H470.61V14.2712H471.44ZM471.44 17.5994V18.4515H472.27V17.5994H471.44ZM468.193 17.5994V16.7474H467.363V17.5994H468.193ZM468.193 24.2558V25.1078H469.023V24.2558H468.193ZM464.95 24.2558V23.4038H464.12V24.2558H464.95ZM464.95 34.2404V35.0924H465.781V34.2404H464.95ZM461.708 34.2404V33.3884H460.877V34.2404H461.708ZM461.708 60.866H460.877V61.718H461.708V60.866ZM464.95 60.866H465.781V60.014H464.95V60.866ZM464.95 70.8503H464.12V71.7024H464.95V70.8503ZM468.193 70.8503H469.023V69.9983H468.193V70.8503ZM468.193 77.5072H467.363V78.3592H468.193V77.5072ZM471.44 77.5072H472.27V76.6551H471.44V77.5072ZM471.44 80.8351H470.61V81.6872H471.44V80.8351ZM474.683 80.8351H475.513V79.9831H474.683V80.8351ZM474.683 84.1631H473.852V85.0151H474.683V84.1631ZM477.926 84.1631H478.756V83.3111H477.926V84.1631ZM477.926 87.4915H477.095V88.3436H477.926V87.4915ZM487.658 87.4915H488.488V86.6395H487.658V87.4915ZM487.658 90.8199H486.827V91.672H487.658V90.8199ZM500.633 90.8199V91.672H501.463V90.8199H500.633ZM500.633 87.4915V86.6395H499.803V87.4915H500.633ZM507.123 87.4915V88.3436H507.953V87.4915H507.123ZM507.123 84.1631V83.3111H506.292V84.1631H507.123ZM510.365 84.1631V85.0151H511.196V84.1631H510.365ZM510.365 80.8351V79.9831H509.535V80.8351H510.365ZM513.608 80.8351V81.6872H514.439V80.8351H513.608ZM513.608 74.1788V73.3267H512.778V74.1788H513.608ZM516.851 74.1788V75.0308H517.681V74.1788H516.851ZM516.851 70.8503V69.9983H516.021V70.8503H516.851ZM520.094 70.8503H520.924V69.9983H520.094V70.8503ZM520.094 87.4915V88.3436H520.924V87.4915H520.094ZM513.608 87.4915V86.6395H512.778V87.4915H513.608ZM513.608 90.8199V91.672H514.439V90.8199H513.608ZM507.123 90.8199V89.9679H506.292V90.8199H507.123ZM507.123 94.1479V94.9999H507.953V94.1479H507.123ZM485.246 94.1479V90.8199H483.585V94.1479H485.246ZM484.415 89.9679H474.683V91.672H484.415V89.9679ZM475.513 90.8199V87.4915H473.852V90.8199H475.513ZM474.683 86.6395H468.193V88.3436H474.683V86.6395ZM469.023 87.4915V84.1631H467.363V87.4915H469.023ZM468.193 83.3111H464.95V85.0151H468.193V83.3111ZM465.781 84.1631V80.8351H464.12V84.1631H465.781ZM464.95 79.9831H461.708V81.6872H464.95V79.9831ZM462.538 80.8351V74.1788H460.877V80.8351H462.538ZM461.708 73.3267H458.465V75.0308H461.708V73.3267ZM459.295 74.1788V64.1944H457.634V74.1788H459.295ZM458.465 63.3424H455.222V65.0464H458.465V63.3424ZM456.053 64.1944V30.9122H454.392V64.1944H456.053ZM455.222 31.7642H458.465V30.0602H455.222V31.7642ZM459.295 30.9122V20.9276H457.634V30.9122H459.295ZM458.465 21.7797H461.708V20.0756H458.465V21.7797ZM462.538 20.9276V14.2712H460.877V20.9276H462.538ZM461.708 15.1233H464.95V13.4192H461.708V15.1233ZM465.781 14.2712V10.943H464.12V14.2712H465.781ZM464.95 11.7951H468.193V10.091H464.95V11.7951ZM469.023 10.943V7.61485H467.363V10.943H469.023ZM468.193 8.46687H474.683V6.76284H468.193V8.46687ZM475.513 7.61485V4.28666H473.852V7.61485H475.513ZM474.683 5.13868H484.415V3.43464H474.683V5.13868ZM485.246 4.28666V0.958463H483.585V4.28666H485.246ZM484.415 1.81048H507.123V0.106445H484.415V1.81048ZM506.292 0.958463V4.28666H507.953V0.958463H506.292ZM507.123 5.13868H513.608V3.43464H507.123V5.13868ZM512.778 4.28666V7.61485H514.439V4.28666H512.778ZM513.608 8.46687H520.094V6.76284H513.608V8.46687ZM519.263 7.61485V24.2558H520.924V7.61485H519.263ZM520.094 23.4038H516.851V25.1078H520.094V23.4038ZM517.681 24.2558V20.9276H516.021V24.2558H517.681ZM516.851 20.0756H513.608V21.7797H516.851V20.0756ZM514.439 20.9276V14.2712H512.778V20.9276H514.439ZM513.608 13.4192H510.365V15.1233H513.608V13.4192ZM511.196 14.2712V10.943H509.535V14.2712H511.196ZM510.365 10.091H507.123V11.7951H510.365V10.091ZM507.953 10.943V7.61485H506.292V10.943H507.953ZM507.123 6.76284H500.633V8.46687H507.123V6.76284ZM501.463 7.61485V4.28666H499.803V7.61485H501.463ZM500.633 3.43464H487.658V5.13868H500.633V3.43464ZM486.827 4.28666V7.61485H488.488V4.28666H486.827ZM487.658 6.76284H477.926V8.46687H487.658V6.76284ZM477.095 7.61485V10.943H478.756V7.61485H477.095ZM477.926 10.091H474.683V11.7951H477.926V10.091ZM473.852 10.943V14.2712H475.513V10.943H473.852ZM474.683 13.4192H471.44V15.1233H474.683V13.4192ZM470.61 14.2712V17.5994H472.27V14.2712H470.61ZM471.44 16.7474H468.193V18.4515H471.44V16.7474ZM467.363 17.5994V24.2558H469.023V17.5994H467.363ZM468.193 23.4038H464.95V25.1078H468.193V23.4038ZM464.12 24.2558V34.2404H465.781V24.2558H464.12ZM464.95 33.3884H461.708V35.0924H464.95V33.3884ZM460.877 34.2404V60.866H462.538V34.2404H460.877ZM461.708 61.718H464.95V60.014H461.708V61.718ZM464.12 60.866V70.8503H465.781V60.866H464.12ZM464.95 71.7024H468.193V69.9983H464.95V71.7024ZM467.363 70.8503V77.5072H469.023V70.8503H467.363ZM468.193 78.3592H471.44V76.6551H468.193V78.3592ZM470.61 77.5072V80.8351H472.27V77.5072H470.61ZM471.44 81.6872H474.683V79.9831H471.44V81.6872ZM473.852 80.8351V84.1631H475.513V80.8351H473.852ZM474.683 85.0151H477.926V83.3111H474.683V85.0151ZM477.095 84.1631V87.4915H478.756V84.1631H477.095ZM477.926 88.3436H487.658V86.6395H477.926V88.3436ZM486.827 87.4915V90.8199H488.488V87.4915H486.827ZM487.658 91.672H500.633V89.9679H487.658V91.672ZM501.463 90.8199V87.4915H499.803V90.8199H501.463ZM500.633 88.3436H507.123V86.6395H500.633V88.3436ZM507.953 87.4915V84.1631H506.292V87.4915H507.953ZM507.123 85.0151H510.365V83.3111H507.123V85.0151ZM511.196 84.1631V80.8351H509.535V84.1631H511.196ZM510.365 81.6872H513.608V79.9831H510.365V81.6872ZM514.439 80.8351V74.1788H512.778V80.8351H514.439ZM513.608 75.0308H516.851V73.3267H513.608V75.0308ZM517.681 74.1788V70.8503H516.021V74.1788H517.681ZM516.851 71.7024H520.094V69.9983H516.851V71.7024ZM519.263 70.8503V87.4915H520.924V70.8503H519.263ZM520.094 86.6395H513.608V88.3436H520.094V86.6395ZM512.778 87.4915V90.8199H514.439V87.4915H512.778ZM513.608 89.9679H507.123V91.672H513.608V89.9679ZM506.292 90.8199V94.1479H507.953V90.8199H506.292ZM507.123 93.2959H484.415V94.9999H507.123V93.2959ZM530.735 94.1479H529.905V94.9999H530.735V94.1479ZM530.735 90.8199V89.9679H529.905V90.8199H530.735ZM537.225 90.8199V91.672H538.055V90.8199H537.225ZM537.225 87.4915V86.6395H536.395V87.4915H537.225ZM540.468 87.4915V88.3436H541.298V87.4915H540.468ZM540.468 7.61485H541.298V6.76284H540.468V7.61485ZM537.225 7.61485H536.395V8.46687H537.225V7.61485ZM537.225 4.28666H538.055V3.43464H537.225V4.28666ZM530.735 4.28666H529.905V5.13868H530.735V4.28666ZM530.735 0.958463V0.106445H529.905V0.958463H530.735ZM553.443 0.958463H554.273V0.106445H553.443V0.958463ZM553.443 4.28666V5.13868H554.273V4.28666H553.443ZM546.953 4.28666V3.43464H546.123V4.28666H546.953ZM546.953 10.943H546.123V11.7951H546.953V10.943ZM550.196 10.943H551.026V10.091H550.196V10.943ZM550.196 20.9276H549.366V21.7797H550.196V20.9276ZM553.443 20.9276H554.273V20.0756H553.443V20.9276ZM553.443 30.9122H552.612V31.7642H553.443V30.9122ZM556.686 30.9122H557.516V30.0602H556.686V30.9122ZM556.686 40.8968H555.855V41.7488H556.686V40.8968ZM559.928 40.8968H560.759V40.0448H559.928V40.8968ZM559.928 50.8816H559.098V51.7336H559.928V50.8816ZM563.175 50.8816H564.006V50.0296H563.175V50.8816ZM563.175 60.866H562.345V61.718H563.175V60.866ZM566.418 60.866H567.248V60.014H566.418V60.866ZM566.418 70.8503H565.588V71.7024H566.418V70.8503ZM569.661 70.8503H570.491V69.9983H569.661V70.8503ZM569.661 80.8351H568.83V81.6872H569.661V80.8351ZM572.904 80.8351V81.6872H573.734V80.8351H572.904ZM572.904 70.8503V69.9983H572.073V70.8503H572.904ZM576.146 70.8503V71.7024H576.977V70.8503H576.146ZM576.146 60.866V60.014H575.316V60.866H576.146ZM579.393 60.866V61.718H580.224V60.866H579.393ZM579.393 50.8816V50.0296H578.563V50.8816H579.393ZM582.636 50.8816V51.7336H583.466V50.8816H582.636ZM582.636 40.8968V40.0448H581.806V40.8968H582.636ZM585.879 40.8968V41.7488H586.709V40.8968H585.879ZM585.879 30.9122V30.0602H585.048V30.9122H585.879ZM589.126 30.9122V31.7642H589.956V30.9122H589.126ZM589.126 20.9276V20.0756H588.295V20.9276H589.126ZM592.368 20.9276V21.7797H593.199V20.9276H592.368ZM592.368 10.943V10.091H591.538V10.943H592.368ZM595.611 10.943V11.7951H596.442V10.943H595.611ZM595.611 7.61485H596.442V6.76284H595.611V7.61485ZM592.368 7.61485H591.538V8.46687H592.368V7.61485ZM592.368 4.28666H593.199V3.43464H592.368V4.28666ZM585.879 4.28666H585.048V5.13868H585.879V4.28666ZM585.879 0.958463V0.106445H585.048V0.958463H585.879ZM615.076 0.958463H615.906V0.106445H615.076V0.958463ZM615.076 4.28666V5.13868H615.906V4.28666H615.076ZM608.586 4.28666V3.43464H607.756V4.28666H608.586ZM608.586 7.61485V8.46687H609.417V7.61485H608.586ZM605.344 7.61485V6.76284H604.513V7.61485H605.344ZM605.344 87.4915H604.513V88.3436H605.344V87.4915ZM608.586 87.4915H609.417V86.6395H608.586V87.4915ZM608.586 90.8199H607.756V91.672H608.586V90.8199ZM615.076 90.8199H615.906V89.9679H615.076V90.8199ZM615.076 94.1479V94.9999H615.906V94.1479H615.076ZM589.126 94.1479H588.295V94.9999H589.126V94.1479ZM589.126 90.8199V89.9679H588.295V90.8199H589.126ZM595.611 90.8199V91.672H596.442V90.8199H595.611ZM595.611 87.4915V86.6395H594.781V87.4915H595.611ZM598.854 87.4915V88.3436H599.684V87.4915H598.854ZM598.854 14.2712H599.684V13.4192H598.854V14.2712ZM595.611 14.2712V13.4192H594.781V14.2712H595.611ZM595.611 24.2558V25.1078H596.442V24.2558H595.611ZM592.368 24.2558V23.4038H591.538V24.2558H592.368ZM592.368 34.2404V35.0924H593.199V34.2404H592.368ZM589.126 34.2404V33.3884H588.295V34.2404H589.126ZM589.126 44.2248V45.0768H589.956V44.2248H589.126ZM585.879 44.2248V43.3728H585.048V44.2248H585.879ZM585.879 54.2096V55.0616H586.709V54.2096H585.879ZM582.636 54.2096V53.3576H581.806V54.2096H582.636ZM582.636 64.1944V65.0464H583.466V64.1944H582.636ZM579.393 64.1944V63.3424H578.563V64.1944H579.393ZM579.393 74.1788V75.0308H580.224V74.1788H579.393ZM576.146 74.1788V73.3267H575.316V74.1788H576.146ZM576.146 84.1631V85.0151H576.977V84.1631H576.146ZM572.904 84.1631V83.3111H572.073V84.1631H572.904ZM572.904 94.1479V94.9999H573.734V94.1479H572.904ZM566.418 94.1479H565.588V94.9999H566.418V94.1479ZM566.418 84.1631H567.248V83.3111H566.418V84.1631ZM563.175 84.1631H562.345V85.0151H563.175V84.1631ZM563.175 74.1788H564.006V73.3267H563.175V74.1788ZM559.928 74.1788H559.098V75.0308H559.928V74.1788ZM559.928 64.1944H560.759V63.3424H559.928V64.1944ZM556.686 64.1944H555.855V65.0464H556.686V64.1944ZM556.686 54.2096H557.516V53.3576H556.686V54.2096ZM553.443 54.2096H552.612V55.0616H553.443V54.2096ZM553.443 44.2248H554.273V43.3728H553.443V44.2248ZM550.196 44.2248H549.366V45.0768H550.196V44.2248ZM550.196 34.2404H551.026V33.3884H550.196V34.2404ZM546.953 34.2404H546.123V35.0924H546.953V34.2404ZM546.953 24.2558H547.784V23.4038H546.953V24.2558ZM543.711 24.2558V23.4038H542.88V24.2558H543.711ZM543.711 87.4915H542.88V88.3436H543.711V87.4915ZM546.953 87.4915H547.784V86.6395H546.953V87.4915ZM546.953 90.8199H546.123V91.672H546.953V90.8199ZM553.443 90.8199H554.273V89.9679H553.443V90.8199ZM553.443 94.1479V94.9999H554.273V94.1479H553.443ZM531.566 94.1479V90.8199H529.905V94.1479H531.566ZM530.735 91.672H537.225V89.9679H530.735V91.672ZM538.055 90.8199V87.4915H536.395V90.8199H538.055ZM537.225 88.3436H540.468V86.6395H537.225V88.3436ZM541.298 87.4915V7.61485H539.637V87.4915H541.298ZM540.468 6.76284H537.225V8.46687H540.468V6.76284ZM538.055 7.61485V4.28666H536.395V7.61485H538.055ZM537.225 3.43464H530.735V5.13868H537.225V3.43464ZM531.566 4.28666V0.958463H529.905V4.28666H531.566ZM530.735 1.81048H553.443V0.106445H530.735V1.81048ZM552.612 0.958463V4.28666H554.273V0.958463H552.612ZM553.443 3.43464H546.953V5.13868H553.443V3.43464ZM546.123 4.28666V10.943H547.784V4.28666H546.123ZM546.953 11.7951H550.196V10.091H546.953V11.7951ZM549.366 10.943V20.9276H551.026V10.943H549.366ZM550.196 21.7797H553.443V20.0756H550.196V21.7797ZM552.612 20.9276V30.9122H554.273V20.9276H552.612ZM553.443 31.7642H556.686V30.0602H553.443V31.7642ZM555.855 30.9122V40.8968H557.516V30.9122H555.855ZM556.686 41.7488H559.928V40.0448H556.686V41.7488ZM559.098 40.8968V50.8816H560.759V40.8968H559.098ZM559.928 51.7336H563.175V50.0296H559.928V51.7336ZM562.345 50.8816V60.866H564.006V50.8816H562.345ZM563.175 61.718H566.418V60.014H563.175V61.718ZM565.588 60.866V70.8503H567.248V60.866H565.588ZM566.418 71.7024H569.661V69.9983H566.418V71.7024ZM568.83 70.8503V80.8351H570.491V70.8503H568.83ZM569.661 81.6872H572.904V79.9831H569.661V81.6872ZM573.734 80.8351V70.8503H572.073V80.8351H573.734ZM572.904 71.7024H576.146V69.9983H572.904V71.7024ZM576.977 70.8503V60.866H575.316V70.8503H576.977ZM576.146 61.718H579.393V60.014H576.146V61.718ZM580.224 60.866V50.8816H578.563V60.866H580.224ZM579.393 51.7336H582.636V50.0296H579.393V51.7336ZM583.466 50.8816V40.8968H581.806V50.8816H583.466ZM582.636 41.7488H585.879V40.0448H582.636V41.7488ZM586.709 40.8968V30.9122H585.048V40.8968H586.709ZM585.879 31.7642H589.126V30.0602H585.879V31.7642ZM589.956 30.9122V20.9276H588.295V30.9122H589.956ZM589.126 21.7797H592.368V20.0756H589.126V21.7797ZM593.199 20.9276V10.943H591.538V20.9276H593.199ZM592.368 11.7951H595.611V10.091H592.368V11.7951ZM596.442 10.943V7.61485H594.781V10.943H596.442ZM595.611 6.76284H592.368V8.46687H595.611V6.76284ZM593.199 7.61485V4.28666H591.538V7.61485H593.199ZM592.368 3.43464H585.879V5.13868H592.368V3.43464ZM586.709 4.28666V0.958463H585.048V4.28666H586.709ZM585.879 1.81048H615.076V0.106445H585.879V1.81048ZM614.245 0.958463V4.28666H615.906V0.958463H614.245ZM615.076 3.43464H608.586V5.13868H615.076V3.43464ZM607.756 4.28666V7.61485H609.417V4.28666H607.756ZM608.586 6.76284H605.344V8.46687H608.586V6.76284ZM604.513 7.61485V87.4915H606.174V7.61485H604.513ZM605.344 88.3436H608.586V86.6395H605.344V88.3436ZM607.756 87.4915V90.8199H609.417V87.4915H607.756ZM608.586 91.672H615.076V89.9679H608.586V91.672ZM614.245 90.8199V94.1479H615.906V90.8199H614.245ZM615.076 93.2959H589.126V94.9999H615.076V93.2959ZM589.956 94.1479V90.8199H588.295V94.1479H589.956ZM589.126 91.672H595.611V89.9679H589.126V91.672ZM596.442 90.8199V87.4915H594.781V90.8199H596.442ZM595.611 88.3436H598.854V86.6395H595.611V88.3436ZM599.684 87.4915V14.2712H598.023V87.4915H599.684ZM598.854 13.4192H595.611V15.1233H598.854V13.4192ZM594.781 14.2712V24.2558H596.442V14.2712H594.781ZM595.611 23.4038H592.368V25.1078H595.611V23.4038ZM591.538 24.2558V34.2404H593.199V24.2558H591.538ZM592.368 33.3884H589.126V35.0924H592.368V33.3884ZM588.295 34.2404V44.2248H589.956V34.2404H588.295ZM589.126 43.3728H585.879V45.0768H589.126V43.3728ZM585.048 44.2248V54.2096H586.709V44.2248H585.048ZM585.879 53.3576H582.636V55.0616H585.879V53.3576ZM581.806 54.2096V64.1944H583.466V54.2096H581.806ZM582.636 63.3424H579.393V65.0464H582.636V63.3424ZM578.563 64.1944V74.1788H580.224V64.1944H578.563ZM579.393 73.3267H576.146V75.0308H579.393V73.3267ZM575.316 74.1788V84.1631H576.977V74.1788H575.316ZM576.146 83.3111H572.904V85.0151H576.146V83.3111ZM572.073 84.1631V94.1479H573.734V84.1631H572.073ZM572.904 93.2959H566.418V94.9999H572.904V93.2959ZM567.248 94.1479V84.1631H565.588V94.1479H567.248ZM566.418 83.3111H563.175V85.0151H566.418V83.3111ZM564.006 84.1631V74.1788H562.345V84.1631H564.006ZM563.175 73.3267H559.928V75.0308H563.175V73.3267ZM560.759 74.1788V64.1944H559.098V74.1788H560.759ZM559.928 63.3424H556.686V65.0464H559.928V63.3424ZM557.516 64.1944V54.2096H555.855V64.1944H557.516ZM556.686 53.3576H553.443V55.0616H556.686V53.3576ZM554.273 54.2096V44.2248H552.612V54.2096H554.273ZM553.443 43.3728H550.196V45.0768H553.443V43.3728ZM551.026 44.2248V34.2404H549.366V44.2248H551.026ZM550.196 33.3884H546.953V35.0924H550.196V33.3884ZM547.784 34.2404V24.2558H546.123V34.2404H547.784ZM546.953 23.4038H543.711V25.1078H546.953V23.4038ZM542.88 24.2558V87.4915H544.541V24.2558H542.88ZM543.711 88.3436H546.953V86.6395H543.711V88.3436ZM546.123 87.4915V90.8199H547.784V87.4915H546.123ZM546.953 91.672H553.443V89.9679H546.953V91.672ZM552.612 90.8199V94.1479H554.273V90.8199H552.612ZM553.443 93.2959H530.735V94.9999H553.443V93.2959ZM657.244 94.1479H656.414V94.9999H657.244V94.1479ZM657.244 90.8199H658.074V89.9679H657.244V90.8199ZM647.512 90.8199H646.681V91.672H647.512V90.8199ZM647.512 87.4915H648.342V86.6395H647.512V87.4915ZM641.026 87.4915H640.196V88.3436H641.026V87.4915ZM641.026 84.1631H641.857V83.3111H641.026V84.1631ZM637.779 84.1631H636.949V85.0151H637.779V84.1631ZM637.779 80.8351H638.61V79.9831H637.779V80.8351ZM634.537 80.8351H633.706V81.6872H634.537V80.8351ZM634.537 74.1788H635.367V73.3267H634.537V74.1788ZM631.294 74.1788H630.463V75.0308H631.294V74.1788ZM631.294 7.61485H632.124V6.76284H631.294V7.61485ZM628.047 7.61485H627.216V8.46687H628.047V7.61485ZM628.047 4.28666H628.877V3.43464H628.047V4.28666ZM621.561 4.28666H620.731V5.13868H621.561V4.28666ZM621.561 0.958463V0.106445H620.731V0.958463H621.561ZM647.512 0.958463H648.342V0.106445H647.512V0.958463ZM647.512 4.28666V5.13868H648.342V4.28666H647.512ZM641.026 4.28666V3.43464H640.196V4.28666H641.026ZM641.026 7.61485V8.46687H641.857V7.61485H641.026ZM637.779 7.61485V6.76284H636.949V7.61485H637.779ZM637.779 70.8503H636.949V71.7024H637.779V70.8503ZM641.026 70.8503H641.857V69.9983H641.026V70.8503ZM641.026 77.5072H640.196V78.3592H641.026V77.5072ZM644.269 77.5072H645.099V76.6551H644.269V77.5072ZM644.269 80.8351H643.438V81.6872H644.269V80.8351ZM647.512 80.8351H648.342V79.9831H647.512V80.8351ZM647.512 84.1631H646.681V85.0151H647.512V84.1631ZM650.754 84.1631H651.585V83.3111H650.754V84.1631ZM650.754 87.4915H649.924V88.3436H650.754V87.4915ZM660.487 87.4915H661.317V86.6395H660.487V87.4915ZM660.487 90.8199H659.656V91.672H660.487V90.8199ZM670.219 90.8199V91.672H671.05V90.8199H670.219ZM670.219 87.4915V86.6395H669.389V87.4915H670.219ZM679.947 87.4915V88.3436H680.778V87.4915H679.947ZM679.947 84.1631V83.3111H679.117V84.1631H679.947ZM683.194 84.1631V85.0151H684.025V84.1631H683.194ZM683.194 80.8351V79.9831H682.364V80.8351H683.194ZM686.437 80.8351V81.6872H687.268V80.8351H686.437ZM686.437 77.5072V76.6551H685.607V77.5072H686.437ZM689.68 77.5072V78.3592H690.51V77.5072H689.68ZM689.68 70.8503V69.9983H688.849V70.8503H689.68ZM692.927 70.8503V71.7024H693.757V70.8503H692.927ZM692.927 7.61485H693.757V6.76284H692.927V7.61485ZM689.68 7.61485H688.849V8.46687H689.68V7.61485ZM689.68 4.28666H690.51V3.43464H689.68V4.28666ZM683.194 4.28666H682.364V5.13868H683.194V4.28666ZM683.194 0.958463V0.106445H682.364V0.958463H683.194ZM709.145 0.958463H709.975V0.106445H709.145V0.958463ZM709.145 4.28666V5.13868H709.975V4.28666H709.145ZM702.655 4.28666V3.43464H701.825V4.28666H702.655ZM702.655 7.61485V8.46687H703.485V7.61485H702.655ZM699.412 7.61485V6.76284H698.582V7.61485H699.412ZM699.412 87.4915H698.582V88.3436H699.412V87.4915ZM702.655 87.4915H703.485V86.6395H702.655V87.4915ZM702.655 90.8199H701.825V91.672H702.655V90.8199ZM709.145 90.8199H709.975V89.9679H709.145V90.8199ZM709.145 94.1479V94.9999H709.975V94.1479H709.145ZM692.927 94.1479H692.096V94.9999H692.927V94.1479ZM692.927 84.1631H693.757V83.3111H692.927V84.1631ZM689.68 84.1631V83.3111H688.849V84.1631H689.68ZM689.68 87.4915V88.3436H690.51V87.4915H689.68ZM683.194 87.4915V86.6395H682.364V87.4915H683.194ZM683.194 90.8199V91.672H684.025V90.8199H683.194ZM673.462 90.8199V89.9679H672.632V90.8199H673.462ZM673.462 94.1479V94.9999H674.292V94.1479H673.462ZM658.074 94.1479V90.8199H656.414V94.1479H658.074ZM657.244 89.9679H647.512V91.672H657.244V89.9679ZM648.342 90.8199V87.4915H646.681V90.8199H648.342ZM647.512 86.6395H641.026V88.3436H647.512V86.6395ZM641.857 87.4915V84.1631H640.196V87.4915H641.857ZM641.026 83.3111H637.779V85.0151H641.026V83.3111ZM638.61 84.1631V80.8351H636.949V84.1631H638.61ZM637.779 79.9831H634.537V81.6872H637.779V79.9831ZM635.367 80.8351V74.1788H633.706V80.8351H635.367ZM634.537 73.3267H631.294V75.0308H634.537V73.3267ZM632.124 74.1788V7.61485H630.463V74.1788H632.124ZM631.294 6.76284H628.047V8.46687H631.294V6.76284ZM628.877 7.61485V4.28666H627.216V7.61485H628.877ZM628.047 3.43464H621.561V5.13868H628.047V3.43464ZM622.392 4.28666V0.958463H620.731V4.28666H622.392ZM621.561 1.81048H647.512V0.106445H621.561V1.81048ZM646.681 0.958463V4.28666H648.342V0.958463H646.681ZM647.512 3.43464H641.026V5.13868H647.512V3.43464ZM640.196 4.28666V7.61485H641.857V4.28666H640.196ZM641.026 6.76284H637.779V8.46687H641.026V6.76284ZM636.949 7.61485V70.8503H638.61V7.61485H636.949ZM637.779 71.7024H641.026V69.9983H637.779V71.7024ZM640.196 70.8503V77.5072H641.857V70.8503H640.196ZM641.026 78.3592H644.269V76.6551H641.026V78.3592ZM643.438 77.5072V80.8351H645.099V77.5072H643.438ZM644.269 81.6872H647.512V79.9831H644.269V81.6872ZM646.681 80.8351V84.1631H648.342V80.8351H646.681ZM647.512 85.0151H650.754V83.3111H647.512V85.0151ZM649.924 84.1631V87.4915H651.585V84.1631H649.924ZM650.754 88.3436H660.487V86.6395H650.754V88.3436ZM659.656 87.4915V90.8199H661.317V87.4915H659.656ZM660.487 91.672H670.219V89.9679H660.487V91.672ZM671.05 90.8199V87.4915H669.389V90.8199H671.05ZM670.219 88.3436H679.947V86.6395H670.219V88.3436ZM680.778 87.4915V84.1631H679.117V87.4915H680.778ZM679.947 85.0151H683.194V83.3111H679.947V85.0151ZM684.025 84.1631V80.8351H682.364V84.1631H684.025ZM683.194 81.6872H686.437V79.9831H683.194V81.6872ZM687.268 80.8351V77.5072H685.607V80.8351H687.268ZM686.437 78.3592H689.68V76.6551H686.437V78.3592ZM690.51 77.5072V70.8503H688.849V77.5072H690.51ZM689.68 71.7024H692.927V69.9983H689.68V71.7024ZM693.757 70.8503V7.61485H692.096V70.8503H693.757ZM692.927 6.76284H689.68V8.46687H692.927V6.76284ZM690.51 7.61485V4.28666H688.849V7.61485H690.51ZM689.68 3.43464H683.194V5.13868H689.68V3.43464ZM684.025 4.28666V0.958463H682.364V4.28666H684.025ZM683.194 1.81048H709.145V0.106445H683.194V1.81048ZM708.314 0.958463V4.28666H709.975V0.958463H708.314ZM709.145 3.43464H702.655V5.13868H709.145V3.43464ZM701.825 4.28666V7.61485H703.485V4.28666H701.825ZM702.655 6.76284H699.412V8.46687H702.655V6.76284ZM698.582 7.61485V87.4915H700.243V7.61485H698.582ZM699.412 88.3436H702.655V86.6395H699.412V88.3436ZM701.825 87.4915V90.8199H703.485V87.4915H701.825ZM702.655 91.672H709.145V89.9679H702.655V91.672ZM708.314 90.8199V94.1479H709.975V90.8199H708.314ZM709.145 93.2959H692.927V94.9999H709.145V93.2959ZM693.757 94.1479V84.1631H692.096V94.1479H693.757ZM692.927 83.3111H689.68V85.0151H692.927V83.3111ZM688.849 84.1631V87.4915H690.51V84.1631H688.849ZM689.68 86.6395H683.194V88.3436H689.68V86.6395ZM682.364 87.4915V90.8199H684.025V87.4915H682.364ZM683.194 89.9679H673.462V91.672H683.194V89.9679ZM672.632 90.8199V94.1479H674.292V90.8199H672.632ZM673.462 93.2959H657.244V94.9999H673.462V93.2959Z" fill="black"/>
</g>
</g>
<defs>
<clipPath id="clip0_624_1342">
<rect width="710" height="95" fill="white"/>
</clipPath>
</defs>
</svg>
