<svg width="60" height="60" viewBox="0 0 60 60" fill="none" xmlns="http://www.w3.org/2000/svg">
<g clip-path="url(#clip0_934_11158)">
<path d="M46.3013 43.9188C46.7235 42.2243 46.9369 40.4716 46.9369 38.6878C46.9369 37.9118 46.8956 37.134 46.8134 36.363C49.911 35.8642 52.2849 33.1719 52.2849 29.9357C52.2849 26.3461 49.3646 23.4256 45.7749 23.4256C45.4903 23.4256 45.2087 23.4457 44.9307 23.4814C45.6254 21.6902 46.0074 19.7442 46.0074 17.7106C46.0074 16.3741 45.8432 15.0541 45.5188 13.7722C48.054 12.6199 49.7356 10.078 49.7356 7.20999C49.7357 3.23427 46.5015 0 42.5257 0C40.133 0 37.9189 1.19145 36.5882 3.11896C34.5283 2.18977 32.2739 1.70286 29.9999 1.70286C27.7256 1.70286 25.471 2.18977 23.4111 3.11896C22.0804 1.19145 19.8664 0 17.4737 0C13.4982 0 10.264 3.23427 10.264 7.20999C10.264 10.078 11.9453 12.6199 14.4804 13.7722C14.156 15.0537 13.9919 16.3737 13.9919 17.7106C13.9919 19.7443 14.374 21.6902 15.0686 23.4814C14.7908 23.4456 14.5092 23.4256 14.2245 23.4256C10.6348 23.4256 7.71436 26.3461 7.71436 29.9357C7.71436 33.1718 10.0881 35.8642 13.186 36.363C13.104 37.1336 13.0625 37.9112 13.0625 38.6878C13.0625 40.4719 13.2759 42.2246 13.6981 43.9188C13.6981 43.9188 13.6977 43.9188 13.6975 43.9188C13.6906 43.9195 13.6839 43.9206 13.677 43.9213C13.5526 43.9343 13.429 43.9499 13.3061 43.9686C13.2638 43.9749 13.2223 43.9833 13.1805 43.9905C13.0938 44.0051 13.0067 44.0197 12.9208 44.037C12.8713 44.047 12.8227 44.0589 12.7735 44.0699C12.696 44.087 12.6184 44.104 12.5418 44.1236C12.4901 44.1366 12.4391 44.1515 12.3881 44.1654C12.3149 44.1856 12.2419 44.2055 12.1696 44.2277C12.1174 44.2435 12.0659 44.261 12.0142 44.2779C11.9441 44.3009 11.8742 44.3241 11.8048 44.349C11.7528 44.3676 11.7016 44.3875 11.65 44.4071C11.5822 44.433 11.5147 44.4594 11.4477 44.487C11.3966 44.5081 11.346 44.5303 11.2953 44.5524C11.2294 44.5812 11.1637 44.6108 11.0988 44.6415C11.0487 44.665 10.9991 44.689 10.9496 44.7138C10.8854 44.7456 10.8218 44.7782 10.7586 44.8117C10.7098 44.8375 10.6615 44.8635 10.6135 44.8903C10.5507 44.9252 10.4887 44.9612 10.4269 44.9976C10.38 45.0254 10.3334 45.0531 10.287 45.0817C10.2255 45.1198 10.1648 45.1592 10.1043 45.199C10.0596 45.2285 10.0149 45.2575 9.97082 45.2878C9.91023 45.3295 9.85047 45.3725 9.79105 45.4157C9.74898 45.4463 9.70668 45.4765 9.66519 45.5079C9.60484 45.5535 9.54578 45.6009 9.48672 45.6482C9.44781 45.6794 9.40855 45.71 9.37023 45.7419C9.30894 45.793 9.24906 45.8457 9.18929 45.8987C9.15519 45.9288 9.12039 45.9581 9.08687 45.9887C9.02007 46.0498 8.95515 46.1128 8.89035 46.176C8.86562 46.2003 8.83995 46.2235 8.81535 46.2481C8.63781 46.4261 8.46859 46.6122 8.30804 46.806C8.28448 46.8343 8.26269 46.8637 8.23972 46.8922C8.18417 46.9612 8.12874 47.0302 8.07542 47.1012C8.0473 47.1386 8.02069 47.1769 7.99315 47.215C7.94698 47.2787 7.90081 47.3423 7.8564 47.4073C7.82769 47.4494 7.80026 47.4928 7.77214 47.5354C7.73136 47.5978 7.69046 47.6602 7.6512 47.7237C7.62308 47.7692 7.59647 47.8156 7.5694 47.8617C7.53249 47.9241 7.49593 47.9868 7.46077 48.0503C7.43417 48.0985 7.40874 48.1471 7.38319 48.1958C7.34991 48.2589 7.3171 48.3221 7.28557 48.3862C7.26085 48.4365 7.23694 48.4872 7.21303 48.538C7.18327 48.6021 7.15385 48.6664 7.12561 48.7313C7.10288 48.7832 7.08096 48.8356 7.05952 48.8881C7.03268 48.9534 7.00678 49.0191 6.98159 49.0853C6.96131 49.1387 6.94163 49.1921 6.92217 49.2461C6.8985 49.3129 6.87588 49.3801 6.85374 49.4478C6.83604 49.5022 6.81846 49.5567 6.80182 49.6115C6.7812 49.6801 6.76198 49.7491 6.74299 49.8182C6.72799 49.8733 6.71288 49.9284 6.69881 49.9839C6.68112 50.0545 6.66518 50.1259 6.64948 50.1971C6.63717 50.2523 6.62463 50.3076 6.61338 50.3634C6.59885 50.4369 6.5862 50.5112 6.57377 50.5852C6.56463 50.6397 6.55456 50.694 6.54623 50.7488C6.53463 50.827 6.52549 50.9059 6.51623 50.9847C6.51014 51.0366 6.50288 51.0881 6.49772 51.1402C6.48905 51.2278 6.48331 51.316 6.47756 51.4043C6.47463 51.4487 6.47018 51.4926 6.46807 51.5373C6.46139 51.6704 6.45799 51.8043 6.45799 51.9389C6.45799 52.2167 6.47206 52.4913 6.49959 52.7619C6.91327 56.8219 10.3519 60.0002 14.5192 60.0002H14.5195C14.5197 60.0002 14.5201 60.0002 14.5201 60.0002C14.645 60.0002 14.7692 59.9964 14.8927 59.9907C14.9232 59.9893 14.9533 59.9876 14.9838 59.9859C15.0969 59.9796 15.2098 59.9711 15.3217 59.96C15.331 59.9592 15.3403 59.9585 15.3496 59.9576C18.1489 59.6734 20.5605 57.966 21.7673 55.4796C24.2751 57.0646 27.0903 57.8947 29.9996 57.8947C32.9084 57.8947 35.7237 57.0644 38.2319 55.4795C39.5562 58.2088 42.3323 60.0002 45.4796 60.0002C49.9248 60.0002 53.541 56.3839 53.541 51.9389C53.5412 47.7708 50.362 44.3315 46.3013 43.9188ZM12.7641 7.20999C12.7641 4.61299 14.8768 2.5002 17.4737 2.5002C19.3239 2.5002 21.0105 3.59064 21.7706 5.27815C21.9138 5.59608 22.1831 5.83971 22.5137 5.95034C22.8445 6.06096 23.2063 6.0285 23.5118 5.8608C25.488 4.77635 27.7317 4.20318 29.9999 4.20318C32.2681 4.20318 34.5114 4.77635 36.4876 5.8608C36.7934 6.02838 37.155 6.06108 37.4856 5.95034C37.8162 5.83971 38.0856 5.59608 38.2288 5.27826C38.9891 3.59064 40.6757 2.5002 42.526 2.5002C45.1229 2.5002 47.2358 4.61299 47.2358 7.20999C47.2358 9.37199 45.774 11.2499 43.6808 11.777C43.3427 11.8621 43.0554 12.0847 42.8884 12.3908C42.7215 12.6967 42.6899 13.0587 42.8015 13.3891C43.2699 14.7774 43.5074 16.2314 43.5074 17.7107C43.5074 25.159 37.448 31.2184 30 31.2184C22.5518 31.2184 16.4921 25.159 16.4921 17.7107C16.4921 16.2523 16.7239 14.8194 17.1789 13.4498C17.1868 13.4302 17.1948 13.4108 17.2017 13.3905C17.4909 12.5337 17.8681 11.703 18.3223 10.9216C18.6692 10.3246 18.4666 9.55949 17.87 9.21261C17.2729 8.86574 16.5079 9.06824 16.1609 9.66519C15.8384 10.2202 15.5493 10.7964 15.2951 11.3874C13.7648 10.5913 12.7641 8.99816 12.7641 7.20999ZM37.2135 35.4614C37.2135 38.3146 36.4178 40.9823 34.9729 42.9732C33.6157 44.843 31.8497 45.873 30 45.873C28.1501 45.873 26.3838 44.8431 25.0265 42.9732C23.5816 40.9824 22.7859 38.3147 22.7859 35.4615C22.7859 34.33 22.9129 33.2325 23.1584 32.181C25.2342 33.1663 27.5536 33.7186 30 33.7186C32.4462 33.7186 34.7654 33.1663 36.8411 32.181C37.0865 33.2324 37.2135 34.3299 37.2135 35.4614ZM19.9107 53.3052C19.9068 53.3206 19.9027 53.3359 19.8987 53.3513C19.3434 55.4651 17.5722 57.0912 15.3808 57.4332C15.3688 57.4351 15.3567 57.4369 15.3447 57.4386C15.2724 57.4494 15.1999 57.4584 15.1269 57.4664C15.1045 57.4687 15.0823 57.4714 15.0598 57.4735C14.9937 57.4799 14.9269 57.4847 14.86 57.4888C14.8359 57.4903 14.8116 57.4923 14.7875 57.4933C14.6991 57.4976 14.6103 57.5001 14.5209 57.5001C14.5205 57.5001 14.5202 57.5001 14.5196 57.5001C11.8363 57.5 9.59078 55.59 9.07128 53.0583C8.9971 52.6966 8.95831 52.3222 8.95831 51.939C8.95831 51.5558 8.99734 51.1814 9.07128 50.8195C9.59078 48.2878 11.8363 46.3776 14.5196 46.3775C14.6265 46.3775 14.7343 46.3814 14.8419 46.3874C14.8743 46.3893 14.9067 46.3925 14.939 46.3949C15.0126 46.4005 15.0861 46.4071 15.1592 46.4155C17.9253 46.7339 20.0809 49.0887 20.0809 51.9389C20.081 52.4102 20.0216 52.8678 19.9107 53.3052ZM45.4798 57.5C42.8895 57.5 40.6645 55.7424 40.0684 53.2257C40.0547 53.1671 40.0357 53.1106 40.0139 53.0554C39.9385 52.6881 39.898 52.3135 39.898 51.9388C39.898 51.3311 39.9969 50.7309 40.1918 50.1552C40.4132 49.5012 40.0627 48.7916 39.4088 48.5702C38.755 48.3488 38.0452 48.6993 37.8237 49.3532C37.541 50.188 37.3978 51.0577 37.3978 51.9388C37.3978 52.2874 37.4228 52.6358 37.4679 52.9816C35.2176 54.5613 32.6515 55.3946 29.9998 55.3946C27.3402 55.3946 24.7672 54.557 22.513 52.969C22.5562 52.6313 22.5809 52.2881 22.5809 51.9389C22.5809 48.1178 19.9079 44.9116 16.3344 44.0858C15.8221 42.3529 15.5623 40.5407 15.5623 38.6878C15.5623 37.5819 15.6571 36.4738 15.8438 35.3946C15.9094 35.0154 15.7968 34.627 15.5384 34.3419C15.2799 34.0568 14.9038 33.9066 14.5208 33.9348C14.4223 33.9421 14.3225 33.9457 14.2244 33.9457C12.0133 33.9457 10.2145 32.1469 10.2145 29.9359C10.2145 27.7249 12.0134 25.9261 14.2244 25.9261C15.2698 25.9261 16.255 26.3252 17.0063 27.0498C18.0792 28.5381 19.4009 29.8352 20.9103 30.8803C20.4958 32.3385 20.2855 33.8752 20.2855 35.4617C20.2855 38.8382 21.2506 42.0275 23.0029 44.4418C24.843 46.9769 27.328 48.3731 29.9998 48.3731C32.6713 48.3731 35.156 46.9769 36.9962 44.4418C38.7486 42.0273 39.7135 38.8382 39.7135 35.4617C39.7135 33.8751 39.5035 32.3385 39.089 30.8803C40.5984 29.8353 41.9201 28.5383 42.9929 27.0499C43.744 26.3253 44.7292 25.9261 45.7748 25.9261C47.9859 25.9261 49.7846 27.7249 49.7846 29.9359C49.7846 32.1469 47.9858 33.9457 45.7748 33.9457C45.6762 33.9457 45.5766 33.9421 45.4785 33.9348C45.0952 33.9065 44.7194 34.0568 44.4609 34.3418C44.2024 34.6269 44.0895 35.0152 44.1553 35.3944C44.342 36.4751 44.4367 37.5831 44.4367 38.6878C44.4367 40.7884 44.1032 42.8377 43.4454 44.7788C43.3073 45.1864 43.3886 45.6363 43.6605 45.9698C43.9324 46.3033 44.3563 46.4737 44.7837 46.4206C45.014 46.392 45.2481 46.3775 45.4798 46.3775C48.5464 46.3775 51.0411 48.8724 51.0411 51.939C51.0411 55.0053 48.5464 57.5 45.4798 57.5Z" fill="black"/>
<path d="M24.8399 17.0743C25.8726 17.0743 26.7149 16.2319 26.7149 15.1992C26.7149 14.1667 25.8726 13.3244 24.8399 13.3244C23.8071 13.3244 22.9649 14.1667 22.9649 15.1992C22.9649 16.2319 23.8071 17.0743 24.8399 17.0743Z" fill="black"/>
<path d="M35.1599 17.0743C36.1927 17.0743 37.035 16.2319 37.035 15.1992C37.035 14.1667 36.1927 13.3244 35.1599 13.3244C34.1271 13.3244 33.2848 14.1667 33.2848 15.1992C33.2848 16.2319 34.127 17.0743 35.1599 17.0743Z" fill="black"/>
<path d="M29.9999 21.9044C31.0327 21.9044 31.8749 21.0624 31.8749 20.0297C31.8749 18.9969 31.0327 18.1545 29.9999 18.1545C28.9671 18.1545 28.1248 18.9969 28.1248 20.0297C28.1249 21.0624 28.9671 21.9044 29.9999 21.9044Z" fill="black"/>
<path d="M40.2979 45.7461L40.2754 45.7652C39.7414 46.2029 39.6632 46.9905 40.101 47.5244C40.3482 47.8259 40.7068 47.982 41.0684 47.982C41.3471 47.982 41.6277 47.8891 41.8601 47.6987L41.9036 47.6622C42.4327 47.2188 42.5023 46.4303 42.0589 45.9012C41.6155 45.3724 40.827 45.3026 40.2979 45.7461Z" fill="black"/>
<path d="M19.3225 8.77305C19.6519 8.77305 19.9808 8.64367 20.2263 8.38691L20.2467 8.36511C20.7211 7.86343 20.6989 7.0723 20.1973 6.59792C19.6957 6.12366 18.9044 6.14569 18.4301 6.64726C18.4287 6.64878 18.4197 6.65827 18.4164 6.66202C17.9421 7.16113 17.9608 7.95039 18.459 8.42652C18.7011 8.65797 19.012 8.77305 19.3225 8.77305Z" fill="black"/>
</g>
<defs>
<clipPath id="clip0_934_11158">
<rect width="60" height="60" fill="white"/>
</clipPath>
</defs>
</svg>
