<svg width="30" height="30" viewBox="0 0 30 30" fill="none" xmlns="http://www.w3.org/2000/svg">
<g id="calendar-add_svgrepo.com">
<path id="Vector" d="M27 12.2143V10.9714C27 9.23126 27 8.36118 26.6512 7.69653C26.3445 7.11188 25.8549 6.63654 25.2528 6.33866C24.5683 6 23.6722 6 21.88 6H8.12C6.32784 6 5.43174 6 4.74723 6.33866C4.1451 6.63654 3.65557 7.11188 3.34878 7.69653C3 8.36118 3 9.23126 3 10.9714V12.2143M27 12.2143V22.7786C27 24.5187 27 25.3889 26.6512 26.0535C26.3445 26.6381 25.8549 27.1135 25.2528 27.4113C24.5683 27.75 23.6722 27.75 21.88 27.75H8.12C6.32782 27.75 5.43174 27.75 4.74723 27.4113C4.1451 27.1135 3.65557 26.6381 3.34878 26.0535C3 25.3889 3 24.5187 3 22.7786V12.2143M27 12.2143H3" stroke="#222222"/>
<path id="Vector_2" d="M9.75 2.25V9M21 2.25V9" stroke="#222222" stroke-linecap="round"/>
<path id="Vector_3" d="M18 19.5H12" stroke="#222222" stroke-linecap="round"/>
<path id="Vector_4" d="M15 16.5L15 22.5" stroke="#222222" stroke-linecap="round"/>
</g>
</svg>
