<svg width="30" height="30" viewBox="0 0 30 30" fill="none" xmlns="http://www.w3.org/2000/svg">
<g id="insta_svgrepo.com">
<path id="Vector" d="M3.75 13.75C3.75 9.03595 3.75 6.67894 5.21446 5.21446C6.67894 3.75 9.03595 3.75 13.75 3.75H16.25C20.964 3.75 23.3211 3.75 24.7855 5.21446C26.25 6.67894 26.25 9.03595 26.25 13.75V16.25C26.25 20.964 26.25 23.3211 24.7855 24.7855C23.3211 26.25 20.964 26.25 16.25 26.25H13.75C9.03595 26.25 6.67894 26.25 5.21446 24.7855C3.75 23.3211 3.75 20.964 3.75 16.25V13.75Z" stroke="#222222"/>
<path id="Vector_2" d="M20.5 10.5C21.3284 10.5 22 9.82843 22 9C22 8.17157 21.3284 7.5 20.5 7.5C19.6716 7.5 19 8.17157 19 9C19 9.82843 19.6716 10.5 20.5 10.5Z" fill="#222222"/>
<path id="Vector_3" d="M15 19.375C17.4162 19.375 19.375 17.4162 19.375 15C19.375 12.5838 17.4162 10.625 15 10.625C12.5838 10.625 10.625 12.5838 10.625 15C10.625 17.4162 12.5838 19.375 15 19.375Z" stroke="#222222"/>
</g>
</svg>
