<svg width="30" height="30" viewBox="0 0 30 30" fill="none" xmlns="http://www.w3.org/2000/svg">
<g id="slack-outline_svgrepo.com">
<path id="Vector" d="M11.6665 2.5C10.2858 2.5 9.16664 3.62164 9.16664 5.00485C9.16631 5.33346 9.23071 5.65893 9.35616 5.96265C9.48161 6.26638 9.66565 6.54241 9.89779 6.77501C10.1299 7.00761 10.4056 7.19221 10.7091 7.31827C11.0125 7.44432 11.3379 7.50938 11.6665 7.50971H14.1667V5.00485C14.1673 4.34115 13.9042 3.70441 13.4353 3.23467C12.9664 2.76492 12.3302 2.50066 11.6665 2.5ZM11.6665 9.17961H4.99984C3.61913 9.17961 2.5 10.3012 2.5 11.6849C2.5 13.0681 3.61913 14.1897 4.99984 14.1897H11.6669C13.0472 14.1897 14.1667 13.0681 14.1667 11.6849C14.1667 10.3012 13.0472 9.17961 11.6665 9.17961Z" stroke="black" stroke-linejoin="round"/>
<path id="Vector_2" d="M27.5 11.6849C27.5 10.3012 26.3804 9.17961 24.9998 9.17961C23.619 9.17961 22.4999 10.3012 22.4999 11.6849V14.1897H24.9998C25.6634 14.1891 26.2996 13.9248 26.7685 13.4551C27.2374 12.9854 27.5005 12.3486 27.5 11.6849ZM20.8334 11.6849V5.00485C20.8339 4.34115 20.5708 3.70441 20.1019 3.23467C19.633 2.76492 18.9968 2.50066 18.3331 2.5C16.9524 2.5 15.8333 3.62164 15.8333 5.00485V11.6845C15.8333 13.0685 16.9524 14.1901 18.3331 14.1901C18.9968 14.1895 19.633 13.9252 20.1019 13.4555C20.5708 12.9857 20.8339 12.3486 20.8334 11.6849Z" stroke="black" stroke-linejoin="round"/>
<path id="Vector_3" d="M18.3331 27.5494C18.9968 27.5487 19.633 27.2845 20.1019 26.8147C20.5708 26.345 20.8339 25.7082 20.8334 25.0445C20.8339 24.3809 20.5708 23.7441 20.1019 23.2744C19.633 22.8046 18.9968 22.5404 18.3331 22.5396H15.8333V25.0445C15.8333 26.4277 16.9524 27.5494 18.3331 27.5494ZM18.3331 20.8697H25.0001C26.3804 20.8697 27.5 19.7481 27.5 18.3645C27.5005 17.7007 27.2374 17.064 26.7685 16.5944C26.2996 16.1246 25.6634 15.8602 24.9998 15.8596H18.3331C16.9524 15.8596 15.8333 16.9812 15.8333 18.3645C15.8329 18.6931 15.8973 19.0186 16.0228 19.3222C16.1483 19.626 16.3323 19.902 16.5644 20.1346C16.7965 20.3672 17.0721 20.5519 17.3756 20.6779C17.6791 20.804 18.0045 20.8695 18.3331 20.8697Z" stroke="black" stroke-linejoin="round"/>
<path id="Vector_4" d="M2.5 18.3645C2.49968 18.6931 2.56408 19.0186 2.68953 19.3222C2.81496 19.626 2.99901 19.902 3.23115 20.1346C3.46328 20.3672 3.73895 20.5519 4.04241 20.6779C4.34589 20.804 4.67123 20.869 4.99984 20.8694C5.66354 20.8686 6.29979 20.6044 6.76868 20.1346C7.23755 19.665 7.50064 19.0282 7.50009 18.3645V15.8596H4.99984C3.61913 15.8596 2.5 16.9812 2.5 18.3645ZM9.16664 18.3645V25.0441C9.16664 26.4277 10.2858 27.5494 11.6665 27.5494C12.3302 27.5487 12.9664 27.2845 13.4353 26.8147C13.9042 26.345 14.1673 25.7082 14.1667 25.0445V18.3645C14.167 18.0359 14.1027 17.7104 13.9772 17.4066C13.8517 17.1029 13.6677 16.8267 13.4354 16.5942C13.2033 16.3616 12.9275 16.177 12.624 16.051C12.3205 15.9249 11.9951 15.8599 11.6665 15.8596C10.2858 15.8596 9.16664 16.9812 9.16664 18.3645Z" stroke="black" stroke-linejoin="round"/>
</g>
</svg>
