<svg width="108" height="42" viewBox="0 0 108 42" fill="none" xmlns="http://www.w3.org/2000/svg">
<g id="sticker3" clip-path="url(#clip0_702_141)">
<path id="Vector" d="M87.0058 41.3899C98.2636 41.3899 107.39 32.2619 107.39 21.0018C107.39 9.74182 98.2636 0.61377 87.0058 0.61377C75.748 0.61377 66.6217 9.74182 66.6217 21.0018C66.6217 32.2619 75.748 41.3899 87.0058 41.3899Z" fill="white" stroke="black" stroke-miterlimit="10"/>
<path id="Vector_2" d="M54 41.3899C65.2578 41.3899 74.3841 32.2619 74.3841 21.0018C74.3841 9.74182 65.2578 0.61377 54 0.61377C42.7422 0.61377 33.6159 9.74182 33.6159 21.0018C33.6159 32.2619 42.7422 41.3899 54 41.3899Z" fill="white" stroke="black" stroke-miterlimit="10"/>
<path id="Vector_3" d="M20.9977 41.3899C32.2555 41.3899 41.3818 32.2619 41.3818 21.0018C41.3818 9.74182 32.2555 0.61377 20.9977 0.61377C9.73986 0.61377 0.613586 9.74182 0.613586 21.0018C0.613586 32.2619 9.73986 41.3899 20.9977 41.3899Z" fill="white" stroke="black" stroke-miterlimit="10"/>
<path id="Vector_4" d="M54 0.61377V41.3864" stroke="black" stroke-miterlimit="10"/>
<path id="Vector_5" d="M35.702 21.0017H76.4667" stroke="black" stroke-miterlimit="10"/>
<path id="Vector_6" d="M20.9977 41.3899C27.9684 41.3899 33.6194 32.2619 33.6194 21.0018C33.6194 9.74182 27.9684 0.61377 20.9977 0.61377C14.0269 0.61377 8.37592 9.74182 8.37592 21.0018C8.37592 32.2619 14.0269 41.3899 20.9977 41.3899Z" stroke="black" stroke-miterlimit="10"/>
<path id="Vector_7" d="M20.9977 0.61377V41.3864" stroke="black" stroke-miterlimit="10"/>
<path id="Vector_8" d="M0.613586 21.0017H41.3783" stroke="black" stroke-miterlimit="10"/>
<path id="Vector_9" d="M87.0058 41.3899C93.9766 41.3899 99.6276 32.2619 99.6276 21.0018C99.6276 9.74182 93.9766 0.61377 87.0058 0.61377C80.035 0.61377 74.3841 9.74182 74.3841 21.0018C74.3841 32.2619 80.035 41.3899 87.0058 41.3899Z" stroke="black" stroke-miterlimit="10"/>
<path id="Vector_10" d="M54 41.3899C60.9708 41.3899 66.6217 32.2619 66.6217 21.0018C66.6217 9.74182 60.9708 0.61377 54 0.61377C47.0292 0.61377 41.3782 9.74182 41.3782 21.0018C41.3782 32.2619 47.0292 41.3899 54 41.3899Z" stroke="black" stroke-miterlimit="10"/>
<path id="Vector_11" d="M87.0059 0.61377V41.3864" stroke="black" stroke-miterlimit="10"/>
<path id="Vector_12" d="M66.6217 21.0017H107.386" stroke="black" stroke-miterlimit="10"/>
</g>
<defs>
<clipPath id="clip0_702_141">
<rect width="108" height="42" fill="white"/>
</clipPath>
</defs>
</svg>
